<svg width="209" height="40" viewBox="0 0 209 40" fill="none" xmlns="http://www.w3.org/2000/svg">
<path d="M88.0018 5.93837C88.4252 5.81788 88.9169 5.88843 89.2556 6.18153C89.8168 6.65264 89.8006 7.64916 89.2046 8.08554C88.5989 8.54797 87.5579 8.37212 87.2517 7.63722C86.9445 6.99241 87.293 6.12074 88.0018 5.93837Z" fill="#E5E6EC"/>
<path d="M51.7651 6.91011C52.8995 6.91336 54.0339 6.90251 55.1693 6.91554C56.1474 6.95136 57.2199 7.13915 57.9309 7.87188C58.9947 8.98889 58.7038 11.0872 57.297 11.7906C58.0406 12.024 58.7277 12.5516 58.9795 13.3115C59.3378 14.4002 59.0957 15.7289 58.2186 16.5072C57.4229 17.2194 56.3178 17.4451 55.2801 17.4712C54.1088 17.4766 52.9364 17.4723 51.7651 17.4734C51.7651 13.9519 51.764 10.4316 51.7651 6.91011ZM53.528 8.47761C53.5291 9.36882 53.5269 10.259 53.5291 11.1502C54.416 11.1219 55.3582 11.2609 56.1908 10.8799C56.7922 10.6074 56.9311 9.82692 56.7434 9.25159C56.6098 8.85537 56.1952 8.65998 55.8141 8.57856C55.063 8.4179 54.2901 8.49606 53.528 8.47761ZM53.5291 12.7177C53.528 13.7804 53.5302 14.8431 53.528 15.9059C54.5669 15.8657 55.6806 16.0611 56.6467 15.5759C57.3545 15.2318 57.5434 14.2939 57.2731 13.6089C57.0907 13.1758 56.6359 12.9478 56.2017 12.8447C55.3257 12.6395 54.4192 12.7426 53.5291 12.7177Z" fill="#E5E6EC"/>
<path d="M95.8573 9.49777C97.5572 8.9105 99.5003 9.31757 100.934 10.3673C100.634 10.7711 100.331 11.1717 100.026 11.5722C99.1529 10.9274 98.0413 10.5844 96.958 10.7385C96.6627 10.7863 96.3457 10.8731 96.1417 11.1076C95.9376 11.3367 95.9278 11.7502 96.1927 11.9391C96.5433 12.191 96.9743 12.2919 97.3857 12.4005C98.2823 12.6111 99.2061 12.7739 100.039 13.1886C100.479 13.4057 100.895 13.7357 101.087 14.2014C101.376 14.9145 101.277 15.7906 100.776 16.3854C100.269 17.0118 99.4829 17.3353 98.7068 17.4677C96.946 17.7651 95.0985 17.2549 93.6699 16.2009C93.9598 15.7851 94.2463 15.3683 94.534 14.9504C95.6564 15.8253 97.1436 16.2421 98.5526 15.9903C98.9868 15.9035 99.5111 15.6039 99.4612 15.0904C99.4558 14.6953 99.0422 14.514 98.7306 14.3902C97.5268 13.9441 96.1536 13.9354 95.0768 13.1701C94.4591 12.7674 94.115 11.9988 94.2507 11.2693C94.3614 10.415 95.0692 9.76264 95.8573 9.49777Z" fill="#E5E6EC"/>
<path d="M64.2079 10.2144C65.1534 9.35362 66.6124 9.07247 67.7869 9.60655C68.0984 9.74116 68.3753 9.93872 68.6455 10.1395C68.6749 9.9333 68.7053 9.72813 68.7356 9.52297C69.2252 9.52188 69.7148 9.52188 70.2055 9.52188C70.2065 12.1727 70.2055 14.8225 70.2055 17.4734C69.7018 17.4744 69.1992 17.4734 68.6955 17.4734C68.6683 17.2237 68.6412 16.9729 68.6162 16.7233C68.08 17.1596 67.4547 17.5103 66.7654 17.6232C65.6831 17.7817 64.501 17.4028 63.7954 16.5452C63.0779 15.6909 62.8423 14.5381 62.8521 13.4482C62.8586 12.252 63.295 11.0188 64.2079 10.2144ZM64.6877 12.9565C64.59 13.788 64.666 14.702 65.161 15.4054C65.5637 15.9786 66.3323 16.1979 66.9988 16.0492C67.573 15.933 68.0453 15.552 68.4415 15.1395C68.4404 13.9649 68.4426 12.7893 68.4404 11.6148C67.8542 11.0894 67.0346 10.742 66.2465 10.9678C65.3597 11.2012 64.7984 12.0848 64.6877 12.9565Z" fill="#E5E6EC"/>
<path d="M76.1857 9.62941C77.8975 9.00632 79.8743 9.41231 81.3245 10.4761C81.0238 10.8789 80.7188 11.2794 80.4181 11.6821C79.49 10.9863 78.2688 10.6411 77.1225 10.8908C76.736 10.9635 76.3268 11.2718 76.3876 11.7093C76.444 12.0784 76.85 12.214 77.1539 12.3269C78.3969 12.7362 79.7885 12.797 80.886 13.5742C81.5883 14.0594 81.7848 15.0288 81.5395 15.8115C81.3452 16.4237 80.8556 16.9035 80.2911 17.189C79.5085 17.5852 78.6096 17.6905 77.7423 17.6493C76.4169 17.5841 75.1338 17.0848 74.0613 16.3119C74.3479 15.8918 74.641 15.4761 74.9264 15.056C76.0413 15.9309 77.5198 16.3423 78.9223 16.1013C79.3728 16.0199 79.9144 15.7105 79.8526 15.1786C79.8341 14.7824 79.414 14.6163 79.1014 14.4882C77.8964 14.0518 76.5233 14.0366 75.4518 13.2648C74.8776 12.8751 74.5335 12.1761 74.6301 11.4824C74.6952 10.6086 75.39 9.91273 76.1857 9.62941Z" fill="#E5E6EC"/>
<path d="M84.1956 10.9328C84.1946 10.4259 84.1946 9.92003 84.1956 9.41309C85.9368 9.41417 87.678 9.41309 89.4192 9.41417C89.4192 12.0639 89.4192 14.7148 89.4192 17.3646C88.8308 17.3646 88.2436 17.3646 87.6552 17.3646C87.6541 15.2207 87.6552 13.0767 87.6552 10.9339C86.5013 10.9328 85.3485 10.9339 84.1956 10.9328Z" fill="#E5E6EC"/>
<path d="M51.7646 21.8514C54.0128 21.847 56.2609 21.8503 58.509 21.8503C58.509 25.642 58.509 29.4349 58.509 33.2277C57.9207 33.2277 57.3334 33.2277 56.745 33.2266C56.744 29.9613 56.745 26.6961 56.745 23.4308C55.0853 23.4297 53.4255 23.4319 51.7657 23.4308C51.7646 22.9043 51.7657 22.3779 51.7646 21.8514Z" fill="#E5E6EC"/>
<path d="M63.3609 21.8502C63.9493 21.8491 64.5366 21.8502 65.1249 21.8491C65.1108 23.3178 65.1618 24.7876 65.075 26.2542C65.6948 25.6778 66.4677 25.2164 67.3275 25.1491C68.1546 25.0796 69.0741 25.2522 69.6657 25.8786C70.2877 26.5223 70.444 27.4613 70.4549 28.3243C70.4603 29.9743 70.456 31.6243 70.457 33.2743C69.8665 33.2754 69.276 33.2743 68.6865 33.2743C68.6855 31.6612 68.6876 30.0481 68.6855 28.435C68.6735 27.978 68.6225 27.4787 68.3185 27.1139C67.9972 26.7448 67.4599 26.7069 67.0051 26.7427C66.2278 26.8176 65.6449 27.3983 65.1238 27.9237C65.126 29.7072 65.1249 31.4908 65.1238 33.2743C64.5355 33.2754 63.9482 33.2743 63.3599 33.2754C63.3609 29.4663 63.3599 25.6582 63.3609 21.8502Z" fill="#E5E6EC"/>
<path d="M75.1401 26.4699C76.2973 25.1553 78.3435 24.7678 79.9186 25.5124C80.7088 25.8696 81.3157 26.5784 81.5946 27.3947C81.8704 28.1969 81.8964 29.074 81.7303 29.9034C79.7905 29.9023 77.8517 29.9012 75.913 29.9034C76.0281 30.6329 76.4492 31.3374 77.1396 31.6489C78.3619 32.2546 79.8404 31.9301 80.9086 31.1528C81.1387 31.5718 81.3721 31.9887 81.6044 32.4066C80.7544 32.9928 79.7612 33.4129 78.7191 33.4552C77.538 33.5301 76.2962 33.2121 75.406 32.4055C73.7669 30.9249 73.6833 28.1036 75.1401 26.4699ZM76.9616 26.9887C76.4449 27.3036 76.1236 27.8485 75.9683 28.4216C77.3687 28.426 78.769 28.4238 80.1704 28.4227C80.0857 27.8539 79.8589 27.2558 79.3508 26.9377C78.6377 26.4916 77.6618 26.5372 76.9616 26.9887Z" fill="#E5E6EC"/>
<path d="M88.1068 25.2434C89.3204 24.9568 90.6806 25.2347 91.6283 26.063C93.4552 27.6728 93.4639 30.9305 91.625 32.5349C90.1661 33.806 87.754 33.7593 86.3569 32.4133C84.9924 31.1117 84.796 28.8994 85.5819 27.2418C86.0649 26.2388 87.0202 25.4865 88.1068 25.2434ZM88.4336 26.774C87.9841 26.9097 87.5966 27.2201 87.3545 27.6207C86.9486 28.2796 86.865 29.0905 86.9594 29.846C87.0484 30.5212 87.3567 31.2149 87.9472 31.5937C88.7266 32.0952 89.8675 31.9975 90.508 31.3104C91.0128 30.7785 91.1962 30.0164 91.1919 29.3C91.1908 28.5575 90.9965 27.7629 90.4483 27.231C89.9316 26.7121 89.1218 26.5688 88.4336 26.774Z" fill="#E5E6EC"/>
<path d="M96.2905 25.3268C98.3899 25.3171 100.489 25.3257 102.588 25.3225C102.588 25.8273 102.588 26.3309 102.588 26.8357C101.077 26.8368 99.5667 26.8357 98.0567 26.8368C98.0545 28.9818 98.0578 31.1279 98.0545 33.274C97.4672 33.2751 96.8789 33.2751 96.2916 33.274C96.2916 30.6253 96.2927 27.9766 96.2905 25.3268Z" fill="#E5E6EC"/>
<path d="M104.936 25.3247C105.547 25.3214 106.158 25.3225 106.769 25.3236C107.632 27.3003 108.523 29.2641 109.359 31.2527C110.076 29.2597 110.876 27.2982 111.643 25.3236C112.229 25.3214 112.816 25.3236 113.404 25.3225C112.418 27.7367 111.431 30.1509 110.446 32.5651C109.978 33.6431 109.661 34.8567 108.758 35.673C107.847 36.5306 106.44 36.6825 105.297 36.2472C105.423 35.7512 105.552 35.2572 105.681 34.7633C106.248 34.9663 106.916 35.0228 107.445 34.6895C108.029 34.3302 108.296 33.6626 108.52 33.046C107.322 30.4744 106.129 27.8985 104.936 25.3247Z" fill="#E5E6EC"/>
<rect width="40" height="40" fill="#1E233B"/>
<path d="M15 11.4738C18.3588 11.4673 21.7176 11.4722 25.0763 11.4722C25.0763 17.1372 25.0763 22.8038 25.0763 28.4705C24.1973 28.4705 23.3199 28.4705 22.4409 28.4688C22.4393 23.5904 22.4409 18.712 22.4409 13.8336C19.9611 13.832 17.4814 13.8352 15.0016 13.8336C15 13.047 15.0016 12.2604 15 11.4738Z" fill="#1AD1DB"/>
<rect x="141.5" y="6.5" width="67" height="27" rx="2.5" fill="#7E67F3" fill-opacity="0.2"/>
<path d="M156.998 25.168C156.382 25.168 155.808 25.0653 155.276 24.86C154.753 24.6547 154.296 24.3513 153.904 23.95C153.521 23.5487 153.223 23.054 153.008 22.466C152.793 21.878 152.686 21.206 152.686 20.45C152.686 19.7033 152.798 19.036 153.022 18.448C153.246 17.8507 153.549 17.3467 153.932 16.936C154.324 16.5253 154.781 16.2127 155.304 15.998C155.836 15.7833 156.405 15.676 157.012 15.676C157.665 15.676 158.216 15.7973 158.664 16.04C159.121 16.2733 159.495 16.5393 159.784 16.838L158.916 17.888C158.683 17.664 158.421 17.4773 158.132 17.328C157.852 17.1693 157.497 17.09 157.068 17.09C156.657 17.09 156.284 17.1693 155.948 17.328C155.621 17.4773 155.337 17.6967 155.094 17.986C154.861 18.266 154.679 18.6113 154.548 19.022C154.417 19.4327 154.352 19.8947 154.352 20.408C154.352 21.4533 154.585 22.2747 155.052 22.872C155.528 23.46 156.228 23.754 157.152 23.754C157.413 23.754 157.661 23.7213 157.894 23.656C158.127 23.5813 158.319 23.4787 158.468 23.348V21.374H156.732V20.044H159.924V24.076C159.616 24.384 159.205 24.6453 158.692 24.86C158.188 25.0653 157.623 25.168 156.998 25.168ZM165.383 25.168C164.851 25.168 164.37 25.0933 163.941 24.944C163.521 24.7853 163.157 24.538 162.849 24.202C162.55 23.866 162.317 23.4367 162.149 22.914C161.99 22.382 161.911 21.738 161.911 20.982V15.844H163.535V21.108C163.535 21.6027 163.577 22.0227 163.661 22.368C163.754 22.704 163.88 22.9747 164.039 23.18C164.207 23.3853 164.403 23.5347 164.627 23.628C164.851 23.712 165.103 23.754 165.383 23.754C165.663 23.754 165.92 23.712 166.153 23.628C166.386 23.5347 166.587 23.3853 166.755 23.18C166.923 22.9747 167.054 22.704 167.147 22.368C167.24 22.0227 167.287 21.6027 167.287 21.108V15.844H168.841V20.982C168.841 21.738 168.762 22.382 168.603 22.914C168.444 23.4367 168.211 23.866 167.903 24.202C167.604 24.538 167.24 24.7853 166.811 24.944C166.391 25.0933 165.915 25.168 165.383 25.168ZM171.127 25V15.844H172.751V25H171.127ZM175.078 25V15.844H177.528C178.928 15.844 180.02 16.222 180.804 16.978C181.588 17.734 181.98 18.868 181.98 20.38C181.98 21.136 181.877 21.8033 181.672 22.382C181.476 22.9607 181.187 23.446 180.804 23.838C180.431 24.2207 179.973 24.51 179.432 24.706C178.9 24.902 178.293 25 177.612 25H175.078ZM176.702 23.684H177.416C178.349 23.684 179.063 23.418 179.558 22.886C180.062 22.3447 180.314 21.5093 180.314 20.38C180.314 19.26 180.062 18.4433 179.558 17.93C179.054 17.4167 178.34 17.16 177.416 17.16H176.702V23.684ZM183.828 25V15.844H189.344V17.216H185.452V19.554H188.742V20.926H185.452V23.628H189.484V25H183.828ZM194.035 25.168C193.419 25.168 192.822 25.0513 192.243 24.818C191.674 24.5847 191.17 24.2533 190.731 23.824L191.683 22.718C192.01 23.026 192.383 23.278 192.803 23.474C193.223 23.6607 193.643 23.754 194.063 23.754C194.586 23.754 194.983 23.6467 195.253 23.432C195.524 23.2173 195.659 22.9327 195.659 22.578C195.659 22.3913 195.622 22.2327 195.547 22.102C195.482 21.9713 195.384 21.8593 195.253 21.766C195.132 21.6633 194.983 21.57 194.805 21.486C194.637 21.402 194.451 21.318 194.245 21.234L192.985 20.688C192.761 20.5947 192.537 20.478 192.313 20.338C192.099 20.198 191.903 20.03 191.725 19.834C191.548 19.638 191.403 19.4093 191.291 19.148C191.189 18.8867 191.137 18.588 191.137 18.252C191.137 17.888 191.212 17.552 191.361 17.244C191.52 16.9267 191.735 16.6513 192.005 16.418C192.276 16.1847 192.598 16.0027 192.971 15.872C193.354 15.7413 193.769 15.676 194.217 15.676C194.749 15.676 195.263 15.7833 195.757 15.998C196.252 16.2033 196.677 16.4833 197.031 16.838L196.205 17.874C195.907 17.6313 195.599 17.44 195.281 17.3C194.964 17.16 194.609 17.09 194.217 17.09C193.779 17.09 193.429 17.188 193.167 17.384C192.906 17.5707 192.775 17.832 192.775 18.168C192.775 18.3453 192.813 18.4993 192.887 18.63C192.971 18.7513 193.079 18.8633 193.209 18.966C193.349 19.0593 193.508 19.148 193.685 19.232C193.863 19.3067 194.045 19.3813 194.231 19.456L195.477 19.974C195.748 20.086 195.995 20.2167 196.219 20.366C196.443 20.5153 196.635 20.688 196.793 20.884C196.961 21.08 197.092 21.3087 197.185 21.57C197.279 21.822 197.325 22.116 197.325 22.452C197.325 22.8253 197.251 23.1753 197.101 23.502C196.952 23.8287 196.733 24.118 196.443 24.37C196.163 24.6127 195.818 24.8087 195.407 24.958C195.006 25.098 194.549 25.168 194.035 25.168Z" fill="#8D67F0"/>
<rect x="141.5" y="6.5" width="67" height="27" rx="2.5" stroke="url(#paint0_linear)"/>
<defs>
<linearGradient id="paint0_linear" x1="142" y1="4.5" x2="183.772" y2="53.6084" gradientUnits="userSpaceOnUse">
<stop stop-color="#7E67F3" stop-opacity="0.4"/>
<stop offset="1" stop-color="#7E67F3" stop-opacity="0.16"/>
</linearGradient>
</defs>
</svg>
