<svg width="240" height="73" viewBox="0 0 240 73" fill="none" xmlns="http://www.w3.org/2000/svg">
<rect x="-0.5" y="-0.5" width="241" height="73" fill="#141629" stroke="#2D2F4A"/>
<path d="M104.002 21.9384C104.425 21.8179 104.917 21.8884 105.256 22.1815C105.817 22.6526 105.801 23.6492 105.205 24.0855C104.599 24.548 103.558 24.3721 103.252 23.6372C102.945 22.9924 103.293 22.1207 104.002 21.9384Z" fill="#E5E6EC"/>
<path d="M67.7651 22.9101C68.8995 22.9134 70.0339 22.9025 71.1693 22.9155C72.1474 22.9514 73.2199 23.1392 73.9309 23.8719C74.9947 24.9889 74.7038 27.0872 73.297 27.7906C74.0406 28.024 74.7277 28.5516 74.9795 29.3115C75.3378 30.4002 75.0957 31.7289 74.2186 32.5072C73.4229 33.2194 72.3178 33.4451 71.2801 33.4712C70.1088 33.4766 68.9364 33.4723 67.7651 33.4734C67.7651 29.9519 67.764 26.4316 67.7651 22.9101ZM69.528 24.4776C69.5291 25.3688 69.5269 26.259 69.5291 27.1502C70.416 27.1219 71.3582 27.2609 72.1908 26.8799C72.7922 26.6074 72.9311 25.8269 72.7434 25.2516C72.6098 24.8554 72.1952 24.66 71.8141 24.5786C71.063 24.4179 70.2901 24.4961 69.528 24.4776ZM69.5291 28.7177C69.528 29.7804 69.5302 30.8431 69.528 31.9059C70.5669 31.8657 71.6806 32.0611 72.6467 31.5759C73.3545 31.2318 73.5434 30.2939 73.2731 29.6089C73.0907 29.1758 72.6359 28.9478 72.2017 28.8447C71.3257 28.6395 70.4192 28.7426 69.5291 28.7177Z" fill="#E5E6EC"/>
<path d="M111.857 25.4978C113.557 24.9105 115.5 25.3176 116.934 26.3673C116.634 26.7711 116.331 27.1717 116.026 27.5722C115.153 26.9274 114.041 26.5844 112.958 26.7385C112.663 26.7863 112.346 26.8731 112.142 27.1076C111.938 27.3367 111.928 27.7502 112.193 27.9391C112.543 28.191 112.974 28.2919 113.386 28.4005C114.282 28.6111 115.206 28.7739 116.039 29.1886C116.479 29.4057 116.895 29.7357 117.087 30.2014C117.376 30.9145 117.277 31.7906 116.776 32.3854C116.269 33.0118 115.483 33.3353 114.707 33.4677C112.946 33.7651 111.098 33.2549 109.67 32.2009C109.96 31.7851 110.246 31.3683 110.534 30.9504C111.656 31.8253 113.144 32.2421 114.553 31.9903C114.987 31.9035 115.511 31.6039 115.461 31.0904C115.456 30.6953 115.042 30.514 114.731 30.3902C113.527 29.9441 112.154 29.9354 111.077 29.1701C110.459 28.7674 110.115 27.9988 110.251 27.2693C110.361 26.415 111.069 25.7626 111.857 25.4978Z" fill="#E5E6EC"/>
<path d="M80.2082 26.2144C81.1537 25.3536 82.6126 25.0725 83.7871 25.6066C84.0987 25.7412 84.3755 25.9387 84.6458 26.1395C84.6751 25.9333 84.7055 25.7281 84.7359 25.523C85.2255 25.5219 85.715 25.5219 86.2057 25.5219C86.2068 28.1727 86.2057 30.8225 86.2057 33.4734C85.702 33.4744 85.1994 33.4734 84.6957 33.4734C84.6686 33.2237 84.6414 32.9729 84.6165 32.7233C84.0802 33.1596 83.455 33.5103 82.7657 33.6232C81.6834 33.7817 80.5013 33.4028 79.7957 32.5452C79.0781 31.6909 78.8426 30.5381 78.8523 29.4482C78.8589 28.252 79.2952 27.0188 80.2082 26.2144ZM80.688 28.9565C80.5903 29.788 80.6663 30.702 81.1613 31.4054C81.564 31.9786 82.3325 32.1979 82.999 32.0492C83.5733 31.933 84.0455 31.552 84.4417 31.1395C84.4406 29.9649 84.4428 28.7893 84.4406 27.6148C83.8544 27.0894 83.0349 26.742 82.2468 26.9678C81.3599 27.2012 80.7987 28.0848 80.688 28.9565Z" fill="#E5E6EC"/>
<path d="M92.1859 25.6294C93.8978 25.0063 95.8745 25.4123 97.3248 26.4761C97.0241 26.8789 96.7191 27.2794 96.4184 27.6821C95.4902 26.9863 94.269 26.6411 93.1227 26.8908C92.7363 26.9635 92.327 27.2718 92.3878 27.7093C92.4443 28.0784 92.8502 28.214 93.1542 28.3269C94.3971 28.7362 95.7888 28.797 96.8862 29.5742C97.5886 30.0594 97.785 31.0288 97.5397 31.8115C97.3454 32.4237 96.8558 32.9035 96.2914 33.189C95.5087 33.5852 94.6099 33.6905 93.7425 33.6493C92.4171 33.5841 91.134 33.0848 90.0615 32.3119C90.3481 31.8918 90.6412 31.4761 90.9267 31.056C92.0415 31.9309 93.52 32.3423 94.9225 32.1013C95.373 32.0199 95.9147 31.7105 95.8528 31.1786C95.8344 30.7824 95.4143 30.6163 95.1016 30.4882C93.8967 30.0518 92.5235 30.0366 91.4521 29.2648C90.8778 28.8751 90.5337 28.1761 90.6303 27.4824C90.6955 26.6086 91.3902 25.9127 92.1859 25.6294Z" fill="#E5E6EC"/>
<path d="M100.196 26.9328C100.195 26.4259 100.195 25.92 100.196 25.4131C101.937 25.4142 103.678 25.4131 105.419 25.4142C105.419 28.0639 105.419 30.7148 105.419 33.3646C104.831 33.3646 104.244 33.3646 103.655 33.3646C103.654 31.2207 103.655 29.0767 103.655 26.9339C102.501 26.9328 101.348 26.9339 100.196 26.9328Z" fill="#E5E6EC"/>
<path d="M67.7646 37.8514C70.0128 37.847 72.2609 37.8503 74.509 37.8503C74.509 41.642 74.509 45.4349 74.509 49.2277C73.9207 49.2277 73.3334 49.2277 72.745 49.2266C72.744 45.9613 72.745 42.6961 72.745 39.4308C71.0853 39.4297 69.4255 39.4319 67.7657 39.4308C67.7646 38.9043 67.7657 38.3779 67.7646 37.8514Z" fill="#E5E6EC"/>
<path d="M79.3609 37.8502C79.9493 37.8491 80.5366 37.8502 81.1249 37.8491C81.1108 39.3178 81.1618 40.7876 81.075 42.2542C81.6948 41.6778 82.4677 41.2164 83.3275 41.1491C84.1546 41.0796 85.0741 41.2522 85.6657 41.8786C86.2877 42.5223 86.444 43.4613 86.4549 44.3243C86.4603 45.9743 86.456 47.6243 86.457 49.2743C85.8665 49.2754 85.276 49.2743 84.6865 49.2743C84.6855 47.6612 84.6876 46.0481 84.6855 44.435C84.6735 43.978 84.6225 43.4787 84.3185 43.1139C83.9972 42.7448 83.4599 42.7069 83.0051 42.7427C82.2278 42.8176 81.6449 43.3983 81.1238 43.9237C81.126 45.7072 81.1249 47.4908 81.1238 49.2743C80.5355 49.2754 79.9482 49.2743 79.3599 49.2754C79.3609 45.4663 79.3599 41.6582 79.3609 37.8502Z" fill="#E5E6EC"/>
<path d="M91.1401 42.4699C92.2973 41.1553 94.3435 40.7678 95.9186 41.5124C96.7088 41.8696 97.3157 42.5784 97.5946 43.3947C97.8704 44.1969 97.8964 45.074 97.7303 45.9034C95.7905 45.9023 93.8517 45.9012 91.913 45.9034C92.0281 46.6329 92.4492 47.3374 93.1396 47.6489C94.3619 48.2546 95.8404 47.9301 96.9086 47.1528C97.1387 47.5718 97.3721 47.9887 97.6044 48.4066C96.7544 48.9928 95.7612 49.4129 94.7191 49.4552C93.538 49.5301 92.2962 49.2121 91.406 48.4055C89.7669 46.9249 89.6833 44.1036 91.1401 42.4699ZM92.9616 42.9887C92.4449 43.3036 92.1236 43.8485 91.9683 44.4216C93.3687 44.426 94.769 44.4238 96.1704 44.4227C96.0857 43.8539 95.8589 43.2558 95.3508 42.9377C94.6377 42.4916 93.6618 42.5372 92.9616 42.9887Z" fill="#E5E6EC"/>
<path d="M104.107 41.2434C105.32 40.9568 106.681 41.2347 107.628 42.063C109.455 43.6728 109.464 46.9305 107.625 48.5349C106.166 49.806 103.754 49.7593 102.357 48.4133C100.992 47.1117 100.796 44.8994 101.582 43.2418C102.065 42.2388 103.02 41.4865 104.107 41.2434ZM104.434 42.774C103.984 42.9097 103.597 43.2201 103.355 43.6207C102.949 44.2796 102.865 45.0905 102.959 45.846C103.048 46.5212 103.357 47.2149 103.947 47.5937C104.727 48.0952 105.868 47.9975 106.508 47.3104C107.013 46.7785 107.196 46.0164 107.192 45.3C107.191 44.5575 106.996 43.7629 106.448 43.231C105.932 42.7121 105.122 42.5688 104.434 42.774Z" fill="#E5E6EC"/>
<path d="M112.291 41.3268C114.39 41.3171 116.489 41.3257 118.588 41.3225C118.588 41.8273 118.588 42.3309 118.588 42.8357C117.077 42.8368 115.567 42.8357 114.057 42.8368C114.055 44.9818 114.058 47.1279 114.055 49.274C113.467 49.2751 112.879 49.2751 112.292 49.274C112.292 46.6253 112.293 43.9766 112.291 41.3268Z" fill="#E5E6EC"/>
<path d="M120.936 41.3247C121.547 41.3214 122.158 41.3225 122.769 41.3236C123.632 43.3003 124.523 45.2641 125.359 47.2527C126.076 45.2597 126.876 43.2982 127.643 41.3236C128.229 41.3214 128.816 41.3236 129.404 41.3225C128.418 43.7367 127.431 46.1509 126.446 48.5651C125.978 49.6431 125.661 50.8567 124.758 51.673C123.847 52.5306 122.44 52.6825 121.297 52.2472C121.423 51.7512 121.552 51.2572 121.681 50.7633C122.248 50.9663 122.916 51.0228 123.445 50.6895C124.029 50.3302 124.296 49.6626 124.52 49.046C123.322 46.4744 122.129 43.8985 120.936 41.3247Z" fill="#E5E6EC"/>
<rect x="16" y="16" width="40" height="40" fill="#1E233B"/>
<path d="M31 27.4738C34.3588 27.4673 37.7176 27.4722 41.0763 27.4722C41.0763 33.1372 41.0763 38.8038 41.0763 44.4705C40.1973 44.4705 39.3199 44.4705 38.4409 44.4688C38.4393 39.5904 38.4409 34.712 38.4409 29.8336C35.9611 29.832 33.4814 29.8352 31.0016 29.8336C31 29.047 31.0016 28.2604 31 27.4738Z" fill="#1AD1DB"/>
<rect x="169.5" y="22.5" width="55" height="27" rx="2.5" fill="#1AD1DB" fill-opacity="0.15"/>
<path d="M181.162 41V31.844H183.612C185.012 31.844 186.104 32.222 186.888 32.978C187.672 33.734 188.064 34.868 188.064 36.38C188.064 37.136 187.961 37.8033 187.756 38.382C187.56 38.9607 187.271 39.446 186.888 39.838C186.515 40.2207 186.057 40.51 185.516 40.706C184.984 40.902 184.377 41 183.696 41H181.162ZM182.786 39.684H183.5C184.433 39.684 185.147 39.418 185.642 38.886C186.146 38.3447 186.398 37.5093 186.398 36.38C186.398 35.26 186.146 34.4433 185.642 33.93C185.138 33.4167 184.424 33.16 183.5 33.16H182.786V39.684ZM193.468 41.168C192.871 41.168 192.325 41.0607 191.83 40.846C191.335 40.622 190.911 40.3047 190.556 39.894C190.201 39.474 189.926 38.97 189.73 38.382C189.534 37.794 189.436 37.1267 189.436 36.38C189.436 35.6427 189.534 34.9847 189.73 34.406C189.926 33.818 190.201 33.3233 190.556 32.922C190.911 32.5207 191.335 32.2127 191.83 31.998C192.325 31.7833 192.871 31.676 193.468 31.676C194.065 31.676 194.611 31.7833 195.106 31.998C195.601 32.2127 196.025 32.5207 196.38 32.922C196.744 33.3233 197.024 33.818 197.22 34.406C197.416 34.9847 197.514 35.6427 197.514 36.38C197.514 37.1267 197.416 37.794 197.22 38.382C197.024 38.97 196.744 39.474 196.38 39.894C196.025 40.3047 195.601 40.622 195.106 40.846C194.611 41.0607 194.065 41.168 193.468 41.168ZM193.468 39.754C193.832 39.754 194.159 39.6747 194.448 39.516C194.737 39.3573 194.985 39.1333 195.19 38.844C195.395 38.5453 195.554 38.1907 195.666 37.78C195.778 37.36 195.834 36.8933 195.834 36.38C195.834 35.3533 195.619 34.5507 195.19 33.972C194.77 33.384 194.196 33.09 193.468 33.09C192.74 33.09 192.161 33.384 191.732 33.972C191.312 34.5507 191.102 35.3533 191.102 36.38C191.102 36.8933 191.158 37.36 191.27 37.78C191.382 38.1907 191.541 38.5453 191.746 38.844C191.951 39.1333 192.199 39.3573 192.488 39.516C192.777 39.6747 193.104 39.754 193.468 39.754ZM203 41.168C202.421 41.168 201.88 41.0653 201.376 40.86C200.872 40.6547 200.433 40.3513 200.06 39.95C199.696 39.5487 199.406 39.054 199.192 38.466C198.977 37.878 198.87 37.206 198.87 36.45C198.87 35.7033 198.977 35.036 199.192 34.448C199.416 33.8507 199.714 33.3467 200.088 32.936C200.47 32.5253 200.914 32.2127 201.418 31.998C201.931 31.7833 202.477 31.676 203.056 31.676C203.634 31.676 204.148 31.7927 204.596 32.026C205.044 32.2593 205.412 32.53 205.702 32.838L204.834 33.888C204.591 33.6453 204.33 33.454 204.05 33.314C203.77 33.1647 203.452 33.09 203.098 33.09C202.724 33.09 202.379 33.1693 202.062 33.328C201.754 33.4773 201.483 33.6967 201.25 33.986C201.026 34.266 200.848 34.6113 200.718 35.022C200.596 35.4327 200.536 35.8947 200.536 36.408C200.536 37.4533 200.76 38.2747 201.208 38.872C201.665 39.46 202.281 39.754 203.056 39.754C203.466 39.754 203.83 39.67 204.148 39.502C204.465 39.3247 204.754 39.096 205.016 38.816L205.884 39.838C205.51 40.2673 205.081 40.5987 204.596 40.832C204.12 41.056 203.588 41.168 203 41.168ZM209.717 41.168C209.101 41.168 208.504 41.0513 207.925 40.818C207.356 40.5847 206.852 40.2533 206.413 39.824L207.365 38.718C207.692 39.026 208.065 39.278 208.485 39.474C208.905 39.6607 209.325 39.754 209.745 39.754C210.268 39.754 210.664 39.6467 210.935 39.432C211.206 39.2173 211.341 38.9327 211.341 38.578C211.341 38.3913 211.304 38.2327 211.229 38.102C211.164 37.9713 211.066 37.8593 210.935 37.766C210.814 37.6633 210.664 37.57 210.487 37.486C210.319 37.402 210.132 37.318 209.927 37.234L208.667 36.688C208.443 36.5947 208.219 36.478 207.995 36.338C207.78 36.198 207.584 36.03 207.407 35.834C207.23 35.638 207.085 35.4093 206.973 35.148C206.87 34.8867 206.819 34.588 206.819 34.252C206.819 33.888 206.894 33.552 207.043 33.244C207.202 32.9267 207.416 32.6513 207.687 32.418C207.958 32.1847 208.28 32.0027 208.653 31.872C209.036 31.7413 209.451 31.676 209.899 31.676C210.431 31.676 210.944 31.7833 211.439 31.998C211.934 32.2033 212.358 32.4833 212.713 32.838L211.887 33.874C211.588 33.6313 211.28 33.44 210.963 33.3C210.646 33.16 210.291 33.09 209.899 33.09C209.46 33.09 209.11 33.188 208.849 33.384C208.588 33.5707 208.457 33.832 208.457 34.168C208.457 34.3453 208.494 34.4993 208.569 34.63C208.653 34.7513 208.76 34.8633 208.891 34.966C209.031 35.0593 209.19 35.148 209.367 35.232C209.544 35.3067 209.726 35.3813 209.913 35.456L211.159 35.974C211.43 36.086 211.677 36.2167 211.901 36.366C212.125 36.5153 212.316 36.688 212.475 36.884C212.643 37.08 212.774 37.3087 212.867 37.57C212.96 37.822 213.007 38.116 213.007 38.452C213.007 38.8253 212.932 39.1753 212.783 39.502C212.634 39.8287 212.414 40.118 212.125 40.37C211.845 40.6127 211.5 40.8087 211.089 40.958C210.688 41.098 210.23 41.168 209.717 41.168Z" fill="#1AD1DB"/>
<rect x="169.5" y="22.5" width="55" height="27" rx="2.5" stroke="url(#paint0_linear)"/>
<defs>
<linearGradient id="paint0_linear" x1="170" y1="20.5" x2="212.288" y2="61.176" gradientUnits="userSpaceOnUse">
<stop stop-color="#1AD1DB" stop-opacity="0.4"/>
<stop offset="1" stop-color="#1AD1DB" stop-opacity="0.16"/>
</linearGradient>
</defs>
</svg>
