<svg width="240" height="73" viewBox="0 0 240 73" fill="none" xmlns="http://www.w3.org/2000/svg">
<rect x="-0.5" y="-0.5" width="241" height="73" fill="#141629" stroke="#2D2F4A"/>
<path d="M104.002 21.9384C104.425 21.8179 104.917 21.8884 105.256 22.1815C105.817 22.6526 105.801 23.6492 105.205 24.0855C104.599 24.548 103.558 24.3721 103.252 23.6372C102.945 22.9924 103.293 22.1207 104.002 21.9384Z" fill="#E5E6EC"/>
<path d="M67.7651 22.9101C68.8995 22.9134 70.0339 22.9025 71.1693 22.9155C72.1474 22.9514 73.2199 23.1392 73.9309 23.8719C74.9947 24.9889 74.7038 27.0872 73.297 27.7906C74.0406 28.024 74.7277 28.5516 74.9795 29.3115C75.3378 30.4002 75.0957 31.7289 74.2186 32.5072C73.4229 33.2194 72.3178 33.4451 71.2801 33.4712C70.1088 33.4766 68.9364 33.4723 67.7651 33.4734C67.7651 29.9519 67.764 26.4316 67.7651 22.9101ZM69.528 24.4776C69.5291 25.3688 69.5269 26.259 69.5291 27.1502C70.416 27.1219 71.3582 27.2609 72.1908 26.8799C72.7922 26.6074 72.9311 25.8269 72.7434 25.2516C72.6098 24.8554 72.1952 24.66 71.8141 24.5786C71.063 24.4179 70.2901 24.4961 69.528 24.4776ZM69.5291 28.7177C69.528 29.7804 69.5302 30.8431 69.528 31.9059C70.5669 31.8657 71.6806 32.0611 72.6467 31.5759C73.3545 31.2318 73.5434 30.2939 73.2731 29.6089C73.0907 29.1758 72.6359 28.9478 72.2017 28.8447C71.3257 28.6395 70.4192 28.7426 69.5291 28.7177Z" fill="#E5E6EC"/>
<path d="M111.857 25.4978C113.557 24.9105 115.5 25.3176 116.934 26.3673C116.634 26.7711 116.331 27.1717 116.026 27.5722C115.153 26.9274 114.041 26.5844 112.958 26.7385C112.663 26.7863 112.346 26.8731 112.142 27.1076C111.938 27.3367 111.928 27.7502 112.193 27.9391C112.543 28.191 112.974 28.2919 113.386 28.4005C114.282 28.6111 115.206 28.7739 116.039 29.1886C116.48 29.4057 116.895 29.7357 117.087 30.2014C117.376 30.9145 117.277 31.7906 116.776 32.3854C116.269 33.0118 115.483 33.3353 114.707 33.4677C112.946 33.7651 111.099 33.2549 109.67 32.2009C109.96 31.7851 110.246 31.3683 110.534 30.9504C111.657 31.8253 113.144 32.2421 114.553 31.9903C114.987 31.9035 115.511 31.6039 115.461 31.0904C115.456 30.6953 115.042 30.514 114.731 30.3902C113.527 29.9441 112.154 29.9354 111.077 29.1701C110.459 28.7674 110.115 27.9988 110.251 27.2693C110.362 26.415 111.069 25.7626 111.857 25.4978Z" fill="#E5E6EC"/>
<path d="M80.208 26.2144C81.1535 25.3536 82.6125 25.0725 83.787 25.6066C84.0986 25.7412 84.3754 25.9387 84.6457 26.1395C84.675 25.9333 84.7054 25.7281 84.7358 25.523C85.2253 25.5219 85.7149 25.5219 86.2056 25.5219C86.2067 28.1727 86.2056 30.8225 86.2056 33.4734C85.7019 33.4744 85.1993 33.4734 84.6956 33.4734C84.6685 33.2237 84.6413 32.9729 84.6164 32.7233C84.0801 33.1596 83.4548 33.5103 82.7655 33.6232C81.6833 33.7817 80.5011 33.4028 79.7955 32.5452C79.078 31.6909 78.8424 30.5381 78.8522 29.4482C78.8587 28.252 79.2951 27.0188 80.208 26.2144ZM80.6878 28.9565C80.5901 29.788 80.6661 30.702 81.1611 31.4054C81.5639 31.9786 82.3324 32.1979 82.9989 32.0492C83.5732 31.933 84.0454 31.552 84.4416 31.1395C84.4405 29.9649 84.4427 28.7893 84.4405 27.6148C83.8543 27.0894 83.0347 26.742 82.2467 26.9678C81.3598 27.2012 80.7986 28.0848 80.6878 28.9565Z" fill="#E5E6EC"/>
<path d="M92.1858 25.6294C93.8977 25.0063 95.8744 25.4123 97.3247 26.4761C97.024 26.8789 96.7189 27.2794 96.4182 27.6821C95.4901 26.9863 94.2689 26.6411 93.1226 26.8908C92.7361 26.9635 92.3269 27.2718 92.3877 27.7093C92.4441 28.0784 92.8501 28.214 93.1541 28.3269C94.397 28.7362 95.7886 28.797 96.8861 29.5742C97.5884 30.0594 97.7849 31.0288 97.5396 31.8115C97.3453 32.4237 96.8557 32.9035 96.2912 33.189C95.5086 33.5852 94.6098 33.6905 93.7424 33.6493C92.417 33.5841 91.1339 33.0848 90.0614 32.3119C90.348 31.8918 90.6411 31.4761 90.9266 31.056C92.0414 31.9309 93.5199 32.3423 94.9224 32.1013C95.3729 32.0199 95.9146 31.7105 95.8527 31.1786C95.8342 30.7824 95.4141 30.6163 95.1015 30.4882C93.8966 30.0518 92.5234 30.0366 91.452 29.2648C90.8777 28.8751 90.5336 28.1761 90.6302 27.4824C90.6954 26.6086 91.3901 25.9127 92.1858 25.6294Z" fill="#E5E6EC"/>
<path d="M100.196 26.9328C100.195 26.4259 100.195 25.92 100.196 25.4131C101.937 25.4142 103.678 25.4131 105.419 25.4142C105.419 28.0639 105.419 30.7148 105.419 33.3646C104.831 33.3646 104.244 33.3646 103.655 33.3646C103.654 31.2207 103.655 29.0767 103.655 26.9339C102.501 26.9328 101.348 26.9339 100.196 26.9328Z" fill="#E5E6EC"/>
<path d="M67.7646 37.8514C70.0128 37.847 72.2609 37.8503 74.509 37.8503C74.509 41.642 74.509 45.4349 74.509 49.2277C73.9207 49.2277 73.3334 49.2277 72.745 49.2266C72.744 45.9613 72.745 42.6961 72.745 39.4308C71.0853 39.4297 69.4255 39.4319 67.7657 39.4308C67.7646 38.9043 67.7657 38.3779 67.7646 37.8514Z" fill="#E5E6EC"/>
<path d="M79.3608 37.8502C79.9492 37.8491 80.5365 37.8502 81.1248 37.8491C81.1107 39.3178 81.1617 40.7876 81.0749 42.2542C81.6947 41.6778 82.4676 41.2164 83.3273 41.1491C84.1545 41.0796 85.074 41.2522 85.6656 41.8786C86.2876 42.5223 86.4439 43.4613 86.4547 44.3243C86.4602 45.9743 86.4558 47.6243 86.4569 49.2743C85.8664 49.2754 85.2759 49.2743 84.6864 49.2743C84.6853 47.6612 84.6875 46.0481 84.6853 44.435C84.6734 43.978 84.6224 43.4787 84.3184 43.1139C83.9971 42.7448 83.4598 42.7069 83.0049 42.7427C82.2277 42.8176 81.6448 43.3983 81.1237 43.9237C81.1259 45.7072 81.1248 47.4908 81.1237 49.2743C80.5354 49.2754 79.9481 49.2743 79.3597 49.2754C79.3608 45.4663 79.3597 41.6582 79.3608 37.8502Z" fill="#E5E6EC"/>
<path d="M91.14 42.4699C92.2971 41.1553 94.3434 40.7678 95.9185 41.5124C96.7087 41.8696 97.3155 42.5784 97.5945 43.3947C97.8702 44.1969 97.8963 45.074 97.7302 45.9034C95.7904 45.9023 93.8516 45.9012 91.9129 45.9034C92.0279 46.6329 92.4491 47.3374 93.1395 47.6489C94.3618 48.2546 95.8403 47.9301 96.9085 47.1528C97.1386 47.5718 97.372 47.9887 97.6043 48.4066C96.7543 48.9928 95.7611 49.4129 94.7189 49.4552C93.5379 49.5301 92.2961 49.2121 91.4059 48.4055C89.7668 46.9249 89.6832 44.1036 91.14 42.4699ZM92.9615 42.9887C92.4448 43.3036 92.1235 43.8485 91.9682 44.4216C93.3686 44.426 94.7689 44.4238 96.1703 44.4227C96.0856 43.8539 95.8588 43.2558 95.3507 42.9377C94.6375 42.4916 93.6616 42.5372 92.9615 42.9887Z" fill="#E5E6EC"/>
<path d="M104.107 41.2434C105.32 40.9568 106.68 41.2347 107.628 42.063C109.455 43.6728 109.464 46.9305 107.625 48.5349C106.166 49.806 103.754 49.7593 102.357 48.4133C100.992 47.1117 100.796 44.8994 101.582 43.2418C102.065 42.2388 103.02 41.4865 104.107 41.2434ZM104.433 42.774C103.984 42.9097 103.596 43.2201 103.354 43.6207C102.948 44.2796 102.865 45.0905 102.959 45.846C103.048 46.5212 103.357 47.2149 103.947 47.5937C104.727 48.0952 105.867 47.9975 106.508 47.3104C107.013 46.7785 107.196 46.0164 107.192 45.3C107.191 44.5575 106.996 43.7629 106.448 43.231C105.931 42.7121 105.122 42.5688 104.433 42.774Z" fill="#E5E6EC"/>
<path d="M112.291 41.3268C114.39 41.3171 116.489 41.3257 118.588 41.3225C118.588 41.8273 118.588 42.3309 118.588 42.8357C117.077 42.8368 115.567 42.8357 114.057 42.8368C114.055 44.9818 114.058 47.1279 114.055 49.274C113.467 49.2751 112.879 49.2751 112.292 49.274C112.292 46.6253 112.293 43.9766 112.291 41.3268Z" fill="#E5E6EC"/>
<path d="M120.935 41.3247C121.547 41.3214 122.158 41.3225 122.769 41.3236C123.632 43.3003 124.523 45.2641 125.359 47.2527C126.075 45.2597 126.875 43.2982 127.643 41.3236C128.229 41.3214 128.816 41.3236 129.404 41.3225C128.418 43.7367 127.431 46.1509 126.446 48.5651C125.978 49.6431 125.661 50.8567 124.758 51.673C123.847 52.5306 122.44 52.6825 121.297 52.2472C121.423 51.7512 121.552 51.2572 121.681 50.7633C122.248 50.9663 122.915 51.0228 123.445 50.6895C124.029 50.3302 124.296 49.6626 124.52 49.046C123.321 46.4744 122.128 43.8985 120.935 41.3247Z" fill="#E5E6EC"/>
<rect x="16" y="16" width="40" height="40" fill="#1E233B"/>
<path d="M31 27.4738C34.3588 27.4673 37.7176 27.4722 41.0763 27.4722C41.0763 33.1372 41.0763 38.8038 41.0763 44.4705C40.1973 44.4705 39.3199 44.4705 38.4409 44.4688C38.4393 39.5904 38.4409 34.712 38.4409 29.8336C35.9611 29.832 33.4814 29.8352 31.0016 29.8336C31 29.047 31.0016 28.2604 31 27.4738Z" fill="#1AD1DB"/>
<rect x="157.5" y="22.5" width="67" height="27" rx="2.5" fill="#7E67F3" fill-opacity="0.2"/>
<path d="M172.998 41.168C172.382 41.168 171.808 41.0653 171.276 40.86C170.753 40.6547 170.296 40.3513 169.904 39.95C169.521 39.5487 169.223 39.054 169.008 38.466C168.793 37.878 168.686 37.206 168.686 36.45C168.686 35.7033 168.798 35.036 169.022 34.448C169.246 33.8507 169.549 33.3467 169.932 32.936C170.324 32.5253 170.781 32.2127 171.304 31.998C171.836 31.7833 172.405 31.676 173.012 31.676C173.665 31.676 174.216 31.7973 174.664 32.04C175.121 32.2733 175.495 32.5393 175.784 32.838L174.916 33.888C174.683 33.664 174.421 33.4773 174.132 33.328C173.852 33.1693 173.497 33.09 173.068 33.09C172.657 33.09 172.284 33.1693 171.948 33.328C171.621 33.4773 171.337 33.6967 171.094 33.986C170.861 34.266 170.679 34.6113 170.548 35.022C170.417 35.4327 170.352 35.8947 170.352 36.408C170.352 37.4533 170.585 38.2747 171.052 38.872C171.528 39.46 172.228 39.754 173.152 39.754C173.413 39.754 173.661 39.7213 173.894 39.656C174.127 39.5813 174.319 39.4787 174.468 39.348V37.374H172.732V36.044H175.924V40.076C175.616 40.384 175.205 40.6453 174.692 40.86C174.188 41.0653 173.623 41.168 172.998 41.168ZM181.383 41.168C180.851 41.168 180.37 41.0933 179.941 40.944C179.521 40.7853 179.157 40.538 178.849 40.202C178.55 39.866 178.317 39.4367 178.149 38.914C177.99 38.382 177.911 37.738 177.911 36.982V31.844H179.535V37.108C179.535 37.6027 179.577 38.0227 179.661 38.368C179.754 38.704 179.88 38.9747 180.039 39.18C180.207 39.3853 180.403 39.5347 180.627 39.628C180.851 39.712 181.103 39.754 181.383 39.754C181.663 39.754 181.92 39.712 182.153 39.628C182.386 39.5347 182.587 39.3853 182.755 39.18C182.923 38.9747 183.054 38.704 183.147 38.368C183.24 38.0227 183.287 37.6027 183.287 37.108V31.844H184.841V36.982C184.841 37.738 184.762 38.382 184.603 38.914C184.444 39.4367 184.211 39.866 183.903 40.202C183.604 40.538 183.24 40.7853 182.811 40.944C182.391 41.0933 181.915 41.168 181.383 41.168ZM187.127 41V31.844H188.751V41H187.127ZM191.078 41V31.844H193.528C194.928 31.844 196.02 32.222 196.804 32.978C197.588 33.734 197.98 34.868 197.98 36.38C197.98 37.136 197.877 37.8033 197.672 38.382C197.476 38.9607 197.187 39.446 196.804 39.838C196.431 40.2207 195.973 40.51 195.432 40.706C194.9 40.902 194.293 41 193.612 41H191.078ZM192.702 39.684H193.416C194.349 39.684 195.063 39.418 195.558 38.886C196.062 38.3447 196.314 37.5093 196.314 36.38C196.314 35.26 196.062 34.4433 195.558 33.93C195.054 33.4167 194.34 33.16 193.416 33.16H192.702V39.684ZM199.828 41V31.844H205.344V33.216H201.452V35.554H204.742V36.926H201.452V39.628H205.484V41H199.828ZM210.035 41.168C209.419 41.168 208.822 41.0513 208.243 40.818C207.674 40.5847 207.17 40.2533 206.731 39.824L207.683 38.718C208.01 39.026 208.383 39.278 208.803 39.474C209.223 39.6607 209.643 39.754 210.063 39.754C210.586 39.754 210.983 39.6467 211.253 39.432C211.524 39.2173 211.659 38.9327 211.659 38.578C211.659 38.3913 211.622 38.2327 211.547 38.102C211.482 37.9713 211.384 37.8593 211.253 37.766C211.132 37.6633 210.983 37.57 210.805 37.486C210.637 37.402 210.451 37.318 210.245 37.234L208.985 36.688C208.761 36.5947 208.537 36.478 208.313 36.338C208.099 36.198 207.903 36.03 207.725 35.834C207.548 35.638 207.403 35.4093 207.291 35.148C207.189 34.8867 207.137 34.588 207.137 34.252C207.137 33.888 207.212 33.552 207.361 33.244C207.52 32.9267 207.735 32.6513 208.005 32.418C208.276 32.1847 208.598 32.0027 208.971 31.872C209.354 31.7413 209.769 31.676 210.217 31.676C210.749 31.676 211.263 31.7833 211.757 31.998C212.252 32.2033 212.677 32.4833 213.031 32.838L212.205 33.874C211.907 33.6313 211.599 33.44 211.281 33.3C210.964 33.16 210.609 33.09 210.217 33.09C209.779 33.09 209.429 33.188 209.167 33.384C208.906 33.5707 208.775 33.832 208.775 34.168C208.775 34.3453 208.813 34.4993 208.887 34.63C208.971 34.7513 209.079 34.8633 209.209 34.966C209.349 35.0593 209.508 35.148 209.685 35.232C209.863 35.3067 210.045 35.3813 210.231 35.456L211.477 35.974C211.748 36.086 211.995 36.2167 212.219 36.366C212.443 36.5153 212.635 36.688 212.793 36.884C212.961 37.08 213.092 37.3087 213.185 37.57C213.279 37.822 213.325 38.116 213.325 38.452C213.325 38.8253 213.251 39.1753 213.101 39.502C212.952 39.8287 212.733 40.118 212.443 40.37C212.163 40.6127 211.818 40.8087 211.407 40.958C211.006 41.098 210.549 41.168 210.035 41.168Z" fill="#8D67F0"/>
<rect x="157.5" y="22.5" width="67" height="27" rx="2.5" stroke="url(#paint0_linear)"/>
<defs>
<linearGradient id="paint0_linear" x1="158" y1="20.5" x2="199.772" y2="69.6084" gradientUnits="userSpaceOnUse">
<stop stop-color="#7E67F3" stop-opacity="0.4"/>
<stop offset="1" stop-color="#7E67F3" stop-opacity="0.16"/>
</linearGradient>
</defs>
</svg>
