<svg width="40" height="40" viewBox="0 0 40 40" fill="none" xmlns="http://www.w3.org/2000/svg">
<rect width="40" height="40" rx="8" fill="#1AD1DB" fill-opacity="0.15"/>
<path fill-rule="evenodd" clip-rule="evenodd" d="M14 11.75C12.7572 11.75 11.75 12.7572 11.75 14V26C11.75 27.2428 12.7572 28.25 14 28.25H26C27.2428 28.25 28.25 27.2428 28.25 26V14C28.25 12.7572 27.2428 11.75 26 11.75H14ZM10.25 14C10.25 11.9288 11.9288 10.25 14 10.25H26C28.0712 10.25 29.75 11.9288 29.75 14V26C29.75 28.0712 28.0712 29.75 26 29.75H14C11.9288 29.75 10.25 28.0712 10.25 26V14ZM15.4238 16.5199C15.689 16.2017 16.1619 16.1587 16.4801 16.4238L19.4801 18.9238C19.6511 19.0663 19.75 19.2774 19.75 19.5C19.75 19.7226 19.6511 19.9337 19.4801 20.0762L16.4801 22.5762C16.1619 22.8413 15.689 22.7983 15.4238 22.4801C15.1587 22.1619 15.2017 21.689 15.5199 21.4238L17.8285 19.5L15.5199 17.5762C15.2017 17.311 15.1587 16.8381 15.4238 16.5199ZM20.25 23C20.25 22.5858 20.5858 22.25 21 22.25H24C24.4142 22.25 24.75 22.5858 24.75 23C24.75 23.4142 24.4142 23.75 24 23.75H21C20.5858 23.75 20.25 23.4142 20.25 23Z" fill="#009FA9"/>
</svg>
