<svg width="24" height="24" viewBox="0 0 24 24" fill="none" xmlns="http://www.w3.org/2000/svg">
<path d="M16.3 15.75C16.3 15.3358 16.6358 15 17.05 15H18.75C19.1642 15 19.5 15.3358 19.5 15.75V18.3C19.5 18.7142 19.1642 19.05 18.75 19.05C18.3358 19.05 18 18.7142 18 18.3V16.5H17.05C16.6358 16.5 16.3 16.1642 16.3 15.75Z" fill="#009FA9"/>
<path fill-rule="evenodd" clip-rule="evenodd" d="M6 2.75C4.75421 2.75 3.75 3.75421 3.75 5V15C4.3953 14.516 5.18394 14.25 6 14.25C6.81606 14.25 7.6047 14.516 8.25 15V5C8.25 3.75584 7.23741 2.75 6 2.75ZM8.25 18C8.25 17.4033 8.01295 16.831 7.59099 16.409C7.16903 15.9871 6.59674 15.75 6 15.75C5.40326 15.75 4.83097 15.9871 4.40901 16.409C3.98705 16.831 3.75 17.4033 3.75 18C3.75 18.5967 3.98705 19.169 4.40901 19.591C4.83097 20.0129 5.40326 20.25 6 20.25C6.59674 20.25 7.16903 20.0129 7.59099 19.591C8.01295 19.169 8.25 18.5967 8.25 18ZM9.00002 20.25C9.484 19.6047 9.75 18.8161 9.75 18V5C9.75 4.91598 9.74724 4.83262 9.74179 4.75H19C19.6882 4.75 20.25 5.30665 20.25 6V10.5C20.25 10.9142 20.5858 11.25 21 11.25C21.4142 11.25 21.75 10.9142 21.75 10.5V6C21.75 4.47335 20.5118 3.25 19 3.25H9.31695C8.68661 2.0592 7.43398 1.25 6 1.25C3.92579 1.25 2.25 2.92579 2.25 5V18C2.25 18.9946 2.64509 19.9484 3.34835 20.6517C4.05161 21.3549 5.00544 21.75 6 21.75H11C11.4142 21.75 11.75 21.4142 11.75 21C11.75 20.5858 11.4142 20.25 11 20.25H9.00002ZM13.25 15C13.25 13.4812 14.4812 12.25 16 12.25H20C21.5188 12.25 22.75 13.4812 22.75 15V19C22.75 20.5188 21.5188 21.75 20 21.75H16C14.4812 21.75 13.25 20.5188 13.25 19V15ZM16 13.75C15.3096 13.75 14.75 14.3096 14.75 15V19C14.75 19.6904 15.3096 20.25 16 20.25H20C20.6904 20.25 21.25 19.6904 21.25 19V15C21.25 14.3096 20.6904 13.75 20 13.75H16Z" fill="#009FA9"/>
</svg>
