<svg width="18" height="13" viewBox="0 0 18 13" fill="none" xmlns="http://www.w3.org/2000/svg">
<path fill-rule="evenodd" clip-rule="evenodd" d="M8.375 2.44655C6.73371 0.970878 4.29918 0.859821 2.53953 2.11459C2.28402 2.2966 2.125 2.61076 2.125 2.95321V10.5299C2.125 10.6121 2.16205 10.6655 2.22054 10.6983C2.28337 10.7335 2.37157 10.7427 2.46272 10.6942C4.31377 9.70751 6.57801 9.77166 8.375 10.8885V2.44655ZM9.625 2.44655V10.8885C11.422 9.77166 13.6863 9.70751 15.5373 10.6942C15.6282 10.7427 15.7166 10.7338 15.7793 10.6987C15.8378 10.6658 15.875 10.6122 15.875 10.5299V2.95321C15.875 2.61076 15.7162 2.29678 15.4607 2.11476C13.7011 0.859995 11.2663 0.970878 9.625 2.44655ZM9 1.33609C6.926 -0.361809 3.971 -0.441252 1.81404 1.09666L9 1.33609ZM9 1.33609C11.074 -0.361809 14.029 -0.441252 16.186 1.09666C16.7938 1.52965 17.125 2.23566 17.125 2.95321V10.5299C17.125 11.6929 15.8931 12.3014 14.949 11.7971C13.1791 10.8539 10.9321 11.1293 9.44205 12.62C9.32483 12.7373 9.16581 12.8032 9 12.8032C8.83419 12.8032 8.67517 12.7373 8.55795 12.62C7.06786 11.1292 4.82059 10.8538 3.05065 11.7973C2.10783 12.2997 0.875 11.6941 0.875 10.5299V2.95321C0.875 2.23576 1.20638 1.52966 1.81404 1.09666" fill="#009FA9"/>
</svg>
