<svg width="18" height="17" viewBox="0 0 18 17" fill="none" xmlns="http://www.w3.org/2000/svg">
<path fill-rule="evenodd" clip-rule="evenodd" d="M9 1.625C5.20227 1.625 2.125 4.69558 2.125 8.5C2.125 12.2977 5.19558 15.375 9 15.375C12.7973 15.375 15.875 12.2973 15.875 8.5C15.875 4.70268 12.7973 1.625 9 1.625ZM0.875 8.5C0.875 4.00442 4.51273 0.375 9 0.375C13.4877 0.375 17.125 4.01232 17.125 8.5C17.125 12.9877 13.4877 16.625 9 16.625C4.50442 16.625 0.875 12.9873 0.875 8.5ZM7.77528 5.55806C8.01935 5.80214 8.01935 6.19786 7.77528 6.44194L6.55055 7.66667L7.77528 8.89139C8.01935 9.13547 8.01935 9.5312 7.77528 9.77527C7.5312 10.0194 7.13547 10.0194 6.89139 9.77527L5.22472 8.10861C4.98065 7.86453 4.98065 7.4688 5.22472 7.22472L6.89139 5.55806C7.13547 5.31398 7.5312 5.31398 7.77528 5.55806ZM10.2247 7.22472C10.4688 6.98065 10.8645 6.98065 11.1086 7.22472L12.7753 8.89139C13.0194 9.13547 13.0194 9.5312 12.7753 9.77527L11.1086 11.4419C10.8645 11.686 10.4688 11.686 10.2247 11.4419C9.98065 11.1979 9.98065 10.8021 10.2247 10.5581L11.4495 9.33333L10.2247 8.10861C9.98065 7.86453 9.98065 7.4688 10.2247 7.22472Z" fill="#009FA9"/>
</svg>
