<svg width="16" height="20" viewBox="0 0 16 20" fill="none" xmlns="http://www.w3.org/2000/svg">
<path fill-rule="evenodd" clip-rule="evenodd" d="M0.25 3C0.25 1.48079 1.48079 0.25 3 0.25H10.172C10.9011 0.25 11.6008 0.540176 12.1163 1.05567L14.9443 3.88367C15.4598 4.39916 15.75 5.09886 15.75 5.828V17C15.75 18.5192 14.5192 19.75 13 19.75H3C1.48079 19.75 0.25 18.5192 0.25 17V3ZM3 1.75C2.30921 1.75 1.75 2.30921 1.75 3V17C1.75 17.6908 2.30921 18.25 3 18.25H13C13.6908 18.25 14.25 17.6908 14.25 17V5.828C14.25 5.49714 14.1182 5.17884 13.8837 4.94433L11.0557 2.11633C10.8212 1.88182 10.5029 1.75 10.172 1.75H3ZM3.25 7C3.25 6.58579 3.58579 6.25 4 6.25H12C12.4142 6.25 12.75 6.58579 12.75 7C12.75 7.41421 12.4142 7.75 12 7.75H4C3.58579 7.75 3.25 7.41421 3.25 7ZM3.25 10C3.25 9.58579 3.58579 9.25 4 9.25H12C12.4142 9.25 12.75 9.58579 12.75 10C12.75 10.4142 12.4142 10.75 12 10.75H4C3.58579 10.75 3.25 10.4142 3.25 10ZM3.25 13C3.25 12.5858 3.58579 12.25 4 12.25H6C6.41421 12.25 6.75 12.5858 6.75 13C6.75 13.4142 6.41421 13.75 6 13.75H4C3.58579 13.75 3.25 13.4142 3.25 13ZM10.5 13.75C10.0862 13.75 9.75 14.0862 9.75 14.5C9.75 14.9138 10.0862 15.25 10.5 15.25C10.9138 15.25 11.25 14.9138 11.25 14.5C11.25 14.0862 10.9138 13.75 10.5 13.75ZM8.25 14.5C8.25 13.2578 9.25779 12.25 10.5 12.25C11.7422 12.25 12.75 13.2578 12.75 14.5C12.75 15.7422 11.7422 16.75 10.5 16.75C9.25779 16.75 8.25 15.7422 8.25 14.5Z" fill="#8B92B6"/>
</svg>
