<svg width="16" height="15" viewBox="0 0 16 15" fill="none" xmlns="http://www.w3.org/2000/svg">
<path fill-rule="evenodd" clip-rule="evenodd" d="M8.00001 0.208374C8.34519 0.208374 8.62501 0.488196 8.62501 0.833374V8.21366L10.5214 6.31727C10.7655 6.07319 11.1612 6.07319 11.4053 6.31727C11.6494 6.56134 11.6494 6.95707 11.4053 7.20115L8.44195 10.1645C8.19787 10.4086 7.80215 10.4086 7.55807 10.1645L4.59473 7.20115C4.35066 6.95707 4.35066 6.56134 4.59473 6.31727C4.83881 6.07319 5.23454 6.07319 5.47862 6.31727L7.37501 8.21366V0.833374C7.37501 0.488196 7.65483 0.208374 8.00001 0.208374ZM1.33334 10.5784C1.67852 10.5784 1.95834 10.8582 1.95834 11.2034C1.95834 11.8235 2.2047 12.4183 2.64323 12.8568C3.08175 13.2953 3.67651 13.5417 4.29668 13.5417H11.7033C12.3235 13.5417 12.9183 13.2953 13.3568 12.8568C13.7953 12.4183 14.0417 11.8235 14.0417 11.2034C14.0417 10.8582 14.3215 10.5784 14.6667 10.5784C15.0119 10.5784 15.2917 10.8582 15.2917 11.2034C15.2917 12.1551 14.9136 13.0678 14.2407 13.7407C13.5677 14.4136 12.655 14.7917 11.7033 14.7917H4.29668C3.34499 14.7917 2.43228 14.4136 1.75934 13.7407C1.0864 13.0678 0.708344 12.1551 0.708344 11.2034C0.708344 10.8582 0.988165 10.5784 1.33334 10.5784Z" fill="#009FA9"/>
</svg>
