<svg width="20" height="20" viewBox="0 0 20 20" fill="none" xmlns="http://www.w3.org/2000/svg">
<path fill-rule="evenodd" clip-rule="evenodd" d="M19.4132 3.2345C19.4132 3.23462 19.4132 3.23438 19.4132 3.2345L18.6134 7.12124C18.5916 7.22756 18.5474 7.32593 18.4856 7.41095C18.3732 7.84086 18.2194 8.25644 18.0277 8.65254C18.012 8.85883 17.9115 9.05684 17.7368 9.19082C17.4557 9.6594 17.1187 10.0942 16.7324 10.4852L16.7292 10.4884L14.4581 12.7595L14.4398 15.5999C14.439 16.071 14.241 16.4997 13.9443 16.8129L13.9311 16.8265L11.1811 19.5865L11.1802 19.5874C10.497 20.2706 9.30922 19.9677 9.08002 18.9999L9.07957 18.998L8.42149 16.187C7.40989 16.3017 6.40026 16.0446 5.57493 15.4856L4.40015 16.6604C4.10726 16.9533 3.63239 16.9533 3.33949 16.6604C3.0466 16.3675 3.0466 15.8927 3.33949 15.5998L4.50255 14.4367C3.91072 13.6037 3.63907 12.5804 3.74496 11.5596L1.00118 10.9099C1.00028 10.9097 0.99938 10.9095 0.99848 10.9093C0.0397999 10.6859 -0.301141 9.4935 0.40274 8.8055L3.14281 6.05546C3.45917 5.72571 3.89945 5.53025 4.36568 5.52909L7.15471 5.5021L9.45049 3.20776C9.45055 3.2077 9.45044 3.20781 9.45049 3.20776C10.3823 2.27598 11.5642 1.63301 12.8616 1.37307C12.8623 1.37293 12.863 1.37279 12.8637 1.37265L16.7453 0.573963C18.3366 0.236758 19.7422 1.64818 19.4132 3.2345ZM7.97018 6.8078C7.99054 6.78955 8.0099 6.77021 8.02816 6.74986L10.511 4.26859C10.7678 4.01182 11.0483 3.78361 11.3477 3.5872C13.2781 4.95947 14.9719 6.65091 16.3521 8.57703C16.1541 8.88254 15.9246 9.16831 15.6668 9.42945C15.6663 9.42996 15.6658 9.43047 15.6653 9.43098L12.4795 12.6168C11.3826 13.7137 9.94992 14.4387 8.4107 14.6651C8.37797 14.6699 8.34559 14.6769 8.31378 14.6859L8.29459 14.6914C7.7275 14.7647 7.15849 14.6556 6.66631 14.3943L11.4702 9.59042C11.763 9.29753 11.763 8.82265 11.4702 8.52976C11.1773 8.23687 10.7024 8.23687 10.4095 8.52976L5.58697 13.3523C5.29041 12.8385 5.16759 12.2377 5.24534 11.6428L5.25097 11.6231C5.26003 11.5914 5.26699 11.5591 5.2718 11.5265C5.2811 11.4634 5.29123 11.4005 5.30218 11.3378C5.32825 11.2862 5.34873 11.2307 5.36264 11.1719C5.38047 11.0966 5.38627 11.0213 5.38128 10.9479C5.6862 9.63106 6.35475 8.41492 7.31797 7.4596L7.97018 6.8078ZM5.69367 7.01631C4.94474 7.92162 4.38943 8.97072 4.05659 10.0919L1.77644 9.55199L4.21112 7.10846L4.22429 7.0949C4.26648 7.05036 4.32127 7.02909 4.36982 7.02909L5.69367 7.01631ZM1.45043 9.87897L1.45463 9.87484C1.45325 9.87622 1.45185 9.8776 1.45043 9.87897ZM9.88716 15.8671C11.0069 15.5272 12.0497 14.9646 12.9487 14.217L12.9398 15.5923L12.9398 15.5971C12.9398 15.6437 12.9191 15.7115 12.8601 15.7762L10.4355 18.2096L9.88716 15.8671ZM17.0436 6.99582C15.8527 5.46165 14.4698 4.08088 12.9317 2.89416C13.0066 2.87559 13.082 2.85871 13.1579 2.84352L17.05 2.0427L17.0552 2.0416C17.5826 1.92915 18.055 2.3971 17.9445 2.92968L17.2085 6.50655C17.1542 6.58645 17.115 6.67728 17.0946 6.77487C17.0792 6.849 17.0621 6.92266 17.0436 6.99582Z" fill="#009FA9"/>
</svg>
