<svg width="20" height="20" viewBox="0 0 20 20" fill="none" xmlns="http://www.w3.org/2000/svg">
<path fill-rule="evenodd" clip-rule="evenodd" d="M0.230471 9.84015C0.314688 4.52178 4.64043 0.228901 9.99074 0.239644C15.3729 0.250474 19.7392 4.6046 19.7392 9.99964C19.7392 15.3661 15.4022 19.7208 10.0426 19.7495C10.0038 19.7517 9.96445 19.7509 9.92465 19.7469L9.91465 19.7459C9.51693 19.7062 9.22027 19.3615 9.24017 18.9623C9.26007 18.5631 9.58954 18.2496 9.98924 18.2496C14.545 18.2496 18.2392 14.5554 18.2392 9.99964C18.2392 5.43469 14.5455 1.74881 9.98773 1.73964C5.42424 1.73048 1.73841 5.42306 1.72924 9.98115C1.72916 10.0198 1.72611 10.058 1.72027 10.0955C1.72956 10.6643 1.80162 11.236 1.93059 11.8034C2.02239 12.2073 1.76937 12.6092 1.36545 12.701C0.961541 12.7928 0.559687 12.5398 0.467889 12.1359C0.306367 11.4252 0.219238 10.6994 0.219238 9.96964C0.219238 9.92572 0.223069 9.88243 0.230471 9.84015ZM9.78524 6.21064C10.1995 6.21064 10.5352 6.54643 10.5352 6.96064V10.0559L12.9362 11.5226C13.2897 11.7385 13.4012 12.2001 13.1853 12.5536C12.9693 12.9071 12.5077 13.0186 12.1543 12.8027L9.39426 11.1167C9.17126 10.9804 9.03524 10.738 9.03524 10.4766V6.96064C9.03524 6.54643 9.37103 6.21064 9.78524 6.21064ZM2.24924 16.0006C2.24924 15.5864 2.58502 15.2506 2.99924 15.2506H5.99924C6.41345 15.2506 6.74924 15.5864 6.74924 16.0006C6.74924 16.4149 6.41345 16.7506 5.99924 16.7506H2.99924C2.58502 16.7506 2.24924 16.4149 2.24924 16.0006ZM0.249238 19.0006C0.249238 18.5864 0.585025 18.2506 0.999238 18.2506H5.99924C6.41345 18.2506 6.74924 18.5864 6.74924 19.0006C6.74924 19.4149 6.41345 19.7506 5.99924 19.7506H0.999238C0.585025 19.7506 0.249238 19.4149 0.249238 19.0006Z" fill="#A4A9C5"/>
</svg>
