<svg width="20" height="16" viewBox="0 0 20 16" fill="none" xmlns="http://www.w3.org/2000/svg">
<path fill-rule="evenodd" clip-rule="evenodd" d="M9.25 3.13581C7.28045 1.365 4.35901 1.23174 2.24744 2.73745C1.94082 2.95588 1.75 3.33287 1.75 3.74381V12.8358C1.75 12.9344 1.79446 12.9985 1.86465 13.0379C1.94004 13.0801 2.04588 13.0912 2.15526 13.0329C4.37653 11.849 7.09361 11.9259 9.25 13.2662V3.13581ZM10.75 3.13581V13.2662C12.9064 11.9259 15.6235 11.849 17.8448 13.033C17.9538 13.0912 18.0599 13.0806 18.1351 13.0384C18.2054 12.999 18.25 12.9346 18.25 12.8358V3.74381C18.25 3.33287 18.0595 2.95608 17.7529 2.73766C15.6413 1.23194 12.7195 1.365 10.75 3.13581ZM10 1.80325C7.5112 -0.23422 3.9652 -0.329551 1.37685 1.51595L10 1.80325ZM10 1.80325C12.4888 -0.23422 16.0348 -0.329551 18.6231 1.51595C19.3525 2.03553 19.75 2.88275 19.75 3.74381V12.8358C19.75 14.2314 18.2718 14.9616 17.1388 14.3565C15.015 13.2246 12.3185 13.5551 10.5305 15.344C10.3898 15.4847 10.199 15.5638 10 15.5638C9.80102 15.5638 9.6102 15.4847 9.46954 15.344C7.68143 13.555 4.98471 13.2245 2.86078 14.3567C1.72939 14.9596 0.25 14.2329 0.25 12.8358V3.74381C0.25 2.88286 0.647657 2.03555 1.37685 1.51595" fill="#009FA9"/>
</svg>
