<svg width="20" height="20" viewBox="0 0 20 20" fill="none" xmlns="http://www.w3.org/2000/svg">
<path fill-rule="evenodd" clip-rule="evenodd" d="M7.69335 1.0358C9.05355 -0.0161664 10.9408 -0.0161664 12.301 1.0358L12.3029 1.03722L18.2861 5.6942L18.2938 5.68794C19.2038 6.3985 19.7422 7.4856 19.7422 8.64908V15.9821C19.7422 18.0533 18.0634 19.7321 15.9922 19.7321H3.99219C1.92097 19.7321 0.242188 18.0533 0.242188 15.9821V8.64908C0.242188 7.50451 0.76393 6.4011 1.69566 5.69401L7.69335 1.0358ZM17.389 6.88477L17.3815 6.89093L11.3834 2.22235C11.3831 2.22215 11.3836 2.22255 11.3834 2.22235C10.5638 1.58908 9.43116 1.58852 8.61166 2.22185C8.61145 2.22202 8.61188 2.22169 8.61166 2.22185L2.6048 6.88718C2.05901 7.30021 1.74219 7.95526 1.74219 8.64908V15.9821C1.74219 17.2249 2.7494 18.2321 3.99219 18.2321H15.9922C17.235 18.2321 18.2422 17.2249 18.2422 15.9821V8.64908C18.2422 7.96037 17.9278 7.31432 17.389 6.88477ZM11.5883 9.89883C10.7082 9.01345 9.28599 9.01443 8.40977 9.89814L8.40369 9.90428C7.52388 10.7714 7.51827 12.1935 8.40752 13.0827L8.40911 13.0843C9.27627 13.9567 10.7008 13.9627 11.5907 13.0819C12.4676 12.2012 12.4661 10.7766 11.5899 9.90041L11.5883 9.89883ZM12.6521 8.84133C11.1872 7.36773 8.81168 7.36572 7.34766 8.83893C5.87081 10.2978 5.87712 12.6728 7.34606 14.1426C8.80449 15.6089 11.1783 15.6032 12.6483 14.1457L12.6512 14.1427C14.1123 12.6779 14.1138 10.3047 12.6521 8.84133Z" fill="#009FA9"/>
</svg>
