<svg width="20" height="20" viewBox="0 0 20 20" fill="none" xmlns="http://www.w3.org/2000/svg">
<path fill-rule="evenodd" clip-rule="evenodd" d="M15.5811 3.1138C15.6172 3.0793 15.6503 3.04066 15.6798 2.99802C15.6901 2.98324 15.6997 2.96822 15.7087 2.953C15.8779 2.78272 16.1142 2.67711 16.3802 2.67711C16.4212 2.67711 16.4615 2.67382 16.5007 2.66748C16.9529 2.73481 17.3002 3.12236 17.3002 3.59711C17.3002 4.10711 16.8809 4.52932 16.3661 4.53711C15.8522 4.53493 15.4402 4.12154 15.4402 3.60711C15.4402 3.42602 15.4915 3.25687 15.5811 3.1138ZM14.9721 1.6198C12.9581 0.40812 10.5697 -0.0250753 8.24709 0.403569C7.83976 0.478742 7.57049 0.869893 7.64566 1.27723C7.72083 1.68456 8.11198 1.95383 8.51932 1.87866C10.4324 1.5256 12.3956 1.86423 14.0674 2.82773C13.9849 3.07214 13.9402 3.33421 13.9402 3.60711C13.9402 4.95133 15.026 6.03711 16.3702 6.03711L16.3784 6.03707C17.7017 6.02269 18.8002 4.94577 18.8002 3.59711C18.8002 2.26969 17.7491 1.20461 16.4479 1.15866C16.3762 1.14954 16.2942 1.14955 16.2056 1.16728C16.1744 1.17351 16.1444 1.18154 16.1156 1.1911C15.6922 1.23616 15.3018 1.38821 14.9721 1.6198ZM1.1602 3.56911C1.1602 2.22349 2.24916 1.1347 3.60818 1.14916L3.6027 1.66436C3.60536 1.62896 3.60912 1.59633 3.61389 1.56632L3.61827 1.15916C4.95173 1.1735 6.0502 2.2505 6.0502 3.60911V3.61718C6.0359 4.94775 4.96167 6.04911 3.6102 6.04911H3.60214C3.33435 6.04624 3.07554 6.00026 2.83309 5.91763C1.86867 7.58079 1.52961 9.5357 1.88264 11.4404C1.95813 11.8477 1.68916 12.2391 1.28188 12.3146C0.874608 12.39 0.48325 12.1211 0.407764 11.7138C-0.0209723 9.40062 0.411955 7.02185 1.62304 5.01724C1.34003 4.61943 1.17454 4.13197 1.18025 3.60105C1.18036 3.59035 1.1807 3.5797 1.18126 3.56911H1.1602ZM2.66607 3.4634C2.67585 3.51309 2.68073 3.56453 2.68016 3.61718C2.67737 3.87711 2.78717 4.1168 2.96772 4.28801C2.97982 4.29545 2.99179 4.30328 3.0036 4.3115C3.04031 4.33705 3.07404 4.36529 3.1047 4.39577C3.25015 4.48993 3.42454 4.5463 3.6142 4.54911C4.11967 4.54693 4.5424 4.13123 4.5502 3.6051C4.54804 3.08555 4.12733 2.66472 3.60214 2.65907C3.57003 2.65873 3.53815 2.65632 3.50667 2.65194C3.06227 2.68666 2.71482 3.02718 2.66607 3.4634ZM18.7034 7.67771C19.1106 7.60212 19.502 7.871 19.5776 8.27826C20.0064 10.5886 19.5733 12.9651 18.3729 14.9752C18.6542 15.3723 18.8202 15.8579 18.8202 16.3861C18.8202 16.4302 18.8164 16.4733 18.8091 16.5153C18.779 17.093 18.5457 17.6616 18.1106 18.1034C18.0585 18.1563 18.0004 18.1998 17.9386 18.234C16.9788 19.0492 15.5424 18.994 14.6459 18.0974C14.5747 18.0262 14.5088 17.9517 14.4482 17.8743C14.1196 17.4595 13.9241 16.9344 13.9302 16.3581C13.9312 16.2731 13.9364 16.1892 13.9457 16.1063C13.9794 15.7997 14.0714 15.4984 14.2221 15.2206C14.6339 14.453 15.4417 13.9261 16.3882 13.9362C16.6591 13.9391 16.9204 13.9858 17.1646 14.0699C18.1187 12.4003 18.4549 10.4491 18.1028 8.55197C18.0272 8.14471 18.2961 7.75329 18.7034 7.67771ZM16.8773 15.5897C16.5135 15.3569 16.0245 15.3995 15.7065 15.7174L15.7025 15.7215C15.3836 16.0355 15.343 16.5369 15.5958 16.9039C15.7627 17.1414 16.0413 17.3013 16.3642 17.3061C16.6156 17.3051 16.8425 17.2056 17.0089 17.0441C17.0125 17.0403 17.0154 17.0374 17.0173 17.0355L17.0259 17.0268C17.0286 17.024 17.0314 17.0213 17.0342 17.0186C17.193 16.852 17.2902 16.626 17.2902 16.3761V16.367C17.2902 16.3237 17.2939 16.2803 17.3009 16.239C17.271 16.048 17.1828 15.8643 17.0359 15.7174L17.0327 15.7143C17.0201 15.7067 17.0077 15.6987 16.9954 15.6902C16.9518 15.6603 16.9124 15.6265 16.8773 15.5897ZM1.17457 16.2244C1.25096 14.9437 2.32066 13.9411 3.6102 13.9411C4.95877 13.9411 6.03587 15.0296 6.05016 16.3731L6.05025 16.3811C6.05025 16.6526 6.00603 16.9132 5.92455 17.1565C7.58995 18.1151 9.55459 18.4551 11.4701 18.1016C11.8774 18.0264 12.2686 18.2957 12.3437 18.703C12.4189 19.1103 12.1497 19.5015 11.7423 19.5767C9.41947 20.0053 7.03151 19.5721 5.02499 18.3676C4.63015 18.6486 4.14819 18.8155 3.62827 18.8211C3.55815 18.8218 3.49018 18.8129 3.42562 18.7956C2.16375 18.7113 1.14625 17.6648 1.16025 16.3631C1.16076 16.3156 1.16566 16.2693 1.17457 16.2244ZM2.66375 16.4699C2.70275 16.9017 3.05038 17.2538 3.49803 17.2967C3.52824 17.293 3.559 17.2911 3.5902 17.2911C3.64667 17.2911 3.70168 17.2974 3.75457 17.3092C3.97546 17.274 4.1696 17.164 4.3108 17.0067C4.31385 17.002 4.31694 16.9974 4.3201 16.9929C4.34097 16.9627 4.36365 16.9345 4.38791 16.9083C4.48986 16.7588 4.5494 16.5787 4.5502 16.3851C4.54243 15.8506 4.12036 15.4411 3.6102 15.4411C3.08861 15.4411 2.6702 15.8611 2.6702 16.3711C2.6702 16.4046 2.66801 16.4376 2.66375 16.4699Z" fill="#009FA9"/>
<path d="M8.00037 8.75018C8.00037 8.33597 8.33615 8.00018 8.75037 8.00018H10.7504C11.1646 8.00018 11.5004 8.33597 11.5004 8.75018V11.7502C11.5004 12.1644 11.1646 12.5002 10.7504 12.5002C10.3362 12.5002 10.0004 12.1644 10.0004 11.7502V9.50018H8.75037C8.33615 9.50018 8.00037 9.1644 8.00037 8.75018Z" fill="#009FA9"/>
</svg>
