<svg width="18" height="17" viewBox="0 0 18 17" fill="none" xmlns="http://www.w3.org/2000/svg">
<path fill-rule="evenodd" clip-rule="evenodd" d="M4 1.625C3.4212 1.625 2.95833 2.08999 2.95833 2.66667V8.5C2.95833 9.07353 3.42221 9.54167 4 9.54167H13.9414C13.9877 9.53075 14.0358 9.525 14.085 9.525C14.1151 9.525 14.1452 9.52559 14.175 9.52675C14.6644 9.44251 15.0417 9.0119 15.0417 8.5V2.66667C15.0417 2.09203 14.5725 1.625 14 1.625H4ZM15.6209 10.1171C16.035 9.70211 16.2917 9.12997 16.2917 8.5V2.66667C16.2917 1.39964 15.2608 0.375 14 0.375H4C2.7288 0.375 1.70833 1.40167 1.70833 2.66667V8.5C1.70833 9.124 1.95844 9.69207 2.36548 10.1065C2.04095 10.3895 1.79479 10.765 1.66818 11.2005L0.951613 13.7002C0.951479 13.7006 0.951345 13.7011 0.951211 13.7016C0.526048 15.1642 1.63225 16.6167 3.15167 16.6167H14.81C16.3282 16.6167 17.4234 15.1502 17.0113 13.6962L16.2941 11.1944L16.2934 11.192C16.1704 10.7692 15.9337 10.3999 15.6209 10.1171ZM14.2186 10.7836C14.1859 10.7889 14.1524 10.7917 14.1183 10.7917H3.87667C3.40638 10.7917 3.00022 11.0979 2.86878 11.5485C2.86869 11.5488 2.86859 11.5491 2.86849 11.5495L2.15247 14.0472L2.15172 14.0498C1.96131 14.7034 2.45489 15.3667 3.15167 15.3667H14.81C15.4916 15.3667 15.9963 14.7002 15.8088 14.0376C15.8088 14.0374 15.8089 14.0378 15.8088 14.0376L15.0932 11.5413C15.0931 11.541 15.093 11.5406 15.0929 11.5403C14.9729 11.1295 14.627 10.8366 14.2186 10.7836ZM6.70833 13.5C6.70833 13.1548 6.98816 12.875 7.33333 12.875H10.6667C11.0118 12.875 11.2917 13.1548 11.2917 13.5C11.2917 13.8452 11.0118 14.125 10.6667 14.125H7.33333C6.98816 14.125 6.70833 13.8452 6.70833 13.5Z" fill="#009FA9"/>
</svg>
