<svg width="40" height="40" viewBox="0 0 40 40" fill="none" xmlns="http://www.w3.org/2000/svg">
<rect width="40" height="40" rx="8" fill="#7E67F3" fill-opacity="0.11"/>
<path fill-rule="evenodd" clip-rule="evenodd" d="M28.2976 21.3981C28.6842 21.3981 28.9976 21.0847 28.9976 20.6981V14.6981C28.9976 14.3115 28.6842 13.9981 28.2976 13.9981H23.0362H22.9976L22.2976 13.9981C21.911 13.9981 21.5976 14.3115 21.5976 14.6981L21.5976 15.3981V20.6981C21.5976 21.0847 21.911 21.3981 22.2976 21.3981H28.2976ZM27.5976 19.9981V15.3981H22.9976V19.9981H27.5976Z" fill="#7E67F3"/>
<path fill-rule="evenodd" clip-rule="evenodd" d="M22.2976 15.3981C22.6842 15.3981 22.9976 15.0847 22.9976 14.6981V10.6981C22.9976 10.3115 22.6842 9.99807 22.2976 9.99807H19.0362H18.9976L18.2976 9.99807C17.911 9.99807 17.5976 10.3115 17.5976 10.6981L17.5976 11.3981V14.6981C17.5976 15.0847 17.911 15.3981 18.2976 15.3981H22.2976ZM21.5976 13.9981V11.3981H18.9976V13.9981H21.5976Z" fill="#7E67F3"/>
<path fill-rule="evenodd" clip-rule="evenodd" d="M11.7 18.5992C11.3134 18.5992 11 18.9126 11 19.2992V25.2992C11 25.6858 11.3134 25.9992 11.7 25.9992H16.9614H17L17.7 25.9992C18.0866 25.9992 18.4 25.6858 18.4 25.2992L18.4 24.5992V19.2992C18.4 18.9126 18.0866 18.5992 17.7 18.5992H11.7ZM12.4 19.9992V24.5992H17V19.9992H12.4Z" fill="#7E67F3"/>
<path fill-rule="evenodd" clip-rule="evenodd" d="M17.7 24.5992C17.3134 24.5992 17 24.9126 17 25.2992V29.2992C17 29.6858 17.3134 29.9992 17.7 29.9992H20.9614H21L21.7 29.9992C22.0866 29.9992 22.4 29.6858 22.4 29.2992L22.4 28.5992V25.2992C22.4 24.9126 22.0866 24.5992 21.7 24.5992H17.7ZM18.4 25.9992V28.5992H21V25.9992H18.4Z" fill="#7E67F3"/>
</svg>
