<svg width="40" height="40" viewBox="0 0 40 40" fill="none" xmlns="http://www.w3.org/2000/svg">
<rect width="40" height="40" rx="8" fill="#7E67F3" fill-opacity="0.11"/>
<path fill-rule="evenodd" clip-rule="evenodd" d="M12.2998 11C12.2998 10.6134 12.6132 10.3 12.9998 10.3H18.9998C19.3864 10.3 19.6998 10.6134 19.6998 11V17C19.6998 17.3866 19.3864 17.7 18.9998 17.7H12.9998C12.6132 17.7 12.2998 17.3866 12.2998 17V11ZM13.6998 11.7V16.3H18.2998V11.7H13.6998Z" fill="#7E67F3"/>
<path fill-rule="evenodd" clip-rule="evenodd" d="M14.2998 25C14.2998 24.6134 14.6132 24.3 14.9998 24.3H18.9998C19.3864 24.3 19.6998 24.6134 19.6998 25V29C19.6998 29.3866 19.3864 29.7 18.9998 29.7H14.9998C14.6132 29.7 14.2998 29.3866 14.2998 29V25ZM15.6998 25.7V28.3H18.2998V25.7H15.6998Z" fill="#7E67F3"/>
<path fill-rule="evenodd" clip-rule="evenodd" d="M18.2998 17C18.2998 16.6134 18.6132 16.3 18.9998 16.3H26.9998C27.3864 16.3 27.6998 16.6134 27.6998 17V25C27.6998 25.3866 27.3864 25.7 26.9998 25.7H18.9998C18.6132 25.7 18.2998 25.3866 18.2998 25V17ZM19.6998 17.7V24.3H26.2998V17.7H19.6998Z" fill="#7E67F3"/>
</svg>
