<svg width="20" height="20" viewBox="0 0 20 20" fill="none" xmlns="http://www.w3.org/2000/svg">
<path fill-rule="evenodd" clip-rule="evenodd" d="M10 1.75C5.44272 1.75 1.75 5.4347 1.75 10C1.75 14.5573 5.4347 18.25 10 18.25C14.5568 18.25 18.25 14.5568 18.25 10C18.25 5.44321 14.5568 1.75 10 1.75ZM0.25 10C0.25 4.6053 4.61527 0.25 10 0.25C15.3852 0.25 19.75 4.61479 19.75 10C19.75 15.3852 15.3852 19.75 10 19.75C4.6053 19.75 0.25 15.3847 0.25 10ZM8.53033 6.46967C8.82322 6.76256 8.82322 7.23744 8.53033 7.53033L7.06066 9L8.53033 10.4697C8.82322 10.7626 8.82322 11.2374 8.53033 11.5303C8.23744 11.8232 7.76256 11.8232 7.46967 11.5303L5.46967 9.53033C5.17678 9.23744 5.17678 8.76256 5.46967 8.46967L7.46967 6.46967C7.76256 6.17678 8.23744 6.17678 8.53033 6.46967ZM11.4697 8.46967C11.7626 8.17678 12.2374 8.17678 12.5303 8.46967L14.5303 10.4697C14.8232 10.7626 14.8232 11.2374 14.5303 11.5303L12.5303 13.5303C12.2374 13.8232 11.7626 13.8232 11.4697 13.5303C11.1768 13.2374 11.1768 12.7626 11.4697 12.4697L12.9393 11L11.4697 9.53033C11.1768 9.23744 11.1768 8.76256 11.4697 8.46967Z" fill="#8B92B6"/>
</svg>
