<svg width="48" height="48" viewBox="0 0 48 48" fill="none" xmlns="http://www.w3.org/2000/svg">
<rect width="48" height="48" rx="8" fill="#1AD1DB" fill-opacity="0.15"/>
<path fill-rule="evenodd" clip-rule="evenodd" d="M23.0418 14.5444C23.0089 14.5763 22.9736 14.6062 22.9361 14.6337C20.4989 16.4191 17.6253 17.4834 14.6239 17.7285C14.4361 17.7564 14.3198 17.9033 14.3198 18.067V25.347C14.3198 27.439 15.6183 29.383 17.4642 31.0686C19.2878 32.7339 21.4865 33.9992 22.9321 34.7351M23.0418 14.5444C23.633 14.1513 24.4208 14.1684 25.0101 14.6124L25.0217 14.621C27.4461 16.3932 30.3378 17.4726 33.3464 17.7029C33.4914 17.7215 33.6323 17.8591 33.6385 18.0412L33.6665 25.3603C33.6665 25.3609 33.6665 25.3615 33.6665 25.3621C33.6658 27.4531 32.3678 29.3931 30.5242 31.0749C28.7033 32.736 26.5095 33.9976 25.0688 34.7345C24.3892 35.0728 23.5912 35.0693 22.9321 34.7351M26.2073 13.0102C24.8807 12.0151 23.0569 12.0116 21.7381 13.019C21.7055 13.0439 21.6746 13.0707 21.6456 13.0991C19.5261 14.6214 17.0386 15.5285 14.4399 15.7369C14.4276 15.7379 14.4153 15.7391 14.403 15.7405C13.2383 15.8775 12.3198 16.8477 12.3198 18.067V25.347C12.3198 28.2816 14.1213 30.7244 16.1155 32.5454C18.1313 34.3862 20.5117 35.7473 22.0262 36.5182L22.0276 36.5189C23.2605 37.144 24.7275 37.1412 25.967 36.5214L25.9751 36.5174C27.4811 35.7473 29.8581 34.3897 31.8721 32.5524C33.8647 30.7347 35.6665 28.2953 35.6665 25.3603L35.6385 18.0232L35.6383 18.0074C35.6153 16.8354 34.7224 15.8304 33.538 15.712L33.5138 15.7098C30.8773 15.5109 28.3373 14.5657 26.2073 13.0102ZM23.999 19.667C24.5513 19.667 24.999 20.1147 24.999 20.667V26.2528L26.6252 24.6266C27.0157 24.236 27.6489 24.236 28.0394 24.6266C28.43 25.0171 28.43 25.6503 28.0394 26.0408L24.7061 29.3741C24.3156 29.7646 23.6824 29.7646 23.2919 29.3741L19.9586 26.0408C19.568 25.6503 19.568 25.0171 19.9586 24.6266C20.3491 24.236 20.9822 24.236 21.3728 24.6266L22.999 26.2528V20.667C22.999 20.1147 23.4467 19.667 23.999 19.667Z" fill="#009FA9"/>
</svg>
