<svg width="48" height="48" viewBox="0 0 48 48" fill="none" xmlns="http://www.w3.org/2000/svg">
<rect width="48" height="48" rx="8" fill="#1AD1DB" fill-opacity="0.15"/>
<path fill-rule="evenodd" clip-rule="evenodd" d="M23.0418 14.544C23.0089 14.576 22.9736 14.6058 22.9361 14.6333C20.4989 16.4188 17.6253 17.483 14.6239 17.7282C14.4361 17.756 14.3198 17.9029 14.3198 18.0666V25.3466C14.3198 27.4387 15.6183 29.3826 17.4642 31.0682C19.2878 32.7336 21.4865 33.9989 22.9321 34.7347M23.0418 14.544C23.633 14.1509 24.4208 14.1681 25.0101 14.612L25.0217 14.6206C27.4461 16.3928 30.3378 17.4723 33.3464 17.7025C33.4914 17.7211 33.6323 17.8587 33.6385 18.0409L33.6665 25.36C33.6665 25.3606 33.6665 25.3611 33.6665 25.3617C33.6658 27.4528 32.3678 29.3927 30.5242 31.0745C28.7033 32.7356 26.5095 33.9972 25.0688 34.7341C24.3892 35.0724 23.5912 35.0689 22.9321 34.7347M26.2073 13.0099C24.8807 12.0147 23.0569 12.0113 21.7381 13.0186C21.7055 13.0436 21.6746 13.0703 21.6456 13.0987C19.5261 14.621 17.0386 15.5281 14.4399 15.7365C14.4276 15.7375 14.4153 15.7387 14.403 15.7402C13.2383 15.8772 12.3198 16.8474 12.3198 18.0666V25.3466C12.3198 28.2813 14.1213 30.724 16.1155 32.5451C18.1313 34.3859 20.5117 35.7469 22.0262 36.5178L22.0276 36.5185C23.2605 37.1437 24.7275 37.1408 25.967 36.5211L25.9751 36.517C27.4811 35.7469 29.8581 34.3894 31.8721 32.5521C33.8647 30.7344 35.6665 28.2949 35.6665 25.36L35.6385 18.0228L35.6383 18.007C35.6153 16.835 34.7224 15.83 33.538 15.7116L33.5137 15.7095C30.8773 15.5105 28.3373 14.5654 26.2073 13.0099ZM23.2919 19.9595C23.6824 19.569 24.3156 19.569 24.7061 19.9595L28.0394 23.2929C28.43 23.6834 28.43 24.3166 28.0394 24.7071C27.6489 25.0976 27.0157 25.0976 26.6252 24.7071L24.999 23.0809V28.6666C24.999 29.2189 24.5513 29.6666 23.999 29.6666C23.4467 29.6666 22.999 29.2189 22.999 28.6666V23.0809L21.3728 24.7071C20.9822 25.0976 20.3491 25.0976 19.9586 24.7071C19.568 24.3166 19.568 23.6834 19.9586 23.2929L23.2919 19.9595Z" fill="#009FA9"/>
</svg>
