<svg width="300" height="240" viewBox="0 0 300 240" fill="none" xmlns="http://www.w3.org/2000/svg">
<g clip-path="url(#clip0_1818_5537)">
<rect width="300" height="240" fill="black"/>
<g opacity="0.04">
<path opacity="0.0344828" fill-rule="evenodd" clip-rule="evenodd" d="M-22.0048 -62.6912C-16.1991 -61.1356 -12.7538 -55.168 -14.3094 -49.3623L-30.3616 10.5453C-35.4174 29.4138 -24.2199 48.8084 -5.35137 53.8642C13.5172 58.92 32.9117 47.7226 37.9675 28.854L54.0196 -31.0536C55.5752 -36.8593 61.5428 -40.3047 67.3485 -38.7491C73.1542 -37.1934 76.5996 -31.2259 75.0439 -25.4202L58.9918 34.4874C50.8248 64.9674 19.4951 83.0556 -10.9848 74.8885C-41.4648 66.7214 -59.5529 35.3917 -51.3859 4.91183L-35.3337 -54.9958C-33.7781 -60.8015 -27.8105 -64.2468 -22.0048 -62.6912ZM9.63615 -44.8291C17.8032 -75.309 49.1329 -93.3971 79.6128 -85.2301C110.093 -77.063 128.181 -45.7333 120.014 -15.2533L103.491 46.411C101.935 52.2167 95.9675 55.662 90.1618 54.1064C84.3561 52.5507 80.9107 46.5831 82.4664 40.7775L98.9896 -20.8868C104.045 -39.7553 92.8479 -59.15 73.9794 -64.2058C55.1108 -69.2616 35.7163 -58.0641 30.6605 -39.1956L27.1908 -26.2466C25.6352 -20.4409 19.6676 -16.9955 13.8619 -18.5511C8.0562 -20.1068 4.61084 -26.0743 6.16647 -31.88L9.63615 -44.8291ZM9.54167 -2.42728C15.3474 -0.871649 18.7927 5.09589 17.2371 10.9016L14.6084 20.712C13.0528 26.5178 7.08526 29.9631 1.27955 28.4075C-4.52616 26.8519 -7.97153 20.8843 -6.4159 15.0786L-3.7872 5.26818C-2.23158 -0.537531 3.73597 -3.9829 9.54167 -2.42728Z" fill="black" stroke="white" stroke-width="0.32069" stroke-linecap="round" stroke-linejoin="round"/>
<path opacity="0.0689655" fill-rule="evenodd" clip-rule="evenodd" d="M-24.1048 -66.3285C-18.2991 -64.7728 -14.8537 -58.8053 -16.4093 -52.9996L-32.4615 6.908C-37.5173 25.7765 -26.3198 45.1711 -7.45133 50.2269C11.4172 55.2827 30.8117 44.0853 35.8675 25.2168L51.9196 -34.6909C53.4753 -40.4966 59.4428 -43.942 65.2485 -42.3863C71.0542 -40.8307 74.4996 -34.8632 72.9439 -29.0575L56.8918 30.8502C48.7248 61.3302 17.3952 79.4183 -13.0848 71.2512C-43.5647 63.0842 -61.6529 31.7545 -53.4859 1.27456L-37.4337 -58.633C-35.878 -64.4387 -29.9105 -67.8841 -24.1048 -66.3285ZM7.53619 -48.4663C15.7033 -78.9463 47.0329 -97.0344 77.5128 -88.8674C107.993 -80.7003 126.081 -49.3705 117.914 -18.8906L101.391 42.7737C99.835 48.5794 93.8675 52.0248 88.0618 50.4691C82.2561 48.9134 78.8107 42.9459 80.3664 37.1402L96.8896 -24.524C101.945 -43.3926 90.7479 -62.7872 71.8794 -67.843C53.0108 -72.8989 33.6163 -61.7014 28.5605 -42.8329L25.0908 -29.8839C23.5352 -24.0782 17.5677 -20.6328 11.7619 -22.1884C5.95624 -23.7441 2.51088 -29.7116 4.0665 -35.5173L7.53619 -48.4663ZM7.44171 -6.06455C13.2474 -4.50892 16.6928 1.45862 15.1372 7.26433L12.5085 17.0748C10.9528 22.8805 4.9853 26.3259 -0.820413 24.7702C-6.62612 23.2146 -10.0715 17.2471 -8.51586 11.4414L-5.88717 1.63091C-4.33154 -4.1748 1.636 -7.62017 7.44171 -6.06455Z" fill="black" stroke="white" stroke-width="0.341379" stroke-linecap="round" stroke-linejoin="round"/>
<path opacity="0.103448" fill-rule="evenodd" clip-rule="evenodd" d="M-26.2048 -69.9658C-20.3991 -68.4102 -16.9538 -62.4426 -18.5094 -56.6369L-34.5616 3.27067C-39.6174 22.1392 -28.4199 41.5338 -9.55139 46.5896C9.31716 51.6454 28.7117 40.448 33.7675 21.5794L49.8196 -38.3282C51.3752 -44.1339 57.3427 -47.5793 63.1485 -46.0237C68.9542 -44.468 72.3995 -38.5005 70.8439 -32.6948L54.7918 27.2129C46.6248 57.6928 15.2951 75.781 -15.1848 67.6139C-45.6648 59.4468 -63.7529 28.1172 -55.5859 -2.36277L-39.5337 -62.2704C-37.9781 -68.0761 -32.0105 -71.5214 -26.2048 -69.9658ZM5.43614 -52.1037C13.6032 -82.5836 44.9328 -100.672 75.4128 -92.5047C105.893 -84.3376 123.981 -53.0079 115.814 -22.5279L99.2906 39.1364C97.735 44.9421 91.7674 48.3874 85.9617 46.8318C80.156 45.2761 76.7107 39.3086 78.2664 33.5029L94.7896 -28.1614C99.8454 -47.0299 88.6479 -66.4246 69.7793 -71.4804C50.9108 -76.5362 31.5163 -65.3388 26.4604 -46.4702L22.9908 -33.5212C21.4351 -27.7155 15.4676 -24.2701 9.6619 -25.8258C3.85619 -27.3814 0.410825 -33.3489 1.96645 -39.1546L5.43614 -52.1037ZM5.34165 -9.70188C11.1474 -8.14625 14.5927 -2.17871 13.0371 3.627L10.4084 13.4375C8.85278 19.2432 2.88524 22.6885 -2.92046 21.1329C-8.72617 19.5773 -12.1715 13.6097 -10.6159 7.80403L-7.98722 -2.00642C-6.43159 -7.81213 -0.46405 -11.2575 5.34165 -9.70188Z" fill="black" stroke="white" stroke-width="0.362069" stroke-linecap="round" stroke-linejoin="round"/>
<path opacity="0.137931" fill-rule="evenodd" clip-rule="evenodd" d="M-28.3049 -73.6031C-22.4992 -72.0474 -19.0538 -66.0799 -20.6094 -60.2742L-36.6616 -0.366617C-41.7174 18.5019 -30.5199 37.8965 -11.6514 42.9523C7.21712 48.0081 26.6116 36.8107 31.6674 17.9422L47.7195 -41.9655C49.2752 -47.7712 55.2427 -51.2166 61.0484 -49.6609C66.8541 -48.1053 70.2995 -42.1378 68.7439 -36.3321L52.6918 23.5756C44.5247 54.0556 13.1951 72.1437 -17.2849 63.9766C-47.7648 55.8096 -65.853 24.4799 -57.686 -6.00006L-41.6338 -65.9076C-40.0781 -71.7134 -34.1106 -75.1587 -28.3049 -73.6031ZM3.33609 -55.7409C11.5032 -86.2209 42.8328 -104.309 73.3127 -96.142C103.793 -87.9749 121.881 -56.6451 113.714 -26.1652L97.1906 35.4991C95.635 41.3048 89.6674 44.7502 83.8617 43.1945C78.056 41.6388 74.6107 35.6713 76.1663 29.8656L92.6895 -31.7986C97.7453 -50.6672 86.5478 -70.0618 67.6793 -75.1176C48.8107 -80.1735 29.4162 -68.976 24.3604 -50.1075L20.8907 -37.1585C19.3351 -31.3528 13.3676 -27.9074 7.56185 -29.463C1.75614 -31.0187 -1.68922 -36.9862 -0.133595 -42.7919L3.33609 -55.7409ZM3.24161 -13.3392C9.04731 -11.7835 12.4927 -5.81599 10.9371 -0.0102791L8.30837 9.80017C6.75274 15.6059 0.7852 19.0513 -5.02051 17.4956C-10.8262 15.94 -14.2716 9.97245 -12.716 4.16675L-10.0873 -5.64371C-8.53163 -11.4494 -2.56409 -14.8948 3.24161 -13.3392Z" fill="black" stroke="white" stroke-width="0.382759" stroke-linecap="round" stroke-linejoin="round"/>
<path opacity="0.172414" fill-rule="evenodd" clip-rule="evenodd" d="M-30.4048 -77.2404C-24.5991 -75.6848 -21.1537 -69.7172 -22.7094 -63.9115L-38.7616 -4.00394C-43.8174 14.8646 -32.6199 34.2592 -13.7514 39.315C5.11719 44.3708 24.5117 33.1734 29.5675 14.3048L45.6196 -45.6028C47.1752 -51.4085 53.1428 -54.8539 58.9485 -53.2983C64.7542 -51.7426 68.1996 -45.7751 66.6439 -39.9694L50.5918 19.9382C42.4248 50.4182 11.0952 68.5064 -19.3848 60.3393C-49.8647 52.1722 -67.9529 20.8425 -59.7859 -9.63738L-43.7337 -69.545C-42.1781 -75.3507 -36.2105 -78.796 -30.4048 -77.2404ZM1.23616 -59.3783C9.40325 -89.8582 40.7329 -107.946 71.2128 -99.7793C101.693 -91.6122 119.781 -60.2825 111.614 -29.8025L95.0907 31.8618C93.535 37.6675 87.5675 41.1128 81.7618 39.5572C75.9561 38.0015 72.5107 32.034 74.0664 26.2283L90.5896 -35.436C95.6454 -54.3045 84.4479 -73.6992 65.5794 -78.755C46.7108 -83.8108 27.3163 -72.6134 22.2605 -53.7448L18.7908 -40.7958C17.2352 -34.9901 11.2676 -31.5447 5.46192 -33.1004C-0.343786 -34.656 -3.78915 -40.6235 -2.23352 -46.4292L1.23616 -59.3783ZM1.14168 -16.9765C6.94738 -15.4208 10.3928 -9.45332 8.83713 -3.6476L6.20844 6.16285C4.65281 11.9686 -1.31473 15.4139 -7.12044 13.8583C-12.9261 12.3027 -16.3715 6.33513 -14.8159 0.529425L-12.1872 -9.28103C-10.6316 -15.0867 -4.66402 -18.5321 1.14168 -16.9765Z" fill="black" stroke="white" stroke-width="0.403448" stroke-linecap="round" stroke-linejoin="round"/>
<path opacity="0.206897" fill-rule="evenodd" clip-rule="evenodd" d="M-32.5049 -80.8777C-26.6992 -79.3221 -23.2538 -73.3545 -24.8094 -67.5488L-40.8616 -7.64124C-45.9174 11.2273 -34.7199 30.6219 -15.8514 35.6777C3.01711 40.7335 22.4116 29.5361 27.4674 10.6675L43.5195 -49.2401C45.0752 -55.0458 51.0427 -58.4912 56.8484 -56.9356C62.6541 -55.38 66.0995 -49.4124 64.5439 -43.6067L48.4918 16.3009C40.3247 46.7809 8.99508 64.8691 -21.4849 56.702C-51.9648 48.5349 -70.053 17.2052 -61.886 -13.2747L-45.8338 -73.1823C-44.2781 -78.988 -38.3106 -82.4334 -32.5049 -80.8777ZM-0.863908 -63.0156C7.30319 -93.4955 38.6328 -111.584 69.1127 -103.417C99.5927 -95.2495 117.681 -63.9198 109.514 -33.4398L92.9906 28.2245C91.4349 34.0302 85.4674 37.4755 79.6617 35.9199C73.856 34.3642 70.4107 28.3966 71.9663 22.5909L88.4895 -39.0733C93.5453 -57.9418 82.3478 -77.3365 63.4793 -82.3923C44.6107 -87.4481 25.2162 -76.2507 20.1604 -57.3821L16.6907 -44.4331C15.1351 -38.6274 9.16755 -35.182 3.36185 -36.7377C-2.44386 -38.2933 -5.88922 -44.2608 -4.33359 -50.0665L-0.863908 -63.0156ZM-0.95839 -20.6138C4.84732 -19.0582 8.29269 -13.0906 6.73706 -7.28491L4.10837 2.52554C2.55274 8.33126 -3.4148 11.7766 -9.22051 10.221C-15.0262 8.66537 -18.4716 2.69783 -16.916 -3.10788L-14.2873 -12.9183C-12.7316 -18.724 -6.76409 -22.1694 -0.95839 -20.6138Z" fill="black" stroke="white" stroke-width="0.424138" stroke-linecap="round" stroke-linejoin="round"/>
<path opacity="0.241379" fill-rule="evenodd" clip-rule="evenodd" d="M-34.6048 -84.515C-28.7991 -82.9594 -25.3537 -76.9918 -26.9094 -71.1861L-42.9616 -11.2786C-48.0173 7.58996 -36.8199 26.9846 -17.9513 32.0404C0.917201 37.0962 20.3117 25.8987 25.3675 7.0302L41.4196 -52.8774C42.9753 -58.6831 48.9428 -62.1285 54.7485 -60.5729C60.5542 -59.0173 63.9996 -53.0497 62.444 -47.244L46.3918 12.6636C38.2248 43.1436 6.89516 61.2318 -23.5848 53.0647C-54.0647 44.8976 -72.1529 13.5679 -63.9859 -16.912L-47.9337 -76.8196C-46.378 -82.6253 -40.4105 -86.0707 -34.6048 -84.515ZM-2.96382 -66.6529C5.20327 -97.1328 36.5329 -115.221 67.0128 -107.054C97.4928 -98.8868 115.581 -67.5571 107.414 -37.0772L90.8907 24.5872C89.335 30.3929 83.3675 33.8382 77.5618 32.2825C71.7561 30.7269 68.3108 24.7593 69.8664 18.9536L86.3896 -42.7106C91.4454 -61.5791 80.2479 -80.9738 61.3794 -86.0296C42.5108 -91.0854 23.1163 -79.888 18.0605 -61.0194L14.5908 -48.0704C13.0352 -42.2647 7.06764 -38.8193 1.26194 -40.375C-4.54377 -41.9306 -7.98913 -47.8981 -6.4335 -53.7039L-2.96382 -66.6529ZM-3.0583 -24.2511C2.7474 -22.6955 6.19277 -16.7279 4.63714 -10.9222L2.00845 -1.11178C0.452824 4.69393 -5.51471 8.1393 -11.3204 6.58367C-17.1261 5.02804 -20.5715 -0.9395 -19.0159 -6.74521L-16.3872 -16.5557C-14.8316 -22.3614 -8.86401 -25.8067 -3.0583 -24.2511Z" fill="black" stroke="white" stroke-width="0.444828" stroke-linecap="round" stroke-linejoin="round"/>
<path opacity="0.275862" fill-rule="evenodd" clip-rule="evenodd" d="M-36.7048 -88.1523C-30.8991 -86.5967 -27.4538 -80.6291 -29.0094 -74.8234L-45.0616 -14.9159C-50.1174 3.95267 -38.9199 23.3473 -20.0514 28.4031C-1.18285 33.4589 18.2117 22.2614 23.2675 3.39291L39.3196 -56.5147C40.8752 -62.3204 46.8427 -65.7658 52.6485 -64.2102C58.4542 -62.6546 61.8995 -56.687 60.3439 -50.8813L44.2918 9.02632C36.1247 39.5063 4.79511 57.5945 -25.6849 49.4274C-56.1648 41.2603 -74.253 9.93063 -66.0859 -20.5493L-50.0337 -80.4569C-48.4781 -86.2626 -42.5106 -89.7079 -36.7048 -88.1523ZM-5.06387 -70.2902C3.10322 -100.77 34.4328 -118.858 64.9128 -110.691C95.3927 -102.524 113.481 -71.1944 105.314 -40.7144L88.7907 20.9499C87.235 26.7556 81.2674 30.2009 75.4617 28.6452C69.656 27.0896 66.2107 21.122 67.7664 15.3163L84.2896 -46.3479C89.3454 -65.2164 78.1479 -84.6111 59.2793 -89.6669C40.4108 -94.7227 21.0163 -83.5253 15.9604 -64.6567L12.4908 -51.7077C10.9351 -45.902 4.96759 -42.4566 -0.838115 -44.0123C-6.64382 -45.5679 -10.0892 -51.5354 -8.53355 -57.3411L-5.06387 -70.2902ZM-5.15836 -27.8884C0.647353 -26.3328 4.09272 -20.3652 2.53709 -14.5595L-0.0915989 -4.74907C-1.64723 1.05664 -7.61477 4.50201 -13.4205 2.94638C-19.2262 1.39075 -22.6716 -4.57679 -21.1159 -10.3825L-18.4872 -20.1929C-16.9316 -25.9987 -10.9641 -29.444 -5.15836 -27.8884Z" fill="black" stroke="white" stroke-width="0.465517" stroke-linecap="round" stroke-linejoin="round"/>
<path opacity="0.310345" fill-rule="evenodd" clip-rule="evenodd" d="M-38.8048 -91.7896C-32.9991 -90.234 -29.5537 -84.2665 -31.1094 -78.4607L-47.1615 -18.5532C-52.2173 0.315359 -41.0198 19.71 -22.1513 24.7658C-3.28279 29.8216 16.1117 18.6241 21.1675 -0.244396L37.2196 -60.152C38.7753 -65.9577 44.7428 -69.4031 50.5485 -67.8475C56.3542 -66.2919 59.7996 -60.3243 58.2439 -54.5186L42.1918 5.38902C34.0248 35.869 2.69518 53.9572 -27.7848 45.7901C-58.2647 37.623 -76.3529 6.29332 -68.1859 -24.1866L-52.1337 -84.0942C-50.578 -89.8999 -44.6105 -93.3453 -38.8048 -91.7896ZM-7.16382 -73.9275C1.00327 -104.407 32.3329 -122.496 62.8128 -114.329C93.2928 -106.161 111.381 -74.8317 103.214 -44.3518L86.6907 17.3126C85.135 23.1183 79.1675 26.5636 73.3618 25.008C67.5561 23.4523 64.1108 17.4847 65.6664 11.679L82.1896 -49.9852C87.2454 -68.8537 76.0479 -88.2484 57.1794 -93.3042C38.3108 -98.36 18.9163 -87.1626 13.8605 -68.294L10.3908 -55.345C8.83519 -49.5393 2.86765 -46.0939 -2.93806 -47.6496C-8.74376 -49.2052 -12.1891 -55.1728 -10.6335 -60.9785L-7.16382 -73.9275ZM-7.2583 -31.5257C-1.4526 -29.9701 1.99278 -24.0025 0.437154 -18.1968L-2.19154 -8.38638C-3.74717 -2.58067 -9.71471 0.864703 -15.5204 -0.690926C-21.3261 -2.24656 -24.7715 -8.2141 -23.2159 -14.0198L-20.5872 -23.8303C-19.0315 -29.636 -13.064 -33.0813 -7.2583 -31.5257Z" fill="black" stroke="white" stroke-width="0.486207" stroke-linecap="round" stroke-linejoin="round"/>
<path opacity="0.344828" fill-rule="evenodd" clip-rule="evenodd" d="M-40.9049 -95.427C-35.0991 -93.8713 -31.6538 -87.9038 -33.2094 -82.0981L-49.2616 -22.1905C-54.3174 -3.32196 -43.1199 16.0726 -24.2514 21.1284C-5.38286 26.1842 14.0117 14.9868 19.0675 -3.88172L35.1196 -63.7894C36.6752 -69.5951 42.6427 -73.0404 48.4484 -71.4848C54.2542 -69.9292 57.6995 -63.9617 56.1439 -58.156L40.0918 1.75168C31.9247 32.2317 0.5951 50.3198 -29.8849 42.1528C-60.3648 33.9857 -78.453 2.656 -70.2859 -27.8239L-54.2337 -87.7315C-52.6781 -93.5372 -46.7106 -96.9826 -40.9049 -95.427ZM-9.26388 -77.5648C-1.09679 -108.045 30.2328 -126.133 60.7128 -117.966C91.1927 -109.799 109.281 -78.469 101.114 -47.9891L84.5906 13.6752C83.035 19.4809 77.0674 22.9263 71.2617 21.3706C65.456 19.8149 62.0107 13.8474 63.5664 8.04169L80.0896 -53.6225C85.1454 -72.4911 73.9478 -91.8857 55.0793 -96.9415C36.2108 -101.997 16.8163 -90.7999 11.7604 -71.9314L8.29076 -58.9824C6.73513 -53.1766 0.767582 -49.7313 -5.03812 -51.2869C-10.8438 -52.8425 -14.2892 -58.8101 -12.7336 -64.6158L-9.26388 -77.5648ZM-9.35836 -35.163C-3.55266 -33.6074 -0.107287 -27.6399 -1.66292 -21.8342L-4.29161 -12.0237C-5.84724 -6.21799 -11.8148 -2.77262 -17.6205 -4.32826C-23.4262 -5.88388 -26.8716 -11.8514 -25.3159 -17.6571L-22.6872 -27.4676C-21.1316 -33.2733 -15.1641 -36.7187 -9.35836 -35.163Z" fill="black" stroke="white" stroke-width="0.506897" stroke-linecap="round" stroke-linejoin="round"/>
<path opacity="0.37931" fill-rule="evenodd" clip-rule="evenodd" d="M-43.0048 -99.0642C-37.1991 -97.5086 -33.7537 -91.5411 -35.3093 -85.7354L-51.3615 -25.8278C-56.4173 -6.95925 -45.2198 12.4354 -26.3513 17.4912C-7.48277 22.547 11.9118 11.3495 16.9675 -7.51901L33.0196 -67.4266C34.5753 -73.2323 40.5428 -76.6777 46.3485 -75.1221C52.1542 -73.5665 55.5996 -67.5989 54.044 -61.7932L37.9919 -1.88559C29.8248 28.5944 -1.50481 46.6826 -31.9848 38.5155C-62.4647 30.3484 -80.5529 -0.981295 -72.3858 -31.4612L-56.3337 -91.3688C-54.778 -97.1745 -48.8105 -100.62 -43.0048 -99.0642ZM-11.3638 -81.2021C-3.19671 -111.682 28.1329 -129.77 58.6128 -121.603C89.0928 -113.436 107.181 -82.1063 99.014 -51.6264L82.4907 10.038C80.9351 15.8437 74.9675 19.289 69.1618 17.7333C63.3561 16.1777 59.9108 10.2101 61.4664 4.40442L77.9896 -57.2598C83.0455 -76.1283 71.8479 -95.523 52.9794 -100.579C34.1108 -105.635 14.7163 -94.4372 9.66051 -75.5686L6.19084 -62.6196C4.63521 -56.8139 -1.33233 -53.3686 -7.13804 -54.9242C-12.9437 -56.4798 -16.3891 -62.4474 -14.8335 -68.2531L-11.3638 -81.2021ZM-11.4583 -38.8003C-5.65258 -37.2447 -2.2072 -31.2772 -3.76283 -25.4714L-6.39152 -15.661C-7.94715 -9.85528 -13.9147 -6.40991 -19.7204 -7.96554C-25.5261 -9.52117 -28.9715 -15.4887 -27.4158 -21.2944L-24.7872 -31.1049C-23.2315 -36.9106 -17.264 -40.3559 -11.4583 -38.8003Z" fill="black" stroke="white" stroke-width="0.527586" stroke-linecap="round" stroke-linejoin="round"/>
<path opacity="0.413793" fill-rule="evenodd" clip-rule="evenodd" d="M-45.1048 -102.702C-39.2991 -101.146 -35.8538 -95.1784 -37.4094 -89.3727L-53.4616 -29.4651C-58.5174 -10.5966 -47.3199 8.79804 -28.4514 13.8538C-9.58283 18.9097 9.81168 7.71221 14.8675 -11.1563L30.9196 -71.064C32.4752 -76.8697 38.4427 -80.315 44.2485 -78.7594C50.0542 -77.2038 53.4995 -71.2362 51.9439 -65.4305L35.8918 -5.5229C27.7248 24.9571 -3.60487 43.0452 -34.0848 34.8782C-64.5648 26.7111 -82.653 -4.61861 -74.4859 -35.0985L-58.4337 -95.0061C-56.8781 -100.812 -50.9105 -104.257 -45.1048 -102.702ZM-13.4639 -84.8394C-5.29678 -115.319 26.0328 -133.408 56.5128 -125.24C86.9927 -117.073 105.081 -85.7436 96.9139 -55.2637L80.3907 6.40066C78.835 12.2064 72.8674 15.6517 67.0617 14.096C61.256 12.5403 57.8107 6.5728 59.3664 0.767105L75.8896 -60.8971C80.9454 -79.7657 69.7479 -99.1603 50.8793 -104.216C32.0108 -109.272 12.6163 -98.0745 7.56045 -79.206L4.09078 -66.2569C2.53514 -60.4512 -3.4324 -57.0059 -9.2381 -58.5615C-15.0438 -60.1171 -18.4892 -66.0847 -16.9336 -71.8904L-13.4639 -84.8394ZM-13.5583 -42.4376C-7.75264 -40.882 -4.30727 -34.9145 -5.86289 -29.1088L-8.49159 -19.2983C-10.0472 -13.4926 -16.0148 -10.0472 -21.8205 -11.6029C-27.6262 -13.1585 -31.0715 -19.126 -29.5159 -24.9317L-26.8872 -34.7422C-25.3316 -40.5479 -19.3641 -43.9933 -13.5583 -42.4376Z" fill="black" stroke="white" stroke-width="0.548276" stroke-linecap="round" stroke-linejoin="round"/>
<path opacity="0.448276" fill-rule="evenodd" clip-rule="evenodd" d="M-47.2049 -106.339C-41.3992 -104.783 -37.9538 -98.8157 -39.5095 -93.01L-55.5617 -33.1024C-60.6174 -14.2339 -49.42 5.16075 -30.5515 10.2166C-11.6829 15.2724 7.71162 4.07492 12.7674 -14.7936L28.8195 -74.7012C30.3751 -80.507 36.3427 -83.9523 42.1484 -82.3967C47.9541 -80.8411 51.3995 -74.8735 49.8438 -69.0678L33.7917 -9.1602C25.6247 21.3198 -5.70494 39.408 -36.1849 31.2409C-66.6648 23.0738 -84.753 -8.2559 -76.586 -38.7358L-60.5338 -98.6434C-58.9782 -104.449 -53.0106 -107.894 -47.2049 -106.339ZM-15.5639 -88.4767C-7.39685 -118.957 23.9328 -137.045 54.4127 -128.878C84.8927 -120.711 102.981 -89.3809 94.8138 -58.901L78.2906 2.76337C76.7349 8.56906 70.7674 12.0144 64.9617 10.4587C59.156 8.90306 55.7106 2.93551 57.2663 -2.87019L73.7895 -64.5344C78.8453 -83.403 67.6478 -102.798 48.7793 -107.853C29.9107 -112.909 10.5162 -101.712 5.46038 -82.8433L1.99071 -69.8942C0.435072 -64.0885 -5.53247 -60.6432 -11.3382 -62.1988C-17.1439 -63.7544 -20.5892 -69.722 -19.0336 -75.5277L-15.5639 -88.4767ZM-15.6584 -46.0749C-9.85271 -44.5193 -6.40734 -38.5518 -7.96296 -32.746L-10.5917 -22.9356C-12.1473 -17.1299 -18.1148 -13.6845 -23.9205 -15.2401C-29.7262 -16.7958 -33.1716 -22.7633 -31.616 -28.569L-28.9873 -38.3795C-27.4317 -44.1852 -21.4641 -47.6305 -15.6584 -46.0749Z" fill="black" stroke="white" stroke-width="0.568965" stroke-linecap="round" stroke-linejoin="round"/>
<path opacity="0.482759" fill-rule="evenodd" clip-rule="evenodd" d="M-49.3048 -109.976C-43.4991 -108.421 -40.0538 -102.453 -41.6094 -96.6473L-57.6616 -36.7397C-62.7174 -17.8711 -51.5199 1.52346 -32.6514 6.57926C-13.7828 11.6351 5.6117 0.437632 10.6675 -18.4309L26.7196 -78.3385C28.2752 -84.1442 34.2428 -87.5896 40.0485 -86.034C45.8542 -84.4784 49.2996 -78.5108 47.7439 -72.7051L31.6918 -12.7975C23.5248 17.6825 -7.80485 35.7707 -38.2848 27.6036C-68.7647 19.4365 -86.8529 -11.8932 -78.6859 -42.3731L-62.6337 -102.281C-61.0781 -108.086 -55.1105 -111.532 -49.3048 -109.976ZM-17.6638 -92.114C-9.49676 -122.594 21.8328 -140.682 52.3128 -132.515C82.7927 -124.348 100.881 -93.0182 92.7139 -62.5383L76.1907 -0.87392C74.635 4.93177 68.6674 8.37711 62.8618 6.82145C57.0561 5.26577 53.6107 -0.701781 55.1664 -6.50747L71.6896 -68.1717C76.7454 -87.0402 65.5479 -106.435 46.6793 -111.491C27.8108 -116.547 8.41628 -105.349 3.36047 -86.4805L-0.109205 -73.5315C-1.66484 -67.7258 -7.63238 -64.2805 -13.4381 -65.8361C-19.2438 -67.3917 -22.6892 -73.3593 -21.1335 -79.165L-17.6638 -92.114ZM-17.7583 -49.7122C-11.9526 -48.1566 -8.50725 -42.189 -10.0629 -36.3833L-12.6916 -26.5729C-14.2472 -20.7672 -20.2147 -17.3218 -26.0204 -18.8774C-31.8262 -20.4331 -35.2715 -26.4006 -33.7159 -32.2063L-31.0872 -42.0168C-29.5316 -47.8225 -23.564 -51.2678 -17.7583 -49.7122Z" fill="black" stroke="white" stroke-width="0.589655" stroke-linecap="round" stroke-linejoin="round"/>
<path opacity="0.517241" fill-rule="evenodd" clip-rule="evenodd" d="M-51.4048 -113.613C-45.5991 -112.058 -42.1537 -106.09 -43.7093 -100.285L-59.7615 -40.377C-64.8173 -21.5085 -53.6198 -2.11386 -34.7513 2.94194C-15.8828 7.99775 3.51176 -3.19969 8.56754 -22.0682L24.6196 -81.9759C26.1753 -87.7816 32.1428 -91.2269 37.9485 -89.6713C43.7542 -88.1157 47.1996 -82.1481 45.644 -76.3424L29.5919 -16.4348C21.4248 14.0452 -9.9048 32.1333 -40.3848 23.9662C-70.8647 15.7992 -88.9529 -15.5305 -80.7858 -46.0104L-64.7336 -105.918C-63.178 -111.724 -57.2105 -115.169 -51.4048 -113.613ZM-19.7638 -95.7513C-11.5967 -126.231 19.7329 -144.319 50.2128 -136.152C80.6928 -127.985 98.781 -96.6555 90.614 -66.1756L74.0907 -4.51124C72.5351 1.29445 66.5675 4.73979 60.7618 3.18413C54.9561 1.62845 51.5108 -4.3391 53.0664 -10.1448L69.5896 -71.809C74.6455 -90.6776 63.4479 -110.072 44.5794 -115.128C25.7109 -120.184 6.31633 -108.986 1.26052 -90.1179L-2.20915 -77.1688C-3.76479 -71.3631 -9.73233 -67.9178 -15.538 -69.4734C-21.3437 -71.029 -24.7891 -76.9966 -23.2335 -82.8023L-19.7638 -95.7513ZM-19.8583 -53.3495C-14.0526 -51.7939 -10.6072 -45.8264 -12.1628 -40.0207L-14.7915 -30.2102C-16.3471 -24.4045 -22.3147 -20.9591 -28.1204 -22.5148C-33.9261 -24.0704 -37.3715 -30.0379 -35.8158 -35.8436L-33.1871 -45.6541C-31.6315 -51.4598 -25.664 -54.9052 -19.8583 -53.3495Z" fill="black" stroke="white" stroke-width="0.610345" stroke-linecap="round" stroke-linejoin="round"/>
<path opacity="0.551724" fill-rule="evenodd" clip-rule="evenodd" d="M-53.5048 -117.251C-47.6991 -115.695 -44.2537 -109.728 -45.8094 -103.922L-61.8616 -44.0143C-66.9173 -25.1458 -55.7199 -5.75118 -36.8514 -0.695383C-17.9828 4.36043 1.41172 -6.83701 6.46751 -25.7055L22.5196 -85.6132C24.0752 -91.4189 30.0428 -94.8643 35.8485 -93.3086C41.6542 -91.753 45.0996 -85.7855 43.5439 -79.9798L27.4918 -20.0721C19.3248 10.4079 -12.0048 28.496 -42.4848 20.3289C-72.9647 12.1619 -91.0529 -19.1678 -82.8859 -49.6478L-66.8337 -109.555C-65.2781 -115.361 -59.3105 -118.806 -53.5048 -117.251ZM-21.8638 -99.3886C-13.6967 -129.869 17.6329 -147.957 48.1128 -139.79C78.5928 -131.623 96.681 -100.293 88.5139 -69.8129L71.9907 -8.14857C70.435 -2.34287 64.4675 1.10247 58.6618 -0.453199C52.8561 -2.00888 49.4107 -7.97643 50.9664 -13.7821L67.4896 -75.4463C72.5454 -94.3149 61.3479 -113.71 42.4794 -118.765C23.6108 -123.821 4.2163 -112.624 -0.839516 -93.7552L-4.30919 -80.8062C-5.86482 -75.0005 -11.8324 -71.5551 -17.6381 -73.1107C-23.4438 -74.6664 -26.8891 -80.6339 -25.3335 -86.4396L-21.8638 -99.3886ZM-21.9583 -56.9869C-16.1526 -55.4312 -12.7072 -49.4637 -14.2629 -43.658L-16.8915 -33.8475C-18.4472 -28.0418 -24.4147 -24.5964 -30.2204 -26.1521C-36.0261 -27.7077 -39.4715 -33.6752 -37.9159 -39.481L-35.2872 -49.2914C-33.7316 -55.0971 -27.764 -58.5425 -21.9583 -56.9869Z" fill="black" stroke="white" stroke-width="0.631034" stroke-linecap="round" stroke-linejoin="round"/>
<path opacity="0.586207" fill-rule="evenodd" clip-rule="evenodd" d="M-55.6049 -120.888C-49.7992 -119.332 -46.3538 -113.365 -47.9094 -107.559L-63.9616 -47.6516C-69.0174 -28.7831 -57.8199 -9.3885 -38.9514 -4.3327C-20.0829 0.723113 -0.688346 -10.4743 4.36744 -29.3429L20.4195 -89.2505C21.9752 -95.0562 27.9427 -98.5016 33.7484 -96.9459C39.5541 -95.3903 42.9995 -89.4228 41.4439 -83.6171L25.3918 -23.7094C17.2247 6.77054 -14.1049 24.8587 -44.5849 16.6916C-75.0648 8.52455 -93.153 -22.8051 -84.9859 -53.2851L-68.9338 -113.193C-67.3781 -118.998 -61.4106 -122.444 -55.6049 -120.888ZM-23.9639 -103.026C-15.7968 -133.506 15.5328 -151.594 46.0127 -143.427C76.4927 -135.26 94.5809 -103.93 86.4139 -73.4502L69.8906 -11.7859C68.335 -5.98019 62.3674 -2.53485 56.5617 -4.09051C50.756 -5.64619 47.3107 -11.6137 48.8663 -17.4194L65.3895 -79.0836C70.4454 -97.9522 59.2478 -117.347 40.3793 -122.403C21.5108 -127.458 2.11623 -116.261 -2.93958 -97.3925L-6.40925 -84.4435C-7.96489 -78.6378 -13.9324 -75.1924 -19.7381 -76.748C-25.5438 -78.3037 -28.9892 -84.2712 -27.4336 -90.0769L-23.9639 -103.026ZM-24.0584 -60.6242C-18.2527 -59.0685 -14.8073 -53.101 -16.3629 -47.2953L-18.9916 -37.4848C-20.5472 -31.6791 -26.5148 -28.2338 -32.3205 -29.7894C-38.1262 -31.345 -41.5716 -37.3126 -40.0159 -43.1183L-37.3873 -52.9287C-35.8316 -58.7344 -29.8641 -62.1798 -24.0584 -60.6242Z" fill="black" stroke="white" stroke-width="0.651724" stroke-linecap="round" stroke-linejoin="round"/>
<path opacity="0.62069" fill-rule="evenodd" clip-rule="evenodd" d="M-57.7048 -124.525C-51.8991 -122.97 -48.4537 -117.002 -50.0094 -111.196L-66.0616 -51.2889C-71.1174 -32.4204 -59.9199 -13.0258 -41.0514 -7.96996C-22.1828 -2.91415 -2.78829 -14.1116 2.26749 -32.9801L18.3196 -92.8878C19.8752 -98.6935 25.8428 -102.139 31.6485 -100.583C37.4542 -99.0276 40.8996 -93.06 39.3439 -87.2543L23.2918 -27.3467C15.1248 3.13328 -16.2048 21.2215 -46.6848 13.0544C-77.1647 4.88729 -95.2529 -26.4424 -87.0859 -56.9223L-71.0337 -116.83C-69.4781 -122.636 -63.5105 -126.081 -57.7048 -124.525ZM-26.0638 -106.663C-17.8968 -137.143 13.4329 -155.231 43.9128 -147.064C74.3928 -138.897 92.481 -107.567 84.3139 -77.0875L67.7907 -15.4231C66.235 -9.61744 60.2675 -6.17211 54.4618 -7.72777C48.6561 -9.28345 45.2107 -15.251 46.7664 -21.0567L63.2896 -82.7209C68.3454 -101.589 57.1479 -120.984 38.2793 -126.04C19.4108 -131.096 0.0162859 -119.898 -5.03953 -101.03L-8.5092 -88.0807C-10.0648 -82.275 -16.0324 -78.8297 -21.8381 -80.3853C-27.6438 -81.9409 -31.0892 -87.9085 -29.5335 -93.7142L-26.0638 -106.663ZM-26.1583 -64.2614C-20.3526 -62.7058 -16.9072 -56.7383 -18.4629 -50.9326L-21.0916 -41.1221C-22.6472 -35.3164 -28.6147 -31.871 -34.4204 -33.4266C-40.2261 -34.9823 -43.6715 -40.9498 -42.1159 -46.7555L-39.4872 -56.566C-37.9316 -62.3717 -31.964 -65.8171 -26.1583 -64.2614Z" fill="black" stroke="white" stroke-width="0.672414" stroke-linecap="round" stroke-linejoin="round"/>
<path opacity="0.655172" fill-rule="evenodd" clip-rule="evenodd" d="M-59.8049 -128.163C-53.9991 -126.607 -50.5538 -120.639 -52.1094 -114.834L-68.1616 -54.9262C-73.2174 -36.0577 -62.0199 -16.6631 -43.1514 -11.6073C-24.2828 -6.55147 -4.88833 -17.7489 0.167458 -36.6174L16.2196 -96.5251C17.7752 -102.331 23.7427 -105.776 29.5484 -104.221C35.3542 -102.665 38.7995 -96.6974 37.2439 -90.8917L21.1918 -30.984C13.0247 -0.504041 -18.3049 17.5841 -48.7849 9.41703C-79.2648 1.24997 -97.353 -30.0797 -89.1859 -60.5597L-73.1337 -120.467C-71.5781 -126.273 -65.6106 -129.718 -59.8049 -128.163ZM-28.1639 -110.301C-19.9968 -140.78 11.3328 -158.869 41.8128 -150.702C72.2927 -142.534 90.3809 -111.205 82.2139 -80.7248L65.6906 -19.0605C64.135 -13.2548 58.1674 -9.80943 52.3617 -11.3651C46.556 -12.9208 43.1107 -18.8883 44.6664 -24.694L61.1896 -86.3582C66.2454 -105.227 55.0478 -124.621 36.1793 -129.677C17.3108 -134.733 -2.08375 -123.536 -7.13956 -104.667L-10.6092 -91.7181C-12.1649 -85.9124 -18.1324 -82.467 -23.9381 -84.0226C-29.7438 -85.5783 -33.1892 -91.5458 -31.6336 -97.3515L-28.1639 -110.301ZM-28.2584 -67.8988C-22.4527 -66.3431 -19.0073 -60.3756 -20.5629 -54.5699L-23.1916 -44.7594C-24.7472 -38.9537 -30.7148 -35.5083 -36.5205 -37.064C-42.3262 -38.6196 -45.7716 -44.5871 -44.2159 -50.3928L-41.5872 -60.2033C-40.0316 -66.009 -34.0641 -69.4544 -28.2584 -67.8988Z" fill="black" stroke="white" stroke-width="0.693103" stroke-linecap="round" stroke-linejoin="round"/>
<path opacity="0.689655" fill-rule="evenodd" clip-rule="evenodd" d="M-61.9048 -131.8C-56.0991 -130.244 -52.6537 -124.277 -54.2094 -118.471L-70.2615 -58.5635C-75.3173 -39.695 -64.1199 -20.3004 -45.2513 -15.2446C-26.3828 -10.1888 -6.98827 -21.3862 -1.93249 -40.2548L14.1196 -100.162C15.6752 -105.968 21.6428 -109.413 27.4485 -107.858C33.2542 -106.302 36.6996 -100.335 35.1439 -94.529L19.0918 -34.6213C10.9248 -4.14136 -20.4048 13.9468 -50.8848 5.77971C-81.3647 -2.38736 -99.4529 -33.7171 -91.2859 -64.197L-75.2337 -124.105C-73.678 -129.91 -67.7105 -133.356 -61.9048 -131.8ZM-30.2638 -113.938C-22.0967 -144.418 9.23287 -162.506 39.7128 -154.339C70.1928 -146.172 88.281 -114.842 80.1139 -84.3621L63.5907 -22.6978C62.035 -16.8921 56.0675 -13.4468 50.2618 -15.0024C44.4561 -16.5581 41.0107 -22.5256 42.5664 -28.3313L59.0896 -89.9955C64.1454 -108.864 52.9479 -128.259 34.0794 -133.315C15.2108 -138.37 -4.1837 -127.173 -9.23951 -108.304L-12.7092 -95.3554C-14.2648 -89.5497 -20.2324 -86.1043 -26.0381 -87.66C-31.8438 -89.2156 -35.2891 -95.1831 -33.7335 -100.989L-30.2638 -113.938ZM-30.3583 -71.5361C-24.5526 -69.9804 -21.1072 -64.0129 -22.6629 -58.2072L-25.2915 -48.3967C-26.8472 -42.591 -32.8147 -39.1457 -38.6204 -40.7013C-44.4261 -42.2569 -47.8715 -48.2245 -46.3159 -54.0302L-43.6872 -63.8406C-42.1315 -69.6463 -36.164 -73.0917 -30.3583 -71.5361Z" fill="black" stroke="white" stroke-width="0.713793" stroke-linecap="round" stroke-linejoin="round"/>
<path opacity="0.724138" fill-rule="evenodd" clip-rule="evenodd" d="M-64.0049 -135.437C-58.1992 -133.882 -54.7538 -127.914 -56.3094 -122.108L-72.3616 -62.2008C-77.4174 -43.3323 -66.2199 -23.9377 -47.3514 -18.8819C-28.4829 -13.8261 -9.08834 -25.0235 -4.03255 -43.8921L12.0195 -103.8C13.5752 -109.605 19.5427 -113.051 25.3484 -111.495C31.1541 -109.94 34.5995 -103.972 33.0439 -98.1663L16.9918 -38.2586C8.82473 -7.77865 -22.5049 10.3095 -52.9849 2.14242C-83.4648 -6.02465 -101.553 -37.3543 -93.3859 -67.8343L-77.3337 -127.742C-75.7781 -133.548 -69.8106 -136.993 -64.0049 -135.437ZM-32.3639 -117.575C-24.1968 -148.055 7.1328 -166.143 37.6128 -157.976C68.0927 -149.809 86.1809 -118.479 78.0139 -87.9994L61.4906 -26.3351C59.935 -20.5294 53.9674 -17.084 48.1617 -18.6397C42.356 -20.1954 38.9107 -26.1629 40.4663 -31.9686L56.9895 -93.6328C62.0454 -112.501 50.8478 -131.896 31.9793 -136.952C13.1108 -142.008 -6.28376 -130.81 -11.3396 -111.942L-14.8092 -98.9927C-16.3649 -93.187 -22.3324 -89.7416 -28.1381 -91.2972C-33.9438 -92.8529 -37.3892 -98.8204 -35.8336 -104.626L-32.3639 -117.575ZM-32.4584 -75.1734C-26.6527 -73.6177 -23.2073 -67.6502 -24.7629 -61.8445L-27.3916 -52.034C-28.9472 -46.2283 -34.9148 -42.783 -40.7205 -44.3386C-46.5262 -45.8942 -49.9716 -51.8618 -48.4159 -57.6675L-45.7872 -67.4779C-44.2316 -73.2836 -38.2641 -76.729 -32.4584 -75.1734Z" fill="black" stroke="white" stroke-width="0.734483" stroke-linecap="round" stroke-linejoin="round"/>
<path opacity="0.758621" fill-rule="evenodd" clip-rule="evenodd" d="M-66.1048 -139.075C-60.2991 -137.519 -56.8537 -131.551 -58.4093 -125.746L-74.4615 -65.8381C-79.5173 -46.9696 -68.3198 -27.575 -49.4513 -22.5192C-30.5828 -17.4634 -11.1883 -28.6608 -6.13247 -47.5294L9.91963 -107.437C11.4753 -113.243 17.4428 -116.688 23.2485 -115.132C29.0542 -113.577 32.4996 -107.609 30.944 -101.804L14.8919 -41.896C6.72482 -11.416 -24.6048 6.6722 -55.0848 -1.4949C-85.5647 -9.66197 -103.653 -40.9917 -95.4858 -71.4716L-79.4337 -131.379C-77.878 -137.185 -71.9105 -140.63 -66.1048 -139.075ZM-34.4638 -121.212C-26.2967 -151.692 5.03289 -169.781 35.5128 -161.613C65.9928 -153.446 84.081 -122.117 75.914 -91.6367L59.3907 -29.9724C57.8351 -24.1667 51.8675 -20.7214 46.0618 -22.277C40.2561 -23.8327 36.8108 -29.8003 38.3664 -35.6059L54.8896 -97.2702C59.9454 -116.139 48.7479 -135.533 29.8794 -140.589C11.0108 -145.645 -8.38368 -134.448 -13.4395 -115.579L-16.9092 -102.63C-18.4648 -96.8243 -24.4323 -93.3789 -30.238 -94.9346C-36.0438 -96.4902 -39.4891 -102.458 -37.9335 -108.263L-34.4638 -121.212ZM-34.5583 -78.8107C-28.7526 -77.2551 -25.3072 -71.2875 -26.8628 -65.4818L-29.4915 -55.6714C-31.0472 -49.8656 -37.0147 -46.4203 -42.8204 -47.9759C-48.6261 -49.5315 -52.0715 -55.4991 -50.5159 -61.3048L-47.8872 -71.1152C-46.3315 -76.9209 -40.364 -80.3663 -34.5583 -78.8107Z" fill="black" stroke="white" stroke-width="0.755172" stroke-linecap="round" stroke-linejoin="round"/>
<path opacity="0.793103" fill-rule="evenodd" clip-rule="evenodd" d="M-68.2048 -142.712C-62.3991 -141.156 -58.9538 -135.189 -60.5094 -129.383L-76.5616 -69.4755C-81.6174 -50.6069 -70.4199 -31.2123 -51.5514 -26.1565C-32.6828 -21.1007 -13.2883 -32.2982 -8.23254 -51.1667L7.81957 -111.074C9.3752 -116.88 15.3427 -120.325 21.1484 -118.77C26.9542 -117.214 30.3995 -111.247 28.8439 -105.441L12.7918 -45.5333C4.62475 -15.0533 -26.7049 3.03488 -57.1848 -5.13222C-87.6648 -13.2993 -105.753 -44.629 -97.5859 -75.1089L-81.5337 -135.016C-79.9781 -140.822 -74.0105 -144.268 -68.2048 -142.712ZM-36.5639 -124.85C-28.3968 -155.33 2.93282 -173.418 33.4128 -165.251C63.8927 -157.084 81.9809 -125.754 73.8139 -95.2741L57.2907 -33.6097C55.735 -27.804 49.7674 -24.3587 43.9617 -25.9143C38.156 -27.47 34.7107 -33.4376 36.2664 -39.2433L52.7896 -100.907C57.8454 -119.776 46.6479 -139.171 27.7793 -144.226C8.91078 -149.282 -10.4837 -138.085 -15.5396 -119.216L-19.0092 -106.267C-20.5649 -100.462 -26.5324 -97.0162 -32.3381 -98.5719C-38.1438 -100.128 -41.5892 -106.095 -40.0336 -111.901L-36.5639 -124.85ZM-36.6584 -82.448C-30.8527 -80.8924 -27.4073 -74.9248 -28.9629 -69.1191L-31.5916 -59.3087C-33.1472 -53.503 -39.1148 -50.0576 -44.9205 -51.6132C-50.7262 -53.1689 -54.1715 -59.1364 -52.6159 -64.9421L-49.9872 -74.7526C-48.4316 -80.5583 -42.4641 -84.0036 -36.6584 -82.448Z" fill="black" stroke="white" stroke-width="0.775862" stroke-linecap="round" stroke-linejoin="round"/>
<path opacity="0.827586" fill-rule="evenodd" clip-rule="evenodd" d="M-70.3049 -146.349C-64.4992 -144.794 -61.0538 -138.826 -62.6094 -133.02L-78.6616 -73.1128C-83.7174 -54.2443 -72.5199 -34.8496 -53.6514 -29.7938C-34.7829 -24.738 -15.3884 -35.9355 -10.3326 -54.804L5.71953 -114.712C7.27516 -120.517 13.2427 -123.963 19.0484 -122.407C24.8541 -120.851 28.2995 -114.884 26.7439 -109.078L10.6918 -49.1706C2.52471 -18.6906 -28.8049 -0.602441 -59.2849 -8.76954C-89.7648 -16.9366 -107.853 -48.2663 -99.686 -78.7462L-83.6338 -138.654C-82.0781 -144.46 -76.1106 -147.905 -70.3049 -146.349ZM-38.6639 -128.487C-30.4968 -158.967 0.832784 -177.055 31.3127 -168.888C61.7927 -160.721 79.8809 -129.391 71.7139 -98.9114L55.1906 -37.247C53.635 -31.4413 47.6674 -27.996 41.8617 -29.5517C36.056 -31.1073 32.6107 -37.0749 34.1663 -42.8806L50.6895 -104.545C55.7453 -123.413 44.5478 -142.808 25.6793 -147.864C6.81074 -152.92 -12.5838 -141.722 -17.6396 -122.854L-21.1093 -109.905C-22.6649 -104.099 -28.6324 -100.654 -34.4381 -102.209C-40.2439 -103.765 -43.6892 -109.732 -42.1336 -115.538L-38.6639 -128.487ZM-38.7584 -86.0853C-32.9527 -84.5297 -29.5073 -78.5622 -31.0629 -72.7564L-33.6916 -62.946C-35.2473 -57.1403 -41.2148 -53.6949 -47.0205 -55.2505C-52.8262 -56.8062 -56.2716 -62.7737 -54.716 -68.5794L-52.0873 -78.3899C-50.5316 -84.1956 -44.5641 -87.6409 -38.7584 -86.0853Z" fill="black" stroke="white" stroke-width="0.796552" stroke-linecap="round" stroke-linejoin="round"/>
<path opacity="0.862069" fill-rule="evenodd" clip-rule="evenodd" d="M-72.4048 -149.987C-66.5991 -148.431 -63.1538 -142.463 -64.7094 -136.658L-80.7616 -76.75C-85.8174 -57.8815 -74.6199 -38.4869 -55.7514 -33.4311C-36.8828 -28.3753 -17.4883 -39.5727 -12.4325 -58.4413L3.61958 -118.349C5.17521 -124.155 11.1428 -127.6 16.9485 -126.044C22.7542 -124.489 26.1996 -118.521 24.6439 -112.715L8.59181 -52.8079C0.424767 -22.3279 -30.9049 -4.2397 -61.3848 -12.4068C-91.8648 -20.5739 -109.953 -51.9036 -101.786 -82.3835L-85.7337 -142.291C-84.1781 -148.097 -78.2105 -151.542 -72.4048 -149.987ZM-40.7639 -132.124C-32.5968 -162.604 -1.26716 -180.692 29.2128 -172.525C59.6927 -164.358 77.781 -133.029 69.6139 -102.549L53.0907 -40.8843C51.535 -35.0786 45.5674 -31.6333 39.7617 -33.1889C33.956 -34.7446 30.5107 -40.7121 32.0664 -46.5178L48.5896 -108.182C53.6454 -127.051 42.4479 -146.445 23.5793 -151.501C4.71079 -156.557 -14.6837 -145.359 -19.7395 -126.491L-23.2092 -113.542C-24.7648 -107.736 -30.7324 -104.291 -36.5381 -105.846C-42.3438 -107.402 -45.7892 -113.37 -44.2335 -119.175L-40.7639 -132.124ZM-40.8583 -89.7226C-35.0526 -88.167 -31.6073 -82.1994 -33.1629 -76.3937L-35.7916 -66.5833C-37.3472 -60.7775 -43.3147 -57.3322 -49.1205 -58.8878C-54.9262 -60.4434 -58.3715 -66.411 -56.8159 -72.2167L-54.1872 -82.0271C-52.6316 -87.8328 -46.664 -91.2782 -40.8583 -89.7226Z" fill="black" stroke="white" stroke-width="0.817241" stroke-linecap="round" stroke-linejoin="round"/>
<path opacity="0.896552" fill-rule="evenodd" clip-rule="evenodd" d="M-74.5049 -153.624C-68.6992 -152.068 -65.2538 -146.101 -66.8095 -140.295L-82.8616 -80.3874C-87.9174 -61.5188 -76.72 -42.1242 -57.8514 -37.0684C-38.9829 -32.0126 -19.5884 -43.2101 -14.5326 -62.0786L1.51952 -121.986C3.07515 -127.792 9.04269 -131.237 14.8484 -129.682C20.6541 -128.126 24.0995 -122.159 22.5438 -116.353L6.49174 -56.4452C-1.6753 -25.9652 -33.0049 -7.87702 -63.4849 -16.0441C-93.9648 -24.2112 -112.053 -55.5409 -103.886 -86.0208L-87.8338 -145.928C-86.2781 -151.734 -80.3106 -155.179 -74.5049 -153.624ZM-42.8639 -135.762C-34.6968 -166.242 -3.36723 -184.33 27.1127 -176.163C57.5927 -167.996 75.6809 -136.666 67.5139 -106.186L50.9906 -44.5216C49.4349 -38.7159 43.4674 -35.2706 37.6617 -36.8262C31.856 -38.3819 28.4106 -44.3495 29.9663 -50.1552L46.4895 -111.819C51.5453 -130.688 40.3478 -150.083 21.4793 -155.138C2.61073 -160.194 -16.7838 -148.997 -21.8396 -130.128L-25.3093 -117.179C-26.8649 -111.374 -32.8325 -107.928 -38.6382 -109.484C-44.4439 -111.039 -47.8892 -117.007 -46.3336 -122.813L-42.8639 -135.762ZM-42.9584 -93.3599C-37.1527 -91.8043 -33.7073 -85.8367 -35.2629 -80.031L-37.8916 -70.2206C-39.4473 -64.4149 -45.4148 -60.9695 -51.2205 -62.5251C-57.0262 -64.0808 -60.4716 -70.0483 -58.916 -75.854L-56.2873 -85.6645C-54.7316 -91.4702 -48.7641 -94.9155 -42.9584 -93.3599Z" fill="black" stroke="white" stroke-width="0.837931" stroke-linecap="round" stroke-linejoin="round"/>
<path opacity="0.931035" fill-rule="evenodd" clip-rule="evenodd" d="M-76.6048 -157.261C-70.7991 -155.706 -67.3537 -149.738 -68.9094 -143.932L-84.9616 -84.0247C-90.0173 -65.1562 -78.8199 -45.7616 -59.9514 -40.7058C-41.0828 -35.6499 -21.6883 -46.8474 -16.6325 -65.7159L-0.580397 -125.624C0.975232 -131.429 6.94278 -134.875 12.7485 -133.319C18.5542 -131.763 21.9996 -125.796 20.4439 -119.99L4.39183 -60.0825C-3.77521 -29.6025 -35.1048 -11.5143 -65.5848 -19.6814C-96.0647 -27.8485 -114.153 -59.1782 -105.986 -89.6581L-89.9337 -149.566C-88.3781 -155.371 -82.4105 -158.817 -76.6048 -157.261ZM-44.9638 -139.399C-36.7967 -169.879 -5.46714 -187.967 25.0128 -179.8C55.4928 -171.633 73.581 -140.303 65.4139 -109.823L48.8907 -48.1589C47.335 -42.3532 41.3675 -38.9079 35.5618 -40.4636C29.7561 -42.0192 26.3107 -47.9868 27.8664 -53.7925L44.3896 -115.457C49.4454 -134.325 38.2479 -153.72 19.3794 -158.776C0.510813 -163.832 -18.8837 -152.634 -23.9395 -133.766L-27.4092 -120.817C-28.9648 -115.011 -34.9324 -111.565 -40.7381 -113.121C-46.5438 -114.677 -49.9891 -120.644 -48.4335 -126.45L-44.9638 -139.399ZM-45.0583 -96.9972C-39.2526 -95.4416 -35.8072 -89.4741 -37.3629 -83.6683L-39.9916 -73.8579C-41.5472 -68.0522 -47.5147 -64.6068 -53.3204 -66.1624C-59.1261 -67.7181 -62.5715 -73.6856 -61.0159 -79.4913L-58.3872 -89.3018C-56.8316 -95.1075 -50.864 -98.5529 -45.0583 -96.9972Z" fill="black" stroke="white" stroke-width="0.858621" stroke-linecap="round" stroke-linejoin="round"/>
<path opacity="0.965517" fill-rule="evenodd" clip-rule="evenodd" d="M-78.7049 -160.898C-72.8992 -159.343 -69.4538 -153.375 -71.0094 -147.57L-87.0616 -87.662C-92.1174 -68.7935 -80.92 -49.3988 -62.0514 -44.343C-43.1829 -39.2872 -23.7884 -50.4847 -18.7326 -69.3532L-2.68047 -129.261C-1.12484 -135.067 4.8427 -138.512 10.6484 -136.956C16.4541 -135.401 19.8995 -129.433 18.3439 -123.627L2.29174 -63.7198C-5.87531 -33.2398 -37.2049 -15.1516 -67.6849 -23.3187C-98.1648 -31.4858 -116.253 -62.8155 -108.086 -93.2954L-92.0338 -153.203C-90.4781 -159.009 -84.5106 -162.454 -78.7049 -160.898ZM-47.0639 -143.036C-38.8968 -173.516 -7.56721 -191.604 22.9127 -183.437C53.3927 -175.27 71.4809 -143.941 63.3139 -113.461L46.7906 -51.7962C45.2349 -45.9906 39.2674 -42.5452 33.4617 -44.1009C27.656 -45.6566 24.2106 -51.6241 25.7663 -57.4298L42.2895 -119.094C47.3453 -137.963 36.1478 -157.357 17.2793 -162.413C-1.58926 -167.469 -20.9838 -156.271 -26.0396 -137.403L-29.5093 -124.454C-31.0649 -118.648 -37.0324 -115.203 -42.8382 -116.758C-48.6439 -118.314 -52.0892 -124.282 -50.5336 -130.087L-47.0639 -143.036ZM-47.1584 -100.635C-41.3527 -99.0789 -37.9073 -93.1114 -39.4629 -87.3057L-42.0916 -77.4952C-43.6473 -71.6895 -49.6148 -68.2441 -55.4205 -69.7997C-61.2262 -71.3554 -64.6716 -77.3229 -63.116 -83.1286L-60.4873 -92.9391C-58.9316 -98.7448 -52.9641 -102.19 -47.1584 -100.635Z" fill="black" stroke="white" stroke-width="0.87931" stroke-linecap="round" stroke-linejoin="round"/>
<path fill-rule="evenodd" clip-rule="evenodd" d="M-80.8047 -164.536C-74.999 -162.98 -71.5537 -157.013 -73.1093 -151.207L-89.1615 -91.2993C-94.2173 -72.4308 -83.0198 -53.0362 -64.1513 -47.9804C-45.2827 -42.9246 -25.8882 -54.122 -20.8324 -72.9905L-4.78032 -132.898C-3.22469 -138.704 2.74286 -142.149 8.54856 -140.594C14.3543 -139.038 17.7996 -133.07 16.244 -127.265L0.191907 -67.3571C-7.97514 -36.8771 -39.3048 -18.789 -69.7847 -26.9561C-100.265 -35.1231 -118.353 -66.4528 -110.186 -96.9328L-94.1336 -156.84C-92.578 -162.646 -86.6104 -166.091 -80.8047 -164.536ZM-49.1638 -146.674C-40.9967 -177.154 -9.66706 -195.242 20.8129 -187.075C51.2928 -178.908 69.3811 -147.578 61.214 -117.098L44.6908 -55.4336C43.1351 -49.6279 37.1675 -46.1825 31.3618 -47.7382C25.5561 -49.2939 22.1108 -55.2614 23.6665 -61.0671L40.1897 -122.731C45.2455 -141.6 34.048 -160.995 15.1794 -166.05C-3.68911 -171.106 -23.0836 -159.909 -28.1394 -141.04L-31.6091 -128.091C-33.1648 -122.285 -39.1323 -118.84 -44.938 -120.396C-50.7437 -121.951 -54.1891 -127.919 -52.6334 -133.725L-49.1638 -146.674ZM-49.2582 -104.272C-43.4525 -102.716 -40.0072 -96.7487 -41.5628 -90.943L-44.1915 -81.1325C-45.7471 -75.3268 -51.7146 -71.8814 -57.5204 -73.4371C-63.3261 -74.9927 -66.7714 -80.9602 -65.2158 -86.766L-62.5871 -96.5764C-61.0315 -102.382 -55.0639 -105.827 -49.2582 -104.272Z" fill="black" stroke="white" stroke-width="0.9" stroke-linecap="round" stroke-linejoin="round"/>
</g>
<g filter="url(#filter0_f_1818_5537)">
<ellipse rx="102.529" ry="185.624" transform="matrix(0.313484 0.949593 -0.987013 0.160641 167.705 12.1023)" fill="#1F50FF"/>
</g>
<g filter="url(#filter1_f_1818_5537)">
<ellipse rx="165.547" ry="226.834" transform="matrix(0.313484 0.949593 -0.987013 0.160641 188.766 205.82)" fill="#7D5CFF"/>
</g>
<g filter="url(#filter2_f_1818_5537)">
<ellipse rx="205.309" ry="117.529" transform="matrix(0.313484 0.949593 -0.987013 0.160641 3.36366 27.8397)" fill="#67C1F3"/>
</g>
<path fill-rule="evenodd" clip-rule="evenodd" d="M123.787 79.7305C130.349 77.3919 139.258 76 148.991 76C158.7 76 167.608 77.392 174.176 79.7302C177.449 80.8956 180.272 82.3418 182.322 84.073C184.362 85.7963 185.892 88.0353 185.892 90.7304V110.433C185.892 110.435 185.892 110.436 185.892 110.438C185.892 110.441 185.892 110.443 185.892 110.446V130.141C185.892 130.142 185.892 130.144 185.892 130.145C185.892 130.148 185.892 130.151 185.892 130.153V149.853C185.892 152.541 184.357 154.773 182.32 156.491C180.272 158.218 177.451 159.665 174.178 160.834C167.611 163.178 158.702 164.583 148.991 164.583C139.256 164.583 130.346 163.178 123.785 160.834C120.514 159.665 117.698 158.217 115.653 156.489C113.619 154.77 112.09 152.538 112.09 149.853V90.7304C112.09 88.0381 113.613 85.7994 115.651 84.0747C117.698 82.3427 120.516 80.8961 123.787 79.7305ZM116.916 98.3325V110.434C116.916 110.435 116.916 110.437 116.916 110.438C116.916 111.153 117.315 112.16 118.768 113.388C120.21 114.606 122.441 115.813 125.409 116.874C131.324 118.988 139.659 120.342 148.991 120.342C158.298 120.342 166.633 118.988 172.555 116.873C175.527 115.813 177.763 114.606 179.209 113.386C180.665 112.159 181.064 111.154 181.066 110.442C181.066 110.441 181.066 110.439 181.066 110.438L181.066 98.3261C179.179 99.6375 176.827 100.766 174.178 101.711C167.611 104.056 158.702 105.461 148.991 105.461C139.256 105.461 130.346 104.056 123.785 101.711C121.143 100.767 118.798 99.6412 116.916 98.3325ZM181.066 118.034C179.179 119.345 176.827 120.473 174.178 121.419C167.611 123.763 158.702 125.168 148.991 125.168C139.256 125.168 130.346 123.763 123.785 121.419C121.143 120.475 118.798 119.349 116.916 118.04V130.141C116.916 130.143 116.916 130.144 116.916 130.145C116.916 130.86 117.315 131.867 118.768 133.095C120.21 134.314 122.441 135.521 125.409 136.581C131.324 138.695 139.659 140.049 148.991 140.049C158.298 140.049 166.633 138.695 172.555 136.581C175.527 135.52 177.763 134.313 179.209 133.093C180.665 131.866 181.064 130.861 181.066 130.15C181.066 130.148 181.066 130.147 181.066 130.145L181.066 118.034ZM181.066 137.741C179.179 139.053 176.827 140.181 174.178 141.126C167.611 143.471 158.702 144.876 148.991 144.876C139.256 144.876 130.346 143.471 123.785 141.126C121.143 140.182 118.798 139.056 116.916 137.748V149.853C116.916 150.568 117.315 151.575 118.768 152.803C120.21 154.021 122.441 155.228 125.409 156.289C131.324 158.403 139.659 159.757 148.991 159.757C158.298 159.757 166.633 158.403 172.555 156.289C175.527 155.228 177.763 154.021 179.209 152.801C180.667 151.571 181.066 150.565 181.066 149.853V137.741ZM116.916 90.7304C116.916 91.4451 117.315 92.452 118.768 93.6801C120.21 94.8989 122.441 96.1055 125.409 97.1662C131.324 99.2802 139.659 100.634 148.991 100.634C158.298 100.634 166.633 99.2803 172.555 97.166C175.527 96.105 177.763 94.898 179.209 93.6784C180.667 92.4489 181.066 91.4423 181.066 90.7304C181.066 90.0013 180.662 88.9885 179.208 87.7603C177.763 86.54 175.529 85.3349 172.557 84.277C166.635 82.1687 158.3 80.8263 148.991 80.8263C139.657 80.8263 131.322 82.1689 125.407 84.2768C122.439 85.3344 120.21 86.5391 118.769 87.7586C117.32 88.9854 116.916 89.9985 116.916 90.7304Z" fill="white"/>
<path d="M194.137 109.784H204.393C206.392 109.784 208.013 108.164 208.013 106.165V96.5119C208.013 94.5128 209.634 92.8922 211.633 92.8922H241.797M194.137 130.296H204.393C206.392 130.296 208.013 131.917 208.013 133.916V143.569C208.013 145.568 209.634 147.188 211.633 147.188H227.318M194.137 120.644H229.128" stroke="url(#paint0_linear_1818_5537)" stroke-width="3.61975" stroke-linecap="round" stroke-linejoin="round"/>
<path d="M105.453 109.784H95.5488C93.5497 109.784 91.929 108.164 91.929 106.165V96.5119C91.929 94.5128 90.3084 92.8922 88.3093 92.8922H59M105.453 130.296H95.5488C93.5497 130.296 91.929 131.917 91.929 133.916V143.569C91.929 145.568 90.3084 147.188 88.3093 147.188H73.1124M105.453 120.644H71.3484" stroke="url(#paint1_linear_1818_5537)" stroke-width="3.61975" stroke-linecap="round" stroke-linejoin="round"/>
</g>
<defs>
<filter id="filter0_f_1818_5537" x="-169.469" y="-240.882" width="674.349" height="505.969" filterUnits="userSpaceOnUse" color-interpolation-filters="sRGB">
<feFlood flood-opacity="0" result="BackgroundImageFix"/>
<feBlend mode="normal" in="SourceGraphic" in2="BackgroundImageFix" result="shape"/>
<feGaussianBlur stdDeviation="75.5663" result="effect1_foregroundBlur_1818_5537"/>
</filter>
<filter id="filter1_f_1818_5537" x="-192.242" y="-106.719" width="762.016" height="625.078" filterUnits="userSpaceOnUse" color-interpolation-filters="sRGB">
<feFlood flood-opacity="0" result="BackgroundImageFix"/>
<feBlend mode="normal" in="SourceGraphic" in2="BackgroundImageFix" result="shape"/>
<feGaussianBlur stdDeviation="75.5663" result="effect1_foregroundBlur_1818_5537"/>
</filter>
<filter id="filter2_f_1818_5537" x="-280.454" y="-319.178" width="567.636" height="694.036" filterUnits="userSpaceOnUse" color-interpolation-filters="sRGB">
<feFlood flood-opacity="0" result="BackgroundImageFix"/>
<feBlend mode="normal" in="SourceGraphic" in2="BackgroundImageFix" result="shape"/>
<feGaussianBlur stdDeviation="75.5663" result="effect1_foregroundBlur_1818_5537"/>
</filter>
<linearGradient id="paint0_linear_1818_5537" x1="225.508" y1="120.644" x2="194.137" y2="120.644" gradientUnits="userSpaceOnUse">
<stop stop-color="white"/>
<stop offset="1" stop-color="white" stop-opacity="0"/>
</linearGradient>
<linearGradient id="paint1_linear_1818_5537" x1="74.8765" y1="120.644" x2="105.453" y2="120.644" gradientUnits="userSpaceOnUse">
<stop stop-color="white"/>
<stop offset="1" stop-color="white" stop-opacity="0"/>
</linearGradient>
<clipPath id="clip0_1818_5537">
<rect width="300" height="240" fill="white"/>
</clipPath>
</defs>
</svg>
