<svg width="56" height="56" viewBox="0 0 56 56" fill="none" xmlns="http://www.w3.org/2000/svg">
<rect x="0.5" y="0.5" width="55" height="55" rx="7.5" fill="white"/>
<path d="M36.8759 22.2219C37.1058 22.0292 37.4224 22.0065 37.7099 22.0006C38.2831 22.0006 38.8559 21.9988 39.4291 22.0015C39.6917 22.0097 39.9742 22.006 40.2069 22.1466C40.3765 22.25 40.455 22.4487 40.4853 22.6373C40.532 22.9257 40.5139 23.2192 40.5175 23.5103C40.5184 26.4826 40.5175 29.4553 40.5194 32.4276C40.9874 32.4339 41.4563 32.4153 41.9243 32.4389C42.2191 32.4579 42.561 32.56 42.693 32.8516C42.8141 33.1409 42.7946 33.5273 42.5529 33.7504C42.3216 33.955 41.9951 33.9853 41.6998 33.9908C40.3556 33.9903 39.011 33.9921 37.6664 33.9899C37.329 33.9826 36.9213 33.9169 36.7403 33.594C36.5838 33.2788 36.621 32.8239 36.9276 32.6108C37.1553 32.4539 37.4428 32.4353 37.7104 32.4289C38.128 32.4262 38.5452 32.4285 38.9629 32.428C38.9629 29.473 38.9629 26.5184 38.9629 23.5638C38.499 23.5597 38.0351 23.5706 37.5711 23.5579C37.2623 23.5411 36.9013 23.4591 36.7408 23.1647C36.5938 22.8677 36.616 22.4514 36.8759 22.2219Z" fill="#0F6498"/>
<path d="M15.9244 25.3623C16.304 25.2177 16.7176 25.2281 17.1171 25.2226C17.9629 25.2213 18.8082 25.2208 19.654 25.2226C19.951 25.229 20.2817 25.2503 20.5148 25.4576C20.7624 25.6907 20.7805 26.0984 20.634 26.3904C20.459 26.7006 20.0694 26.7723 19.7429 26.7827C18.8055 26.7881 17.8681 26.7827 16.9307 26.7854C16.577 26.7822 16.2568 26.9704 15.9924 27.1899C15.6323 27.4951 15.2704 27.7985 14.9108 28.1056C14.7562 28.2362 14.6396 28.4239 14.6451 28.633C14.6423 29.2829 14.6423 29.9336 14.6451 30.5835C14.6392 30.7912 14.7539 30.9799 14.909 31.1096C15.2509 31.4016 15.597 31.6901 15.9394 31.9817C16.1344 32.1476 16.3489 32.3005 16.5951 32.3794C16.806 32.4501 17.0314 32.4302 17.25 32.4324C18.0808 32.4334 18.9116 32.4302 19.7424 32.4338C20.0676 32.4438 20.4558 32.5141 20.6322 32.8216C20.7846 33.1213 20.7624 33.5481 20.4939 33.7771C20.2472 33.978 19.9111 33.9893 19.6077 33.9952C18.6862 33.9939 17.7647 34.0002 16.8436 33.9911C16.4332 33.9893 16.0074 33.9403 15.6496 33.7236C15.2147 33.4628 14.8496 33.1054 14.455 32.7903C14.0696 32.4542 13.6269 32.1599 13.3585 31.7136C13.1666 31.4034 13.1068 31.0357 13.0791 30.6783V28.531C13.1072 28.2316 13.148 27.9264 13.2814 27.653C13.4415 27.3074 13.7213 27.0385 14.0088 26.7968C14.3548 26.5065 14.7036 26.2199 15.0505 25.9301C15.3194 25.7102 15.5947 25.4852 15.9244 25.3623Z" fill="#0F6498"/>
<path d="M21.876 25.3201C22.1826 25.1473 22.6452 25.16 22.8733 25.4566C23.0433 25.6897 23.0601 25.9912 23.0755 26.2697C23.1263 27.7359 23.1749 29.2021 23.2247 30.6682C23.2397 31.0338 23.2393 31.4011 23.2955 31.763C23.3259 31.9476 23.3857 32.1526 23.5581 32.2519C23.9136 32.4623 24.3431 32.4201 24.7385 32.4251C24.9345 32.4315 25.1358 32.397 25.3023 32.2886C26.0759 31.8043 26.8482 31.3177 27.6201 30.8301C27.621 29.4011 27.6201 27.9722 27.6206 26.5432C27.6242 26.2089 27.5992 25.8493 27.7675 25.5468C27.9675 25.1872 28.4813 25.1414 28.8174 25.3214C29.1239 25.5065 29.1752 25.9015 29.1815 26.2275C29.1842 28.4189 29.1779 30.6106 29.1784 32.802C29.1774 33.06 29.1892 33.3294 29.0895 33.5729C28.9094 34.036 28.2192 34.1013 27.8822 33.7811C27.5979 33.4704 27.6369 33.0151 27.631 32.6247C27.2228 32.8922 26.8147 33.1602 26.4061 33.4269C26.0959 33.6269 25.7725 33.8192 25.4143 33.9176C25.119 34.0029 24.8093 33.9693 24.5068 33.9761C24.0528 33.9679 23.5807 34.0205 23.1486 33.8478C22.6751 33.6591 22.2352 33.3376 21.9767 32.8918C21.7336 32.4673 21.7191 31.9648 21.6992 31.4891C21.6425 29.7644 21.5831 28.0402 21.5296 26.316C21.5273 25.9654 21.5518 25.5328 21.876 25.3201Z" fill="#0F6498"/>
<path d="M30.3109 25.3671C30.6501 25.1408 31.2065 25.1938 31.412 25.5775C31.6315 25.9861 31.5412 26.4673 31.563 26.9113C32.0165 26.5403 32.4628 26.1616 32.9181 25.7934C33.2559 25.5317 33.6342 25.2786 34.0713 25.2401C34.3452 25.2306 34.6192 25.2392 34.8935 25.236C35.2754 25.2414 35.6659 25.2083 36.0382 25.3163C36.6168 25.4714 37.088 25.9076 37.376 26.4224C37.6277 26.8836 37.674 27.4287 37.6286 27.9439C37.6023 28.2092 37.5084 28.5089 37.2522 28.6359C36.9311 28.7879 36.4871 28.7321 36.2717 28.43C36.0926 28.1901 36.0817 27.8781 36.079 27.5911C36.0808 27.3212 35.9656 27.0224 35.7112 26.8976C35.4708 26.7815 35.196 26.801 34.9366 26.7961C34.7412 26.8015 34.5434 26.7811 34.3502 26.8142C34.0931 26.8691 33.8913 27.05 33.6927 27.2101C32.9816 27.7983 32.2687 28.3838 31.5594 28.9738C31.5621 30.2509 31.5594 31.5275 31.5607 32.8045C31.5585 33.088 31.5598 33.3877 31.4274 33.6467C31.2374 34.0285 30.7004 34.0843 30.3567 33.8934C30.0537 33.7038 30.0057 33.3116 29.9993 32.985C29.9966 30.7624 29.9984 28.5398 30.0002 26.3172C30.0079 25.9847 30.0243 25.5884 30.3109 25.3671Z" fill="#0F6498"/>
<rect x="0.5" y="0.5" width="55" height="55" rx="7.5" stroke="#E1E4F3"/>
</svg>
