<svg width="56" height="56" viewBox="0 0 56 56" fill="none" xmlns="http://www.w3.org/2000/svg">
<rect x="0.5" y="0.5" width="55" height="55" rx="7.5" fill="white"/>
<path d="M27.9801 41.5C27.6185 41.5 27.2594 41.4052 26.9424 41.2227L23.6393 39.2671C23.146 38.9913 23.3867 38.8937 23.5494 38.8375C24.2072 38.6071 24.3407 38.5551 25.0428 38.1564C25.1166 38.1143 25.2132 38.1291 25.2887 38.1737L27.8263 39.6795C27.9179 39.729 28.0479 39.729 28.1329 39.6795L38.0269 33.9685C38.1185 33.9164 38.178 33.81 38.178 33.701V22.2838C38.178 22.1699 38.1185 22.0684 38.0249 22.0114L28.1349 16.3053C28.0432 16.2508 27.9219 16.2508 27.8302 16.3053L17.9422 22.0114C17.8463 22.0659 17.7854 22.1724 17.7854 22.2814V33.6985C17.7854 33.8075 17.8448 33.9115 17.9389 33.9635L20.6483 35.5287C22.1194 36.2643 23.0184 35.3975 23.0184 34.5257V23.2571C23.0184 23.0962 23.1448 22.9723 23.3057 22.9723H24.5589C24.7149 22.9723 24.8437 23.0962 24.8437 23.2571V34.5306C24.8437 36.4921 23.7738 37.619 21.9139 37.619C21.3418 37.619 20.891 37.619 19.6329 36.9998L17.0375 35.5039C16.7219 35.3198 16.4601 35.0563 16.278 34.7395C16.0959 34.4228 16 34.0639 15.9998 33.6985V22.2814C15.9998 21.5384 16.396 20.8449 17.0375 20.4784L26.9414 14.7649C27.568 14.4107 28.4001 14.4107 29.0217 14.7649L38.9133 20.4809C39.2288 20.6644 39.4907 20.9275 39.6727 21.2439C39.8548 21.5602 39.9508 21.9188 39.951 22.2838V33.701C39.951 34.4415 39.5522 35.1325 38.9133 35.5039L29.0217 41.2175C28.7046 41.4 28.345 41.4957 27.9791 41.4948" fill="#689F63"/>
<path d="M31.0378 33.6322C26.7087 33.6322 25.801 31.6449 25.801 29.9782C25.801 29.8197 25.9288 29.6934 26.0875 29.6934H27.3654C27.5066 29.6934 27.6255 29.7962 27.6478 29.9356C27.841 31.2378 28.4155 31.8946 31.0333 31.8946C33.1186 31.8946 34.0052 31.4235 34.0052 30.3177C34.0052 29.6812 33.7526 29.2082 30.5132 28.8912C27.8038 28.6237 26.1296 28.0269 26.1296 25.8598C26.1296 23.8637 27.8137 22.6749 30.6346 22.6749C33.8021 22.6749 35.3723 23.7745 35.5704 26.1372C35.5737 26.1769 35.5687 26.2169 35.5558 26.2546C35.5428 26.2923 35.5222 26.3269 35.4952 26.3563C35.4682 26.3856 35.4354 26.409 35.3989 26.425C35.3624 26.441 35.323 26.4493 35.2831 26.4493H33.9978C33.8641 26.4493 33.7477 26.3552 33.7204 26.2264C33.4108 24.8568 32.6629 24.4185 30.6296 24.4185C28.3536 24.4185 28.0886 25.211 28.0886 25.8054C28.0886 26.5261 28.4007 26.7366 31.4717 27.1427C34.5129 27.5464 35.9568 28.116 35.9568 30.2533C35.9568 32.408 34.1588 33.6438 31.0234 33.6438L31.0378 33.6322Z" fill="#689F63"/>
<rect x="0.5" y="0.5" width="55" height="55" rx="7.5" stroke="#E1E4F3"/>
</svg>
