<svg width="56" height="56" viewBox="0 0 56 56" fill="none" xmlns="http://www.w3.org/2000/svg">
<rect x="0.5" y="0.5" width="55" height="55" rx="7.5" fill="white"/>
<path d="M21.3853 23.8695C22.878 28.4343 23.4435 36.5773 27.8084 36.5773C28.1408 36.5773 28.4765 36.5448 28.8135 36.4807C24.8456 35.5555 24.3753 27.501 21.9541 23.33C21.7642 23.5025 21.5757 23.6823 21.3853 23.8695Z" fill="url(#paint0_linear_1549_1870)"/>
<path d="M21.9551 23.3292C24.3763 27.5003 24.8466 35.5547 28.8145 36.4799C29.1262 36.4226 29.4386 36.336 29.7517 36.2268C26.1901 34.4816 25.2056 26.6603 22.456 22.8949C22.2894 23.0335 22.1223 23.1787 21.9551 23.3292Z" fill="url(#paint1_linear_1549_1870)"/>
<path d="M25.4428 20.8484C25.111 20.8484 24.7746 20.8809 24.437 20.945C23.5537 21.1115 22.6565 21.4918 21.752 22.0673C21.9991 22.3111 22.2342 22.5902 22.4553 22.8946C23.3752 22.1313 24.2891 21.5671 25.1997 21.2281C25.5413 21.1015 25.8817 21.0063 26.2234 20.9437C25.977 20.881 25.7172 20.8484 25.4428 20.8484Z" fill="#14559A"/>
<path d="M32.5311 34.6193C32.8954 34.3296 33.2604 34.0091 33.6261 33.6595C32.1094 29.116 31.5666 20.8564 27.171 20.8564C26.8566 20.8564 26.5395 20.8858 26.2231 20.9444C30.227 21.9402 30.7399 30.6514 32.5311 34.6193Z" fill="url(#paint2_linear_1549_1870)"/>
<path d="M26.2245 20.9436C25.9781 20.881 25.7183 20.8484 25.4438 20.8484L27.1724 20.8547C26.858 20.8547 26.5409 20.884 26.2245 20.9433" fill="#3092C4"/>
<path d="M32.4536 35.5839C32.2818 35.42 32.1186 35.2402 31.9581 35.0483C31.2187 35.5719 30.482 35.9689 29.75 36.2273C30.0104 36.3546 30.2835 36.4492 30.5733 36.5078C30.7977 36.5536 31.0302 36.5771 31.2747 36.5771C32.096 36.5771 32.7454 36.4798 33.2983 36.2147C32.9939 36.0501 32.7148 35.837 32.4536 35.5839Z" fill="#1969BC"/>
<path d="M25.2002 21.2289C28.7865 23.1046 29.0982 31.5987 31.9597 35.0477C32.1516 34.9125 32.3414 34.7693 32.5312 34.618C30.7401 30.6501 30.2279 21.9383 26.2247 20.9431C25.8829 21.0071 25.5419 21.1017 25.2002 21.2289Z" fill="url(#paint3_linear_1549_1870)"/>
<path d="M22.4546 22.895C25.2042 26.6605 26.1887 34.4817 29.7503 36.2269C30.4824 35.9685 31.2191 35.5715 31.9584 35.0479C29.0969 31.5989 28.7852 23.1048 25.1989 21.2291C24.2883 21.5675 23.3745 22.1317 22.4546 22.895Z" fill="url(#paint4_linear_1549_1870)"/>
<path d="M19.6266 23.7602C19.1956 24.7347 18.7554 26.0156 18.2231 27.6875C19.2816 26.1961 20.3367 24.9112 21.3858 23.8701C21.2412 23.4258 21.086 23.0162 20.9188 22.6511C20.4899 22.9795 20.0576 23.3492 19.6266 23.7602Z" fill="url(#paint5_linear_1549_1870)"/>
<path d="M21.3016 22.3691C21.175 22.4597 21.0478 22.5523 20.9199 22.6502C21.0871 23.0153 21.2416 23.4249 21.3862 23.8692C21.5766 23.6827 21.7658 23.5022 21.955 23.3296C21.7518 22.9806 21.536 22.6582 21.3016 22.3691Z" fill="#2B74B1"/>
<path d="M21.7524 22.0691C21.6018 22.1644 21.452 22.2649 21.3008 22.3702C21.5352 22.6592 21.7511 22.9816 21.9549 23.3314C22.1221 23.1801 22.2893 23.0343 22.4558 22.8964C22.2346 22.592 21.9995 22.3129 21.7524 22.0691Z" fill="#125A9E"/>
<path d="M46.2138 20.5018C44.1855 28.3238 39.9491 34.6064 36.3975 36.1903H36.3908C36.3262 36.2196 36.2622 36.2463 36.1989 36.2722C36.1902 36.2775 36.1823 36.2782 36.1756 36.2813C36.1569 36.2889 36.1396 36.2947 36.121 36.3021C36.1123 36.3074 36.1043 36.3091 36.0964 36.3123C36.0664 36.323 36.0371 36.332 36.0078 36.3437C35.9951 36.349 35.9831 36.3523 35.9711 36.3565C35.9578 36.3618 35.9424 36.3667 35.9271 36.3709C35.9138 36.3762 35.8999 36.38 35.8845 36.3858C35.8718 36.3911 35.8585 36.3934 35.8466 36.3986C35.8206 36.4061 35.7966 36.4125 35.7706 36.4215C35.7599 36.4215 35.75 36.4273 35.7387 36.4301C35.7227 36.4354 35.7047 36.4392 35.6873 36.444C35.6753 36.4492 35.6654 36.451 35.6527 36.4536C35.6347 36.4589 35.6147 36.4638 35.5968 36.468C35.5728 36.4733 35.5515 36.4782 35.5288 36.4829C35.6893 36.5422 35.8565 36.5722 36.037 36.5722C39.4048 36.5722 42.8005 30.5367 48.419 20.5H46.2129L46.2138 20.5018Z" fill="url(#paint6_linear_1549_1870)"/>
<path d="M17.4914 21.1672C17.4935 21.1672 17.4962 21.1619 17.4975 21.1619C17.5001 21.1619 17.5042 21.1619 17.5055 21.1566H17.5098C17.5284 21.1503 17.5457 21.1428 17.5644 21.1359C17.5691 21.1359 17.5716 21.1359 17.5751 21.1306C17.5798 21.1306 17.5844 21.1253 17.5891 21.1246C17.6091 21.1183 17.629 21.1108 17.6477 21.1039H17.6509C17.6955 21.0906 17.7368 21.074 17.7801 21.0586C17.7862 21.0586 17.7921 21.0533 17.7994 21.0533C17.8174 21.0475 17.836 21.041 17.8547 21.0368C17.8634 21.0315 17.872 21.0315 17.88 21.0287C17.8993 21.0229 17.918 21.0165 17.9359 21.0122C17.944 21.0122 17.9513 21.0069 17.9572 21.0064C18.0192 20.9894 18.0805 20.9734 18.1424 20.9584C18.1511 20.9584 18.1584 20.9532 18.1677 20.9526C18.1857 20.9474 18.2024 20.9446 18.2217 20.942C18.2297 20.9367 18.239 20.9367 18.2483 20.9339C18.2663 20.9286 18.2836 20.9281 18.3029 20.9237H18.3156C18.3529 20.9162 18.3909 20.9099 18.4282 20.903H18.4508C18.4688 20.8977 18.4848 20.8972 18.5028 20.8939C18.5127 20.8939 18.5228 20.8886 18.5321 20.8886C18.5487 20.8886 18.5654 20.8833 18.582 20.8811C18.5907 20.8811 18.5993 20.8811 18.6094 20.8758C18.6486 20.8705 18.6893 20.8684 18.7306 20.8651C18.614 20.8539 18.4941 20.8464 18.3722 20.8464C14.5795 20.8464 9.35398 27.8837 7 36.9972H7.45361C8.20696 35.6537 8.88372 34.3828 9.50252 33.1898C11.1511 26.7347 14.5089 22.3325 17.4917 21.1662" fill="url(#paint7_linear_1549_1870)"/>
<path d="M19.627 23.7588C20.0579 23.3478 20.4902 22.9781 20.9192 22.6498C20.8213 22.4353 20.72 22.2368 20.6114 22.0549C20.2644 22.4759 19.9474 23.0314 19.627 23.7588Z" fill="#0D82CA"/>
<path d="M19.9386 21.2194C20.1864 21.4273 20.4082 21.713 20.6113 22.0554C20.6753 21.9768 20.7399 21.9042 20.8072 21.8363C20.5254 21.5732 20.221 21.3573 19.8906 21.1948C19.904 21.2022 19.9173 21.2082 19.9311 21.214C19.9311 21.214 19.9364 21.2193 19.9386 21.2193" fill="#0D82CA"/>
<path d="M9.50146 33.1904C12.9598 26.5261 14.5984 22.3084 17.4906 21.1667C14.5085 22.3338 11.15 26.736 9.50146 33.1904Z" fill="url(#paint8_linear_1549_1870)"/>
<path d="M20.8057 21.8374C20.7384 21.906 20.6745 21.978 20.6099 22.0566C20.7185 22.2384 20.8197 22.4362 20.9183 22.6514C21.0462 22.5535 21.1734 22.4609 21.2999 22.3703C21.1434 22.1771 20.9782 21.998 20.8057 21.8374Z" fill="#127BCA"/>
<path d="M11.072 36.9679C11.0507 36.9732 11.0294 36.9732 11.0094 36.9754H10.9974C10.9794 36.9754 10.9608 36.9807 10.9442 36.9807H10.9355C10.8922 36.986 10.8495 36.986 10.8082 36.9893H10.7949C14.2952 36.8913 15.8952 35.1388 16.6892 32.597C17.2927 30.67 17.7883 29.0467 18.2225 27.6846C16.7565 29.7481 15.2837 32.208 13.803 34.9636C13.089 36.2918 12.0032 36.8467 11.072 36.9653" fill="url(#paint9_linear_1549_1870)"/>
<path d="M11.0728 36.9669C12.004 36.8483 13.0897 36.2941 13.8037 34.9653C15.2845 32.2103 16.7579 29.7498 18.2226 27.6862C18.7555 26.0136 19.1951 24.7334 19.6267 23.7589C16.7073 26.5379 13.7764 31.1586 11.0728 36.9656" fill="url(#paint10_linear_1549_1870)"/>
<path d="M9.50203 33.1913C8.88326 34.3843 8.20651 35.6552 7.45312 36.9987H8.77269C8.9472 35.6645 9.19499 34.3922 9.50203 33.1919" fill="#05A1E6"/>
<path d="M18.6092 20.8787C18.5986 20.8787 18.5906 20.884 18.5813 20.884C18.5653 20.8893 18.5486 20.8893 18.532 20.891C18.5221 20.891 18.5127 20.891 18.5027 20.8963C18.4847 20.9016 18.468 20.9021 18.4507 20.9054C18.4427 20.9054 18.4347 20.9054 18.4281 20.9107C18.3901 20.917 18.3528 20.924 18.3155 20.9304H18.3028C18.2835 20.9357 18.2662 20.9384 18.2482 20.9411C18.2388 20.9463 18.2295 20.9463 18.2209 20.9485C18.2029 20.9537 18.1849 20.956 18.1676 20.9591C18.1582 20.9644 18.151 20.9644 18.1423 20.965C18.0803 20.9799 18.019 20.9959 17.9571 21.0129C17.9505 21.0129 17.9438 21.0182 17.9358 21.0192C17.9171 21.0245 17.8991 21.0299 17.8798 21.0358C17.8718 21.041 17.8625 21.041 17.8545 21.0432C17.8359 21.0484 17.8172 21.0538 17.7992 21.0597C17.792 21.0597 17.7859 21.065 17.7792 21.065C17.7366 21.0809 17.6947 21.0969 17.6507 21.1103C17.632 21.1161 17.6121 21.1236 17.5921 21.1305C17.584 21.1358 17.5767 21.137 17.5675 21.1407C17.5488 21.1465 17.5302 21.154 17.5128 21.1609C17.5062 21.1662 17.4995 21.1667 17.4949 21.1695C14.6027 22.3112 12.9641 26.5289 9.50574 33.1932C9.19867 34.3935 8.95022 35.6657 8.77637 36.9999H8.96154C9.48309 36.9999 9.6303 36.9946 10.2305 36.9946H10.2611H10.3503H10.381H10.3897H10.4203H10.4376H10.4496H10.4736H10.5482H10.6228H10.6854H10.702H10.812C10.8532 36.9893 10.8959 36.9893 10.9392 36.986H10.9472C10.9652 36.986 10.9831 36.9808 11.0005 36.9808H11.0131C11.0324 36.9808 11.0544 36.9755 11.0757 36.9732C13.7794 31.1662 16.7102 26.5455 19.6297 23.7666C19.9507 23.0392 20.2671 22.4837 20.6135 22.0634C20.411 21.721 20.1892 21.4346 19.9414 21.2267C19.9414 21.2267 19.9347 21.2267 19.9342 21.2214C19.9201 21.2156 19.9069 21.2086 19.8929 21.2017C19.8788 21.1942 19.8669 21.1884 19.8523 21.181C19.8396 21.1757 19.8249 21.1687 19.8123 21.1618C19.795 21.1565 19.781 21.149 19.7657 21.142C19.753 21.1368 19.7417 21.1314 19.729 21.1261C19.703 21.1159 19.6771 21.1053 19.6524 21.0941C19.6411 21.0888 19.6305 21.086 19.6197 21.0818C19.6018 21.0754 19.5811 21.0669 19.5625 21.0589C19.5531 21.0536 19.5425 21.0526 19.5318 21.0487C19.5045 21.0396 19.4779 21.0301 19.4526 21.0216H19.446C19.4153 21.0114 19.3853 21.004 19.354 20.9954C19.3468 20.9902 19.3407 20.9902 19.3334 20.9891C19.3061 20.9816 19.2821 20.9742 19.2561 20.9673C19.2495 20.9673 19.2435 20.962 19.2382 20.962C19.1756 20.9455 19.111 20.9322 19.0457 20.9199C19.0389 20.9199 19.0324 20.9146 19.0257 20.9146C18.9977 20.9093 18.9704 20.9045 18.9424 20.9013C18.9357 20.896 18.9318 20.896 18.9258 20.896C18.8925 20.8907 18.8599 20.8869 18.8272 20.8832H18.8099C18.7833 20.8779 18.7586 20.8774 18.734 20.8746C18.692 20.8799 18.652 20.8822 18.6127 20.8858" fill="url(#paint11_linear_1549_1870)"/>
<path d="M38.2914 24.8323C37.626 26.9638 37.0871 28.7223 36.6182 30.169C38.4439 27.6565 40.2424 24.4959 41.9549 20.8484C39.9573 21.4758 38.8915 22.9119 38.2914 24.8323Z" fill="url(#paint12_linear_1549_1870)"/>
<path d="M36.6749 36.0572C36.5817 36.1047 36.4884 36.1498 36.3965 36.1905C39.9481 34.6065 44.1845 28.3239 46.2127 20.502H45.8017C41.1417 28.8261 39.643 34.3987 36.6749 36.0572Z" fill="url(#paint13_linear_1549_1870)"/>
<path d="M34.3563 35.3589C35.129 34.4157 35.7584 32.8125 36.6177 30.17C35.6265 31.5315 34.6288 32.7019 33.6303 33.6564C33.6303 33.6617 33.6303 33.6617 33.625 33.665C33.8428 34.3177 34.0819 34.8939 34.3544 35.3588" fill="#079AE1"/>
<path d="M34.3566 35.3585C34.0935 35.6796 33.8151 35.9241 33.5053 36.1052C33.4374 36.1447 33.3688 36.1818 33.2988 36.2158C33.6259 36.3923 33.9829 36.5102 34.3825 36.5575C34.4411 36.5633 34.4991 36.5687 34.5597 36.5729H34.5704C34.5976 36.5729 34.6264 36.5729 34.6557 36.5782H34.6674H34.7547H34.8487H34.878H34.9446C34.9553 36.5782 34.9664 36.5782 34.9771 36.5729C34.9979 36.5729 35.0197 36.5729 35.041 36.5677H35.0485H35.0725C35.0944 36.5677 35.1183 36.5624 35.1418 36.5601H35.1471C35.1541 36.5601 35.1615 36.5549 35.1684 36.5549C35.1929 36.5496 35.2185 36.5473 35.2423 36.5437H35.2642C35.2914 36.5384 35.3195 36.5351 35.3474 36.5298H35.3527H35.3608C35.4167 36.5191 35.4713 36.5085 35.5266 36.4946C35.0683 36.3268 34.6847 35.9311 34.3543 35.3676" fill="#1969BC"/>
<path d="M27.8081 36.5784C28.1405 36.5784 28.4762 36.5459 28.8133 36.4811C29.125 36.4245 29.4374 36.3379 29.7504 36.2286C30.0109 36.3559 30.284 36.4505 30.5731 36.5091C30.7975 36.5549 31.0307 36.5784 31.2752 36.5784H27.8081Z" fill="#1E5CB3"/>
<path d="M31.2748 36.5768C32.0954 36.5768 32.7455 36.4796 33.2978 36.2145C33.6248 36.391 33.9818 36.5089 34.3815 36.5562C34.4401 36.562 34.4981 36.5674 34.5587 36.5717H34.5693C34.5965 36.5717 34.6253 36.5717 34.6546 36.5769H34.6669H34.7542H31.2725L31.2748 36.5768Z" fill="#1E5CB3"/>
<path d="M34.7573 36.5766H34.8519H34.8812H34.9472C34.9584 36.5766 34.969 36.5766 34.9797 36.5713C35.0005 36.5713 35.0223 36.5713 35.0443 36.5661H35.0513H35.0758C35.0977 36.5661 35.1217 36.5608 35.1445 36.5587H35.1503C35.1573 36.5587 35.1641 36.5534 35.1711 36.5534C35.1956 36.5481 35.2212 36.546 35.245 36.5422C35.253 36.5422 35.2594 36.5422 35.2679 36.5369C35.2951 36.5316 35.3232 36.5288 35.3512 36.5236H35.3565H35.3645C35.4205 36.5129 35.4751 36.5023 35.5303 36.4884C35.6908 36.5477 35.8581 36.5777 36.0385 36.5777L34.7583 36.5829L34.7573 36.5766Z" fill="#1D60B5"/>
<path d="M33.6267 33.6638V33.6586C33.261 34.0082 32.896 34.3287 32.5316 34.6184C32.3411 34.7696 32.1513 34.9128 31.9595 35.0481C32.12 35.2399 32.2832 35.4197 32.455 35.5836C32.7162 35.8367 32.9952 36.0499 33.2996 36.2144C33.3689 36.1802 33.4382 36.1431 33.5054 36.1038C33.8158 35.9226 34.0943 35.6782 34.3574 35.3571C34.0849 34.8922 33.8458 34.316 33.628 33.6632" fill="#175FAB"/>
<path d="M44.5015 20.502H42.7736H42.6017H42.4392H42.4329C42.321 20.5072 42.2124 20.5111 42.1052 20.5179C42.0546 20.6266 42.0026 20.7351 41.9526 20.8444C40.2401 24.4919 38.4416 27.6525 36.6159 30.165C35.7573 32.8074 35.1272 34.4107 34.3545 35.3539C34.6849 35.9174 35.0692 36.3137 35.5262 36.4816C35.5395 36.4763 35.5501 36.4763 35.5621 36.4735H35.5695C35.5776 36.4735 35.5861 36.4682 35.5948 36.4682C35.6135 36.463 35.6335 36.4597 35.6521 36.4539C35.6641 36.4486 35.6741 36.4481 35.6861 36.4442C35.7034 36.439 35.7214 36.4351 35.7374 36.4309C35.7481 36.4256 35.7587 36.4239 35.7693 36.4218C35.796 36.4132 35.82 36.4069 35.8453 36.3989C35.8573 36.3936 35.87 36.3893 35.8833 36.3861C35.8979 36.3808 35.9126 36.377 35.9259 36.3706C35.9413 36.3654 35.9565 36.3626 35.9699 36.3568C35.9819 36.3515 35.9945 36.3482 36.0058 36.3435C36.0358 36.3328 36.0651 36.3237 36.0951 36.312C36.1031 36.312 36.1111 36.3046 36.1198 36.3029C36.1377 36.2954 36.1564 36.2896 36.1744 36.2816C36.181 36.2763 36.189 36.2758 36.1977 36.273C36.2603 36.2469 36.3249 36.2203 36.3895 36.1911H36.3962C36.4881 36.1506 36.5814 36.1052 36.674 36.0579C39.6428 34.3993 41.1415 28.8268 45.8015 20.5026H44.5L44.5015 20.502Z" fill="url(#paint14_linear_1549_1870)"/>
<path d="M18.7305 20.8667C18.7379 20.8667 18.7445 20.8667 18.7518 20.872C18.7697 20.872 18.7877 20.872 18.8057 20.8778H18.8237C18.8564 20.8831 18.889 20.8859 18.9223 20.8906C18.9284 20.8906 18.9337 20.8906 18.9389 20.8959C18.9662 20.9012 18.9942 20.9055 19.0222 20.9097C19.0283 20.9097 19.0362 20.915 19.0429 20.915C19.1068 20.9278 19.1721 20.9411 19.2347 20.9577C19.2407 20.9577 19.2467 20.9629 19.252 20.9629C19.2787 20.9693 19.3027 20.9773 19.3293 20.9848C19.3374 20.9848 19.3433 20.9901 19.3506 20.9912C19.382 20.9993 19.4112 21.0072 19.4419 21.0174C19.4432 21.0174 19.445 21.0174 19.4486 21.0226C19.4746 21.0305 19.5012 21.0407 19.5285 21.0498C19.5392 21.0551 19.5492 21.0573 19.5592 21.06C19.5778 21.068 19.5985 21.0759 19.6165 21.0834C19.6271 21.0834 19.6378 21.0908 19.6491 21.0946C19.6737 21.1058 19.6997 21.1159 19.725 21.1266C19.7383 21.1319 19.7496 21.1378 19.7623 21.1426C19.777 21.1501 19.7923 21.157 19.8082 21.1623C19.8216 21.1686 19.8362 21.1756 19.8488 21.1815C19.8629 21.189 19.8761 21.1948 19.8895 21.2023C20.2199 21.3648 20.5243 21.5813 20.8061 21.8437C20.91 21.7345 21.0185 21.6365 21.1311 21.5486C20.515 21.1117 19.8169 20.8625 19.0116 20.8625C18.9183 20.8625 18.8251 20.8678 18.7305 20.8748" fill="#7DCBEC"/>
<path d="M20.8071 21.8364C20.9797 21.9969 21.1448 22.1761 21.3014 22.3692C21.4526 22.264 21.6024 22.1628 21.753 22.0682C21.5558 21.871 21.348 21.6938 21.1315 21.5413C21.0189 21.6285 20.911 21.7271 20.8071 21.8364Z" fill="#5EC5ED"/>
<path d="M18.7304 20.8672C18.825 20.8592 18.9183 20.8558 19.0115 20.8558C19.8168 20.8558 20.5149 21.105 21.131 21.5413C21.7811 21.0284 22.5671 20.8492 23.6589 20.8492H18.3721C18.494 20.8492 18.6132 20.8565 18.7304 20.8672Z" fill="url(#paint15_linear_1549_1870)"/>
<path d="M23.6592 20.8501C22.5674 20.8501 21.7815 21.0293 21.1313 21.5422C21.3472 21.6947 21.555 21.8719 21.7521 22.0691C22.6574 21.4936 23.5539 21.1126 24.4378 20.9461C24.7749 20.8828 25.1113 20.8501 25.443 20.8501H23.6592Z" fill="url(#paint16_linear_1549_1870)"/>
<path d="M36.6181 30.1706C37.0877 28.7225 37.6252 26.9647 38.292 24.8325C38.8928 22.9115 39.9566 21.4754 41.9542 20.8487C42.007 20.7414 42.0568 20.6308 42.1081 20.5222C38.8515 20.7174 37.3295 22.374 36.5635 24.8272C35.224 29.1102 34.4127 31.8865 33.6313 33.6556C34.6292 32.7018 35.627 31.5308 36.6181 30.1706Z" fill="url(#paint17_linear_1549_1870)"/>
<path d="M41.3953 35.4366H41.0263V36.5836H40.8757V35.4366H40.5054V35.3H41.3953V35.4366Z" fill="black"/>
<path d="M42.9068 36.5836H42.7569V35.7217C42.7569 35.6537 42.7622 35.5705 42.7692 35.4725C42.7537 35.5312 42.7409 35.5718 42.7292 35.5978L42.2923 36.5836H42.219L41.7807 35.6051C41.7679 35.5779 41.7551 35.5338 41.7413 35.4725H41.736C41.7413 35.5242 41.743 35.6078 41.743 35.7237V36.5836H41.5991V35.3H41.7976L42.1913 36.1959C42.2211 36.2632 42.2397 36.3152 42.2492 36.3498H42.255C42.2811 36.2792 42.3025 36.2266 42.317 36.1919L42.7186 35.3H42.9078V36.5836H42.9068Z" fill="black"/>
<rect x="0.5" y="0.5" width="55" height="55" rx="7.5" stroke="#E1E4F3"/>
<defs>
<linearGradient id="paint0_linear_1549_1870" x1="25.0992" y1="20.7446" x2="25.0992" y2="40.5018" gradientUnits="userSpaceOnUse">
<stop stop-color="#0994DC"/>
<stop offset="0.350006" stop-color="#66CEF5"/>
<stop offset="0.846161" stop-color="#127BCA"/>
<stop offset="1" stop-color="#127BCA"/>
</linearGradient>
<linearGradient id="paint1_linear_1549_1870" x1="25.8535" y1="20.2436" x2="25.8535" y2="40.5044" gradientUnits="userSpaceOnUse">
<stop stop-color="#0E76BC"/>
<stop offset="0.360001" stop-color="#36AEE8"/>
<stop offset="0.846161" stop-color="#00ADEF"/>
<stop offset="1" stop-color="#00ADEF"/>
</linearGradient>
<linearGradient id="paint2_linear_1549_1870" x1="29.9246" y1="36.1224" x2="29.9246" y2="20.0012" gradientUnits="userSpaceOnUse">
<stop stop-color="#1C63B7"/>
<stop offset="0.5" stop-color="#33BDF2"/>
<stop offset="1" stop-color="#33BDF2" stop-opacity="0.419608"/>
</linearGradient>
<linearGradient id="paint3_linear_1549_1870" x1="28.8658" y1="18.1906" x2="28.8658" y2="39.2265" gradientUnits="userSpaceOnUse">
<stop stop-color="#166AB8"/>
<stop offset="0.399994" stop-color="#36AEE8"/>
<stop offset="0.846161" stop-color="#0798DD"/>
<stop offset="1" stop-color="#0798DD"/>
</linearGradient>
<linearGradient id="paint4_linear_1549_1870" x1="27.2064" y1="18.3014" x2="27.2064" y2="40.6703" gradientUnits="userSpaceOnUse">
<stop stop-color="#124379"/>
<stop offset="0.389999" stop-color="#1487CB"/>
<stop offset="0.780228" stop-color="#165197"/>
<stop offset="1" stop-color="#165197"/>
</linearGradient>
<linearGradient id="paint5_linear_1549_1870" x1="18.2232" y1="25.1693" x2="21.3858" y2="25.1693" gradientUnits="userSpaceOnUse">
<stop stop-color="#33BDF2" stop-opacity="0.698039"/>
<stop offset="1" stop-color="#1DACD8"/>
</linearGradient>
<linearGradient id="paint6_linear_1549_1870" x1="41.9752" y1="35.7182" x2="41.9752" y2="20.0139" gradientUnits="userSpaceOnUse">
<stop stop-color="#136AB4"/>
<stop offset="0.6" stop-color="#59CAF5" stop-opacity="0.54902"/>
<stop offset="1" stop-color="#59CAF5" stop-opacity="0.235294"/>
</linearGradient>
<linearGradient id="paint7_linear_1549_1870" x1="6.99991" y1="28.9218" x2="18.7305" y2="28.9218" gradientUnits="userSpaceOnUse">
<stop stop-color="#05A1E6" stop-opacity="0.247059"/>
<stop offset="1" stop-color="#05A1E6"/>
</linearGradient>
<linearGradient id="paint8_linear_1549_1870" x1="13.4959" y1="36.1139" x2="13.4959" y2="20.034" gradientUnits="userSpaceOnUse">
<stop stop-color="#318ED5"/>
<stop offset="1" stop-color="#38A7E4"/>
</linearGradient>
<linearGradient id="paint9_linear_1549_1870" x1="14.5086" y1="36.1705" x2="14.5086" y2="20.5399" gradientUnits="userSpaceOnUse">
<stop stop-color="#05A1E6"/>
<stop offset="1" stop-color="#05A1E6" stop-opacity="0.54902"/>
</linearGradient>
<linearGradient id="paint10_linear_1549_1870" x1="15.3498" y1="36.9683" x2="15.3498" y2="23.7603" gradientUnits="userSpaceOnUse">
<stop stop-color="#1959A6"/>
<stop offset="0.5" stop-color="#05A1E6"/>
<stop offset="0.917587" stop-color="#7EC5EA"/>
<stop offset="1" stop-color="#7EC5EA"/>
</linearGradient>
<linearGradient id="paint11_linear_1549_1870" x1="15.8555" y1="36.1239" x2="11.3783" y2="22.4414" gradientUnits="userSpaceOnUse">
<stop stop-color="#165096"/>
<stop offset="1" stop-color="#0D82CA"/>
</linearGradient>
<linearGradient id="paint12_linear_1549_1870" x1="39.2863" y1="28.0251" x2="39.2863" y2="20.5409" gradientUnits="userSpaceOnUse">
<stop stop-color="#05A1E6"/>
<stop offset="0.873627" stop-color="#0495D6"/>
<stop offset="1" stop-color="#0495D6"/>
</linearGradient>
<linearGradient id="paint13_linear_1549_1870" x1="42.8029" y1="19.8491" x2="35.8276" y2="35.3362" gradientUnits="userSpaceOnUse">
<stop stop-color="#38A7E4" stop-opacity="0.329412"/>
<stop offset="0.961533" stop-color="#0E88D3"/>
<stop offset="1" stop-color="#0E88D3"/>
</linearGradient>
<linearGradient id="paint14_linear_1549_1870" x1="40.0799" y1="20.4547" x2="40.0799" y2="36.7823" gradientUnits="userSpaceOnUse">
<stop stop-color="#168CD4"/>
<stop offset="0.5" stop-color="#1C87CC"/>
<stop offset="1" stop-color="#154B8D"/>
</linearGradient>
<linearGradient id="paint15_linear_1549_1870" x1="19.2536" y1="20.1186" x2="19.3243" y2="21.831" gradientUnits="userSpaceOnUse">
<stop stop-color="#97D6EE"/>
<stop offset="0.703293" stop-color="#55C1EA"/>
<stop offset="1" stop-color="#55C1EA"/>
</linearGradient>
<linearGradient id="paint16_linear_1549_1870" x1="21.4284" y1="21.9923" x2="21.7482" y2="20.1784" gradientUnits="userSpaceOnUse">
<stop stop-color="#7ACCEC"/>
<stop offset="1" stop-color="#3FB7ED"/>
</linearGradient>
<linearGradient id="paint17_linear_1549_1870" x1="37.8694" y1="21.3579" x2="37.8694" y2="37.3279" gradientUnits="userSpaceOnUse">
<stop stop-color="#1DA7E7"/>
<stop offset="1" stop-color="#37ABE7" stop-opacity="0"/>
</linearGradient>
</defs>
</svg>
