<svg width="40" height="40" viewBox="0 0 40 40" fill="none" xmlns="http://www.w3.org/2000/svg">
<rect x="0.5" y="0.5" width="39" height="39" rx="7.5" fill="white"/>
<path d="M21.1351 19.5206C22.1964 20.7425 20.8563 21.842 20.8563 21.842C20.8563 21.842 23.551 20.4509 22.3134 18.7089C21.1576 17.0844 20.2712 16.2773 25.0697 13.4944C25.0697 13.4944 17.5377 15.3755 21.1351 19.5206Z" fill="#EC2025"/>
<path d="M22.3156 9C22.3156 9 24.6016 11.2868 20.1474 14.8033C16.5755 17.6241 19.3329 19.2325 20.1459 21.0701C18.0609 19.189 16.5308 17.533 17.5573 15.9918C19.064 13.7294 23.2379 12.6325 22.3156 9Z" fill="#EC2025"/>
<path d="M17.2251 26.0149C17.2251 26.0149 16.3843 26.5039 17.8234 26.6693C19.5669 26.8682 20.4579 26.8397 22.3792 26.4761C22.3792 26.4761 22.8843 26.7928 23.5898 27.0671C19.2828 28.913 13.8421 26.9602 17.2251 26.0149Z" fill="#0D8AC7"/>
<path d="M16.6995 23.606C16.6995 23.606 15.7565 24.304 17.1967 24.453C19.0591 24.6451 20.5299 24.6608 23.0749 24.1708C23.0749 24.1708 23.4269 24.5276 23.9804 24.7228C18.773 26.2455 12.9728 24.8429 16.6995 23.606Z" fill="#0D8AC7"/>
<path d="M26.8329 27.7953C26.8329 27.7953 27.4551 28.3079 26.1477 28.7045C23.6616 29.4576 15.8003 29.6851 13.6165 28.7345C12.8315 28.393 14.3036 27.9191 14.7667 27.8196C15.2497 27.7149 15.5257 27.7344 15.5257 27.7344C14.6526 27.1194 9.88276 28.942 13.1028 29.464C21.8843 30.8881 29.1107 28.8227 26.8329 27.7953Z" fill="#0D8AC7"/>
<path d="M17.6302 21.1101C17.6302 21.1101 13.6315 22.0599 16.2142 22.4048C17.3047 22.5508 19.4785 22.5177 21.5034 22.3481C23.1583 22.2085 24.82 21.9117 24.82 21.9117C24.82 21.9117 24.2364 22.1616 23.8143 22.4498C19.7536 23.5178 11.9092 23.021 14.1675 21.9286C16.0774 21.0054 17.6302 21.1101 17.6302 21.1101Z" fill="#0D8AC7"/>
<path d="M24.8033 25.1191C28.9311 22.9741 27.0226 20.9128 25.6904 21.1905C25.3639 21.2585 25.2183 21.3174 25.2183 21.3174C25.2183 21.3174 25.3395 21.1275 25.5711 21.0453C28.2064 20.1188 30.2332 23.778 24.7203 25.2272C24.7203 25.2272 24.7842 25.1702 24.8033 25.1191Z" fill="#0D8AC7"/>
<path d="M18.0358 30.9306C21.998 31.1842 28.0824 30.7899 28.2265 28.9151C28.2265 28.9151 27.9495 29.6258 24.9519 30.1902C21.5701 30.8266 17.3991 30.7523 14.9253 30.3445C14.9253 30.3445 15.4317 30.7636 18.0358 30.9306Z" fill="#0D8AC7"/>
<rect x="0.5" y="0.5" width="39" height="39" rx="7.5" stroke="#E1E4F3"/>
</svg>
