<svg width="40" height="40" viewBox="0 0 40 40" fill="none" xmlns="http://www.w3.org/2000/svg">
<rect x="0.5" y="0.5" width="39" height="39" rx="7.5" fill="white"/>
<path d="M19.9866 29C19.7456 29 19.5062 28.9368 19.2948 28.8151L17.0928 27.5114C16.7639 27.3275 16.9244 27.2624 17.0329 27.225C17.4714 27.0714 17.5604 27.0367 18.0285 26.7709C18.0777 26.7429 18.1421 26.7528 18.1924 26.7825L19.8841 27.7863C19.9452 27.8194 20.0319 27.8194 20.0885 27.7863L26.6845 23.979C26.7456 23.9443 26.7852 23.8733 26.7852 23.8007V16.1892C26.7852 16.1133 26.7456 16.0456 26.6832 16.0076L20.0898 12.2036C20.0287 12.1672 19.9478 12.1672 19.8867 12.2036L13.2947 16.0076C13.2308 16.0439 13.1902 16.1149 13.1902 16.1876V23.799C13.1902 23.8717 13.2298 23.941 13.2925 23.9757L15.0988 25.0191C16.0795 25.5095 16.6789 24.9316 16.6789 24.3505V16.8381C16.6789 16.7308 16.7631 16.6482 16.8704 16.6482H17.7058C17.8099 16.6482 17.8957 16.7308 17.8957 16.8381V24.3538C17.8957 25.6614 17.1825 26.4126 15.9425 26.4126C15.5611 26.4126 15.2606 26.4126 14.4219 25.9999L12.6916 25.0026C12.4812 24.8799 12.3066 24.7042 12.1853 24.493C12.0639 24.2818 11.9999 24.0426 11.9998 23.799V16.1876C11.9998 15.6923 12.2639 15.23 12.6916 14.9856L19.2942 11.1766C19.7119 10.9405 20.2667 10.9405 20.6811 11.1766L27.2754 14.9873C27.4858 15.1096 27.6604 15.285 27.7817 15.4959C27.9031 15.7068 27.9671 15.9459 27.9672 16.1892V23.8007C27.9672 24.2943 27.7014 24.755 27.2754 25.0026L20.6811 28.8116C20.4697 28.9334 20.2299 28.9971 19.986 28.9966" fill="#689F63"/>
<path d="M22.0251 23.7548C19.139 23.7548 18.5339 22.43 18.5339 21.3188C18.5339 21.2131 18.6191 21.1289 18.7249 21.1289H19.5769C19.671 21.1289 19.7502 21.1974 19.7651 21.2904C19.8939 22.1585 20.2769 22.5964 22.0221 22.5964C23.4123 22.5964 24.0034 22.2824 24.0034 21.5452C24.0034 21.1208 23.835 20.8055 21.6754 20.5941C19.8691 20.4158 18.753 20.0179 18.753 18.5732C18.753 17.2425 19.8757 16.45 21.7563 16.45C23.868 16.45 24.9148 17.183 25.0469 18.7581C25.0491 18.7846 25.0457 18.8113 25.0371 18.8364C25.0285 18.8615 25.0147 18.8846 24.9967 18.9042C24.9787 18.9237 24.9569 18.9393 24.9325 18.95C24.9082 18.9607 24.8819 18.9662 24.8553 18.9662H23.9984C23.9093 18.9662 23.8317 18.9034 23.8135 18.8176C23.6071 17.9045 23.1085 17.6123 21.753 17.6123C20.2357 17.6123 20.059 18.1406 20.059 18.5369C20.059 19.0174 20.267 19.1577 22.3144 19.4285C24.3419 19.6976 25.3044 20.0774 25.3044 21.5022C25.3044 22.9387 24.1058 23.7625 22.0155 23.7625L22.0251 23.7548Z" fill="#689F63"/>
<rect x="0.5" y="0.5" width="39" height="39" rx="7.5" stroke="#E1E4F3"/>
</svg>
