<svg width="40" height="40" viewBox="0 0 40 40" fill="none" xmlns="http://www.w3.org/2000/svg">
<rect x="0.5" y="0.5" width="39" height="39" rx="7.5" fill="white"/>
<path d="M15.5903 17.2463C16.5855 20.2895 16.9625 25.7182 19.8724 25.7182C20.094 25.7182 20.3178 25.6965 20.5425 25.6537C17.8972 25.037 17.5837 19.6673 15.9696 16.8866C15.843 17.0016 15.7173 17.1215 15.5903 17.2463Z" fill="url(#paint0_linear_1502_1175)"/>
<path d="M15.9702 16.8861C17.5844 19.6668 17.8979 25.0364 20.5432 25.6532C20.751 25.6151 20.9593 25.5573 21.168 25.4845C18.7936 24.3211 18.1372 19.1069 16.3041 16.5966C16.1931 16.689 16.0817 16.7858 15.9702 16.8861Z" fill="url(#paint1_linear_1502_1175)"/>
<path d="M18.295 15.2323C18.0739 15.2323 17.8496 15.254 17.6245 15.2967C17.0356 15.4077 16.4375 15.6613 15.8345 16.0449C15.9992 16.2075 16.1559 16.3935 16.3034 16.5965C16.9166 16.0876 17.5259 15.7115 18.1329 15.4854C18.3607 15.401 18.5877 15.3376 18.8154 15.2958C18.6511 15.254 18.478 15.2323 18.295 15.2323Z" fill="#14559A"/>
<path d="M23.0207 24.4129C23.2636 24.2197 23.507 24.0061 23.7507 23.773C22.7396 20.7441 22.3777 15.2377 19.4473 15.2377C19.2377 15.2377 19.0264 15.2572 18.8154 15.2963C21.4847 15.9602 21.8266 21.7676 23.0207 24.4129Z" fill="url(#paint2_linear_1502_1175)"/>
<path d="M18.8163 15.2958C18.652 15.254 18.4789 15.2323 18.2959 15.2323L19.4482 15.2365C19.2386 15.2365 19.0273 15.2561 18.8163 15.2956" fill="#3092C4"/>
<path d="M22.9689 25.0559C22.8544 24.9466 22.7456 24.8267 22.6386 24.6989C22.1456 25.0479 21.6545 25.3125 21.1665 25.4848C21.3401 25.5697 21.5222 25.6327 21.7154 25.6718C21.865 25.7024 22.02 25.718 22.1829 25.718C22.7305 25.718 23.1634 25.6532 23.532 25.4764C23.3291 25.3667 23.143 25.2246 22.9689 25.0559Z" fill="#1969BC"/>
<path d="M18.1333 15.4859C20.5241 16.7364 20.732 22.3991 22.6397 24.6985C22.7675 24.6083 22.8941 24.5128 23.0207 24.412C21.8266 21.7668 21.4851 15.9588 18.8163 15.2954C18.5885 15.338 18.3611 15.4011 18.1333 15.4859Z" fill="url(#paint3_linear_1502_1175)"/>
<path d="M16.3032 16.5967C18.1363 19.107 18.7926 24.3212 21.167 25.4846C21.6551 25.3123 22.1462 25.0476 22.6391 24.6986C20.7314 22.3993 20.5236 16.7366 18.1328 15.4861C17.5257 15.7117 16.9165 16.0878 16.3032 16.5967Z" fill="url(#paint4_linear_1502_1175)"/>
<path d="M14.4176 17.1735C14.1303 17.8231 13.8367 18.6771 13.4819 19.7917C14.1875 18.7974 14.8909 17.9408 15.5903 17.2468C15.494 16.9505 15.3905 16.6775 15.2791 16.4341C14.9931 16.653 14.7049 16.8995 14.4176 17.1735Z" fill="url(#paint5_linear_1502_1175)"/>
<path d="M15.5342 16.2461C15.4498 16.3065 15.365 16.3682 15.2798 16.4335C15.3912 16.6768 15.4942 16.95 15.5906 17.2461C15.7176 17.1218 15.8437 17.0015 15.9698 16.8864C15.8344 16.6537 15.6905 16.4388 15.5342 16.2461Z" fill="#2B74B1"/>
<path d="M15.8348 16.046C15.7344 16.1095 15.6345 16.1766 15.5337 16.2467C15.69 16.4395 15.8339 16.6544 15.9698 16.8875C16.0812 16.7867 16.1927 16.6895 16.3037 16.5975C16.1563 16.3946 15.9995 16.2085 15.8348 16.046Z" fill="#125A9E"/>
<path d="M32.1423 15.0012C30.7901 20.2158 27.9659 24.4042 25.5982 25.4602H25.5937C25.5506 25.4798 25.508 25.4975 25.4658 25.5148C25.46 25.5183 25.4547 25.5188 25.4502 25.5209C25.4378 25.5259 25.4263 25.5298 25.4138 25.5347C25.408 25.5383 25.4027 25.5394 25.3974 25.5415C25.3774 25.5486 25.3579 25.5547 25.3383 25.5625C25.3299 25.566 25.3219 25.5682 25.3139 25.571C25.305 25.5745 25.2948 25.5778 25.2846 25.5806C25.2757 25.5841 25.2664 25.5867 25.2562 25.5906C25.2477 25.5941 25.2388 25.5956 25.2309 25.5991C25.2135 25.6041 25.1976 25.6083 25.1803 25.6144C25.1731 25.6144 25.1665 25.6182 25.1589 25.6201C25.1483 25.6236 25.1363 25.6261 25.1247 25.6293C25.1167 25.6328 25.1101 25.634 25.1016 25.6357C25.0896 25.6393 25.0763 25.6425 25.0643 25.6453C25.0484 25.6488 25.0341 25.6521 25.019 25.6553C25.1261 25.6948 25.2375 25.7148 25.3579 25.7148C27.603 25.7148 29.8668 21.6911 33.6125 15H32.1418L32.1423 15.0012Z" fill="url(#paint6_linear_1502_1175)"/>
<path d="M12.9943 15.4448C12.9957 15.4448 12.9974 15.4413 12.9983 15.4413C13.0001 15.4413 13.0028 15.4413 13.0037 15.4378H13.0065C13.0189 15.4335 13.0305 15.4285 13.0429 15.4239C13.0461 15.4239 13.0478 15.4239 13.05 15.4204C13.0532 15.4204 13.0563 15.4169 13.0594 15.4164C13.0727 15.4122 13.086 15.4072 13.0985 15.4026H13.1006C13.1303 15.3937 13.1579 15.3827 13.1867 15.3724C13.1908 15.3724 13.1947 15.3689 13.1996 15.3689C13.2116 15.365 13.224 15.3607 13.2364 15.3579C13.2422 15.3543 13.248 15.3543 13.2533 15.3525C13.2662 15.3486 13.2786 15.3443 13.2906 15.3415C13.296 15.3415 13.3008 15.338 13.3048 15.3376C13.3461 15.3262 13.387 15.3156 13.4283 15.3056C13.4341 15.3056 13.4389 15.3021 13.4451 15.3018C13.4571 15.2982 13.4682 15.2964 13.4811 15.2946C13.4865 15.2911 13.4927 15.2911 13.4989 15.2893C13.5109 15.2858 13.5224 15.2854 13.5353 15.2825H13.5437C13.5686 15.2775 13.5939 15.2733 13.6188 15.2686H13.6339C13.6459 15.2651 13.6565 15.2648 13.6685 15.2626C13.6751 15.2626 13.6818 15.2591 13.6881 15.2591C13.6991 15.2591 13.7103 15.2555 13.7214 15.254C13.7272 15.254 13.7329 15.254 13.7396 15.2505C13.7658 15.247 13.7929 15.2456 13.8204 15.2434C13.7427 15.2359 13.6627 15.231 13.5815 15.231C11.053 15.231 7.56932 19.9225 6 25.9981H6.30241C6.80464 25.1025 7.25581 24.2552 7.66835 23.4599C8.7674 19.1565 11.0059 16.2216 12.9944 15.4441" fill="url(#paint7_linear_1502_1175)"/>
<path d="M14.418 17.1725C14.7053 16.8986 14.9935 16.6521 15.2795 16.4332C15.2142 16.2902 15.1467 16.1579 15.0743 16.0366C14.8429 16.3173 14.6316 16.6876 14.418 17.1725Z" fill="#0D82CA"/>
<path d="M14.6257 15.4797C14.7909 15.6182 14.9388 15.8087 15.0742 16.037C15.1169 15.9846 15.1599 15.9362 15.2048 15.8909C15.017 15.7155 14.814 15.5716 14.5938 15.4633C14.6026 15.4682 14.6115 15.4721 14.6207 15.476C14.6207 15.476 14.6243 15.4796 14.6258 15.4796" fill="#0D82CA"/>
<path d="M7.66797 23.4603C9.97354 19.0174 11.0659 16.2056 12.9941 15.4445C11.006 16.2225 8.76702 19.1573 7.66797 23.4603Z" fill="url(#paint8_linear_1502_1175)"/>
<path d="M15.2038 15.8916C15.159 15.9374 15.1163 15.9853 15.0732 16.0377C15.1456 16.1589 15.2131 16.2908 15.2789 16.4343C15.3641 16.369 15.4489 16.3072 15.5333 16.2469C15.429 16.1181 15.3188 15.9986 15.2038 15.8916Z" fill="#127BCA"/>
<path d="M8.71453 25.9786C8.70032 25.9821 8.68611 25.9821 8.67279 25.9836H8.6648C8.65279 25.9836 8.64035 25.9871 8.62927 25.9871H8.62348C8.59464 25.9906 8.5662 25.9906 8.53867 25.9928H8.52979C10.8633 25.9275 11.93 24.7592 12.4593 23.0646C12.8616 21.78 13.192 20.6978 13.4815 19.7897C12.5042 21.1654 11.5223 22.8053 10.5352 24.6424C10.0591 25.5279 9.33532 25.8977 8.71452 25.9768" fill="url(#paint9_linear_1502_1175)"/>
<path d="M8.71533 25.978C9.33613 25.8989 10.06 25.5294 10.536 24.6435C11.5231 22.8069 12.5054 21.1665 13.4819 19.7908C13.8372 18.6757 14.1302 17.8223 14.418 17.1726C12.4717 19.0252 10.5178 22.1057 8.71533 25.9771" fill="url(#paint10_linear_1502_1175)"/>
<path d="M7.66818 23.4608C7.25567 24.2561 6.8045 25.1034 6.30225 25.9991H7.18195C7.2983 25.1096 7.46349 24.2614 7.66818 23.4612" fill="#05A1E6"/>
<path d="M13.7398 15.2525C13.7327 15.2525 13.7274 15.256 13.7212 15.256C13.7105 15.2595 13.6994 15.2595 13.6883 15.2607C13.6817 15.2607 13.6754 15.2607 13.6688 15.2642C13.6568 15.2677 13.6457 15.2681 13.6341 15.2703C13.6288 15.2703 13.6235 15.2703 13.619 15.2738C13.5937 15.278 13.5689 15.2827 13.544 15.2869H13.5355C13.5227 15.2904 13.5111 15.2923 13.4991 15.294C13.4929 15.2976 13.4867 15.2976 13.4809 15.299C13.4689 15.3025 13.4569 15.304 13.4454 15.3061C13.4391 15.3096 13.4343 15.3096 13.4285 15.31C13.3872 15.3199 13.3464 15.3306 13.3051 15.3419C13.3007 15.3419 13.2962 15.3455 13.2908 15.3462C13.2784 15.3497 13.2664 15.3533 13.2535 15.3572C13.2482 15.3607 13.242 15.3607 13.2367 15.3621C13.2242 15.3656 13.2118 15.3692 13.1998 15.3731C13.195 15.3731 13.1909 15.3766 13.1865 15.3766C13.1581 15.3873 13.1301 15.398 13.1008 15.4068C13.0884 15.4107 13.075 15.4157 13.0617 15.4203C13.0563 15.4238 13.0515 15.4246 13.0453 15.4271C13.0329 15.431 13.0204 15.436 13.0089 15.4406C13.0045 15.4441 13 15.4445 12.9969 15.4463C11.0688 16.2074 9.97639 19.0193 7.67082 23.4621C7.46611 24.2623 7.30047 25.1105 7.18457 25.9999H7.30802C7.65572 25.9999 7.75386 25.9964 8.15396 25.9964H8.17439H8.23389H8.25432H8.26011H8.28053H8.29208H8.30007H8.31606H8.3658H8.41553H8.45727H8.46836H8.54163C8.56916 25.9929 8.59758 25.9929 8.62644 25.9907H8.63177C8.64378 25.9907 8.65575 25.9872 8.6673 25.9872H8.67572C8.68858 25.9872 8.70325 25.9837 8.71746 25.9822C10.5199 22.1108 12.4738 19.0303 14.4201 17.1777C14.6341 16.6928 14.8451 16.3224 15.076 16.0423C14.941 15.814 14.7931 15.6231 14.6279 15.4845C14.6279 15.4845 14.6235 15.4845 14.6231 15.481C14.6138 15.4771 14.6049 15.4724 14.5956 15.4678C14.5862 15.4628 14.5782 15.4589 14.5685 15.454C14.5601 15.4504 14.5503 15.4458 14.5419 15.4412C14.5303 15.4377 14.521 15.4326 14.5108 15.428C14.5023 15.4245 14.4948 15.4209 14.4863 15.4174C14.469 15.4106 14.4517 15.4035 14.4353 15.3961C14.4277 15.3925 14.4206 15.3907 14.4135 15.3879C14.4015 15.3836 14.3877 15.3779 14.3753 15.3726C14.3691 15.3691 14.362 15.3684 14.3549 15.3658C14.3367 15.3598 14.3189 15.3534 14.302 15.3477H14.2976C14.2772 15.3409 14.2572 15.336 14.2363 15.3303C14.2315 15.3268 14.2275 15.3268 14.2226 15.3261C14.2044 15.3211 14.1884 15.3161 14.1711 15.3115C14.1667 15.3115 14.1626 15.308 14.1591 15.308C14.1174 15.297 14.0743 15.2881 14.0308 15.2799C14.0263 15.2799 14.0219 15.2764 14.0175 15.2764C13.9988 15.2729 13.9806 15.2696 13.962 15.2675C13.9575 15.264 13.9548 15.264 13.9509 15.264C13.9287 15.2605 13.9069 15.2579 13.8851 15.2555H13.8736C13.8558 15.252 13.8394 15.2516 13.823 15.2498C13.795 15.2533 13.7684 15.2548 13.7422 15.2572" fill="url(#paint11_linear_1502_1175)"/>
<path d="M26.8611 17.8882C26.4175 19.3092 26.0582 20.4815 25.7456 21.4461C26.9628 19.7711 28.1617 17.6639 29.3035 15.2323C27.9717 15.6506 27.2612 16.608 26.8611 17.8882Z" fill="url(#paint12_linear_1502_1175)"/>
<path d="M25.7833 25.3715C25.7211 25.4031 25.6589 25.4332 25.5977 25.4603C27.9654 24.4044 30.7896 20.216 32.1418 15.0013H31.8678C28.7612 20.5508 27.762 24.2658 25.7833 25.3715Z" fill="url(#paint13_linear_1502_1175)"/>
<path d="M24.2375 24.9059C24.7527 24.2771 25.1723 23.2083 25.7452 21.4467C25.0844 22.3543 24.4192 23.1346 23.7535 23.7709C23.7535 23.7744 23.7535 23.7744 23.75 23.7766C23.8952 24.2118 24.0546 24.5959 24.2363 24.9058" fill="#079AE1"/>
<path d="M24.2379 24.9056C24.0625 25.1197 23.8769 25.2827 23.6704 25.4035C23.6251 25.4297 23.5794 25.4545 23.5327 25.4772C23.7508 25.5948 23.9888 25.6734 24.2552 25.705C24.2942 25.7088 24.3329 25.7124 24.3733 25.7153H24.3804C24.3986 25.7153 24.4177 25.7153 24.4373 25.7188H24.4451H24.5033H24.5659H24.5855H24.6299C24.637 25.7188 24.6444 25.7188 24.6515 25.7153C24.6654 25.7153 24.68 25.7153 24.6942 25.7117H24.6992H24.7152C24.7297 25.7117 24.7457 25.7082 24.7614 25.7067H24.7649C24.7695 25.7067 24.7745 25.7032 24.7791 25.7032C24.7954 25.6997 24.8125 25.6982 24.8284 25.6957H24.843C24.8611 25.6922 24.8798 25.69 24.8985 25.6865H24.902H24.9073C24.9446 25.6794 24.9811 25.6723 25.0179 25.663C24.7124 25.5511 24.4566 25.2874 24.2363 24.9117" fill="#1969BC"/>
<path d="M19.8721 25.7189C20.0937 25.7189 20.3175 25.6972 20.5422 25.654C20.75 25.6163 20.9583 25.5585 21.167 25.4857C21.3406 25.5706 21.5227 25.6336 21.7154 25.6727C21.865 25.7032 22.0204 25.7189 22.1834 25.7189H19.8721Z" fill="#1E5CB3"/>
<path d="M22.1832 25.7179C22.7303 25.7179 23.1637 25.6531 23.5318 25.4763C23.7499 25.594 23.9879 25.6726 24.2543 25.7041C24.2934 25.708 24.332 25.7116 24.3724 25.7144H24.3796C24.3977 25.7144 24.4169 25.7144 24.4364 25.718H24.4446H24.5028H22.1816L22.1832 25.7179Z" fill="#1E5CB3"/>
<path d="M24.5049 25.7177H24.5679H24.5875H24.6315C24.6389 25.7177 24.646 25.7177 24.6531 25.7142C24.667 25.7142 24.6816 25.7142 24.6962 25.7107H24.7009H24.7172C24.7318 25.7107 24.7478 25.7072 24.763 25.7058H24.7669C24.7715 25.7058 24.7761 25.7023 24.7807 25.7023C24.7971 25.6987 24.8141 25.6973 24.83 25.6948C24.8354 25.6948 24.8396 25.6948 24.8453 25.6913C24.8634 25.6877 24.8821 25.6859 24.9008 25.6824H24.9043H24.9097C24.947 25.6753 24.9834 25.6682 25.0202 25.6589C25.1272 25.6984 25.2387 25.7184 25.359 25.7184L24.5055 25.722L24.5049 25.7177Z" fill="#1D60B5"/>
<path d="M23.7511 23.7759V23.7723C23.5073 24.0055 23.264 24.2191 23.0211 24.4122C22.8941 24.513 22.7675 24.6085 22.6396 24.6987C22.7466 24.8265 22.8555 24.9464 22.97 25.0557C23.1441 25.2244 23.3301 25.3665 23.5331 25.4762C23.5793 25.4535 23.6255 25.4287 23.6703 25.4025C23.8772 25.2817 24.0629 25.1187 24.2383 24.9047C24.0566 24.5947 23.8972 24.2106 23.752 23.7754" fill="#175FAB"/>
<path d="M31.001 15.0013H29.8491H29.7345H29.6261H29.6219C29.5473 15.0049 29.475 15.0074 29.4034 15.012C29.3697 15.0844 29.3351 15.1568 29.3017 15.2296C28.1601 17.6613 26.9611 19.7684 25.7439 21.4434C25.1715 23.205 24.7514 24.2738 24.2363 24.9026C24.4566 25.2783 24.7128 25.5425 25.0174 25.6544C25.0263 25.6509 25.0334 25.6509 25.0414 25.6491H25.0463C25.0517 25.6491 25.0574 25.6455 25.0632 25.6455C25.0757 25.642 25.089 25.6398 25.1014 25.6359C25.1094 25.6324 25.116 25.6321 25.1241 25.6295C25.1356 25.626 25.1476 25.6235 25.1583 25.6206C25.1654 25.6171 25.1725 25.616 25.1796 25.6146C25.1973 25.6089 25.2133 25.6046 25.2302 25.5993C25.2382 25.5958 25.2466 25.5929 25.2555 25.5908C25.2653 25.5872 25.2751 25.5847 25.2839 25.5805C25.2942 25.5769 25.3044 25.5751 25.3132 25.5712C25.3213 25.5677 25.3297 25.5655 25.3372 25.5623C25.3572 25.5552 25.3767 25.5492 25.3967 25.5414C25.4021 25.5414 25.4074 25.5365 25.4132 25.5353C25.4251 25.5303 25.4376 25.5264 25.4496 25.5211C25.454 25.5176 25.4594 25.5172 25.4651 25.5154C25.5069 25.498 25.5499 25.4802 25.593 25.4608H25.5975C25.6588 25.4338 25.7209 25.4035 25.7827 25.372C27.7619 24.2662 28.761 20.5512 31.8677 15.0018H31L31.001 15.0013Z" fill="url(#paint14_linear_1502_1175)"/>
<path d="M13.8203 15.2445C13.8252 15.2445 13.8297 15.2445 13.8345 15.248C13.8465 15.248 13.8585 15.248 13.8705 15.2519H13.8825C13.9042 15.2554 13.926 15.2572 13.9482 15.2604C13.9523 15.2604 13.9558 15.2604 13.9593 15.2639C13.9775 15.2674 13.9962 15.2703 14.0148 15.2732C14.0189 15.2732 14.0242 15.2767 14.0286 15.2767C14.0712 15.2852 14.1147 15.2941 14.1565 15.3051C14.1604 15.3051 14.1645 15.3086 14.168 15.3086C14.1858 15.3128 14.2018 15.3182 14.2195 15.3232C14.2249 15.3232 14.2288 15.3267 14.2338 15.3275C14.2546 15.3329 14.2742 15.3382 14.2946 15.3449C14.2955 15.3449 14.2967 15.3449 14.2991 15.3484C14.3164 15.3537 14.3341 15.3605 14.3524 15.3665C14.3595 15.37 14.3661 15.3715 14.3728 15.3733C14.3852 15.3787 14.399 15.384 14.411 15.3889C14.4181 15.3889 14.4252 15.3939 14.4327 15.3964C14.4491 15.4039 14.4665 15.4106 14.4833 15.4177C14.4922 15.4212 14.4997 15.4252 14.5082 15.4284C14.518 15.4334 14.5282 15.438 14.5388 15.4415C14.5477 15.4458 14.5575 15.4504 14.5659 15.4543C14.5752 15.4593 14.5841 15.4632 14.593 15.4682C14.8133 15.5765 15.0162 15.7209 15.204 15.8958C15.2733 15.823 15.3457 15.7577 15.4207 15.6991C15.01 15.4078 14.5446 15.2417 14.0077 15.2417C13.9456 15.2417 13.8834 15.2452 13.8203 15.2499" fill="#7DCBEC"/>
<path d="M15.2046 15.8909C15.3196 15.998 15.4297 16.1174 15.5341 16.2462C15.6349 16.176 15.7348 16.1085 15.8352 16.0455C15.7037 15.914 15.5652 15.7959 15.4208 15.6942C15.3458 15.7524 15.2739 15.8181 15.2046 15.8909Z" fill="#5EC5ED"/>
<path d="M13.8204 15.2448C13.8835 15.2395 13.9457 15.2373 14.0078 15.2373C14.5447 15.2373 15.0101 15.4034 15.4209 15.6942C15.8543 15.3523 16.3783 15.2328 17.1061 15.2328H13.5815C13.6628 15.2328 13.7423 15.2377 13.8204 15.2448Z" fill="url(#paint15_linear_1502_1175)"/>
<path d="M17.1061 15.2334C16.3783 15.2334 15.8543 15.3528 15.4209 15.6948C15.5648 15.7965 15.7033 15.9146 15.8348 16.046C16.4382 15.6624 17.036 15.4083 17.6252 15.2973C17.8499 15.2551 18.0742 15.2334 18.2953 15.2334H17.1061Z" fill="url(#paint16_linear_1502_1175)"/>
<path d="M25.7456 21.447C26.0586 20.4816 26.417 19.3098 26.8615 17.8883C27.262 16.6076 27.9712 15.6502 29.303 15.2324C29.3381 15.1609 29.3713 15.0872 29.4056 15.0148C27.2345 15.1449 26.2198 16.2493 25.7092 17.8848C24.8161 20.7401 24.2753 22.5909 23.7544 23.7704C24.4196 23.1345 25.0848 22.3538 25.7456 21.447Z" fill="url(#paint17_linear_1502_1175)"/>
<path d="M28.9302 24.9577H28.6842V25.7224H28.5838V24.9577H28.3369V24.8667H28.9302V24.9577Z" fill="black"/>
<path d="M29.9382 25.7224H29.8383V25.1478C29.8383 25.1025 29.8418 25.047 29.8465 24.9817C29.8361 25.0208 29.8276 25.0479 29.8198 25.0652L29.5285 25.7224H29.4797L29.1875 25.0701C29.1789 25.052 29.1704 25.0225 29.1612 24.9817H29.1577C29.1612 25.0162 29.1623 25.0719 29.1623 25.1491V25.7224H29.0664V24.8667H29.1987L29.4612 25.4639C29.4811 25.5088 29.4935 25.5434 29.4998 25.5665H29.5037C29.5211 25.5195 29.5353 25.4844 29.545 25.4613L29.8128 24.8667H29.9389V25.7224H29.9382Z" fill="black"/>
<rect x="0.5" y="0.5" width="39" height="39" rx="7.5" stroke="#E1E4F3"/>
<defs>
<linearGradient id="paint0_linear_1502_1175" x1="18.0663" y1="15.163" x2="18.0663" y2="28.3345" gradientUnits="userSpaceOnUse">
<stop stop-color="#0994DC"/>
<stop offset="0.350006" stop-color="#66CEF5"/>
<stop offset="0.846161" stop-color="#127BCA"/>
<stop offset="1" stop-color="#127BCA"/>
</linearGradient>
<linearGradient id="paint1_linear_1502_1175" x1="18.5691" y1="14.829" x2="18.5691" y2="28.3362" gradientUnits="userSpaceOnUse">
<stop stop-color="#0E76BC"/>
<stop offset="0.360001" stop-color="#36AEE8"/>
<stop offset="0.846161" stop-color="#00ADEF"/>
<stop offset="1" stop-color="#00ADEF"/>
</linearGradient>
<linearGradient id="paint2_linear_1502_1175" x1="21.283" y1="25.415" x2="21.283" y2="14.6675" gradientUnits="userSpaceOnUse">
<stop stop-color="#1C63B7"/>
<stop offset="0.5" stop-color="#33BDF2"/>
<stop offset="1" stop-color="#33BDF2" stop-opacity="0.419608"/>
</linearGradient>
<linearGradient id="paint3_linear_1502_1175" x1="20.577" y1="13.4604" x2="20.577" y2="27.4843" gradientUnits="userSpaceOnUse">
<stop stop-color="#166AB8"/>
<stop offset="0.399994" stop-color="#36AEE8"/>
<stop offset="0.846161" stop-color="#0798DD"/>
<stop offset="1" stop-color="#0798DD"/>
</linearGradient>
<linearGradient id="paint4_linear_1502_1175" x1="19.4711" y1="13.5343" x2="19.4711" y2="28.4469" gradientUnits="userSpaceOnUse">
<stop stop-color="#124379"/>
<stop offset="0.389999" stop-color="#1487CB"/>
<stop offset="0.780228" stop-color="#165197"/>
<stop offset="1" stop-color="#165197"/>
</linearGradient>
<linearGradient id="paint5_linear_1502_1175" x1="13.4819" y1="18.1129" x2="15.5904" y2="18.1129" gradientUnits="userSpaceOnUse">
<stop stop-color="#33BDF2" stop-opacity="0.698039"/>
<stop offset="1" stop-color="#1DACD8"/>
</linearGradient>
<linearGradient id="paint6_linear_1502_1175" x1="29.3166" y1="25.1454" x2="29.3166" y2="14.6759" gradientUnits="userSpaceOnUse">
<stop stop-color="#136AB4"/>
<stop offset="0.6" stop-color="#59CAF5" stop-opacity="0.54902"/>
<stop offset="1" stop-color="#59CAF5" stop-opacity="0.235294"/>
</linearGradient>
<linearGradient id="paint7_linear_1502_1175" x1="5.99994" y1="20.6145" x2="13.8203" y2="20.6145" gradientUnits="userSpaceOnUse">
<stop stop-color="#05A1E6" stop-opacity="0.247059"/>
<stop offset="1" stop-color="#05A1E6"/>
</linearGradient>
<linearGradient id="paint8_linear_1502_1175" x1="10.3309" y1="25.4092" x2="10.3309" y2="14.6893" gradientUnits="userSpaceOnUse">
<stop stop-color="#318ED5"/>
<stop offset="1" stop-color="#38A7E4"/>
</linearGradient>
<linearGradient id="paint9_linear_1502_1175" x1="11.0056" y1="25.4469" x2="11.0056" y2="15.0266" gradientUnits="userSpaceOnUse">
<stop stop-color="#05A1E6"/>
<stop offset="1" stop-color="#05A1E6" stop-opacity="0.54902"/>
</linearGradient>
<linearGradient id="paint10_linear_1502_1175" x1="11.5667" y1="25.9789" x2="11.5667" y2="17.1735" gradientUnits="userSpaceOnUse">
<stop stop-color="#1959A6"/>
<stop offset="0.5" stop-color="#05A1E6"/>
<stop offset="0.917587" stop-color="#7EC5EA"/>
<stop offset="1" stop-color="#7EC5EA"/>
</linearGradient>
<linearGradient id="paint11_linear_1502_1175" x1="11.904" y1="25.416" x2="8.91918" y2="16.2943" gradientUnits="userSpaceOnUse">
<stop stop-color="#165096"/>
<stop offset="1" stop-color="#0D82CA"/>
</linearGradient>
<linearGradient id="paint12_linear_1502_1175" x1="27.5243" y1="20.0168" x2="27.5243" y2="15.0273" gradientUnits="userSpaceOnUse">
<stop stop-color="#05A1E6"/>
<stop offset="0.873627" stop-color="#0495D6"/>
<stop offset="1" stop-color="#0495D6"/>
</linearGradient>
<linearGradient id="paint13_linear_1502_1175" x1="29.8686" y1="14.5661" x2="25.2184" y2="24.8908" gradientUnits="userSpaceOnUse">
<stop stop-color="#38A7E4" stop-opacity="0.329412"/>
<stop offset="0.961533" stop-color="#0E88D3"/>
<stop offset="1" stop-color="#0E88D3"/>
</linearGradient>
<linearGradient id="paint14_linear_1502_1175" x1="28.0533" y1="14.9698" x2="28.0533" y2="25.8549" gradientUnits="userSpaceOnUse">
<stop stop-color="#168CD4"/>
<stop offset="0.5" stop-color="#1C87CC"/>
<stop offset="1" stop-color="#154B8D"/>
</linearGradient>
<linearGradient id="paint15_linear_1502_1175" x1="14.1692" y1="14.7458" x2="14.2164" y2="15.8874" gradientUnits="userSpaceOnUse">
<stop stop-color="#97D6EE"/>
<stop offset="0.703293" stop-color="#55C1EA"/>
<stop offset="1" stop-color="#55C1EA"/>
</linearGradient>
<linearGradient id="paint16_linear_1502_1175" x1="15.619" y1="15.9948" x2="15.8322" y2="14.7856" gradientUnits="userSpaceOnUse">
<stop stop-color="#7ACCEC"/>
<stop offset="1" stop-color="#3FB7ED"/>
</linearGradient>
<linearGradient id="paint17_linear_1502_1175" x1="26.5798" y1="15.5719" x2="26.5798" y2="26.2186" gradientUnits="userSpaceOnUse">
<stop stop-color="#1DA7E7"/>
<stop offset="1" stop-color="#37ABE7" stop-opacity="0"/>
</linearGradient>
</defs>
</svg>
