<svg width="56" height="56" viewBox="0 0 56 56" fill="none" xmlns="http://www.w3.org/2000/svg">
<rect x="0.5" y="0.5" width="55" height="55" rx="7.5" fill="white"/>
<path d="M27.8395 14.5002C26.7261 14.5054 25.6629 14.6003 24.7274 14.7659C21.9715 15.2528 21.4711 16.2719 21.4711 18.1512V20.6333H27.9837V21.4607H19.027C17.1342 21.4607 15.4769 22.5983 14.9585 24.7625C14.3605 27.2432 14.334 28.7912 14.9585 31.3814C15.4214 33.3094 16.527 34.6832 18.4197 34.6832H20.6589V31.7078C20.6589 29.5582 22.5188 27.6621 24.7274 27.6621H31.2324C33.0432 27.6621 34.4887 26.1711 34.4887 24.3526V18.1512C34.4887 16.3863 32.9998 15.0605 31.2324 14.7659C30.1136 14.5797 28.9528 14.4951 27.8395 14.5002ZM24.3175 16.4965C24.9902 16.4965 25.5396 17.0548 25.5396 17.7413C25.5396 18.4254 24.9902 18.9786 24.3175 18.9786C23.6424 18.9786 23.0954 18.4254 23.0954 17.7413C23.0954 17.0548 23.6424 16.4965 24.3175 16.4965Z" fill="#009FA9"/>
<path d="M35.2995 21.4639V24.3558C35.2995 26.5979 33.3987 28.485 31.231 28.485H24.726C22.9442 28.485 21.4697 30.01 21.4697 31.7945V37.9959C21.4697 39.7608 23.0045 40.799 24.726 41.3053C26.7876 41.9115 28.7645 42.021 31.231 41.3053C32.8706 40.8306 34.4874 39.8752 34.4874 37.9959V35.5138H27.9823V34.6864H37.7437C39.6364 34.6864 40.3417 33.3662 41 31.3846C41.6799 29.3445 41.651 27.3827 41 24.7657C40.5322 22.8815 39.6388 21.4639 37.7437 21.4639H35.2995ZM31.6409 37.1685C32.3161 37.1685 32.863 37.7217 32.863 38.4058C32.863 39.0923 32.3161 39.6506 31.6409 39.6506C30.9682 39.6506 30.4189 39.0923 30.4189 38.4058C30.4189 37.7217 30.9682 37.1685 31.6409 37.1685Z" fill="url(#paint0_linear_1549_1915)"/>
<rect x="0.5" y="0.5" width="55" height="55" rx="7.5" stroke="#E1E4F3"/>
<defs>
<linearGradient id="paint0_linear_1549_1915" x1="31.4844" y1="38.1971" x2="26.0968" y2="30.6474" gradientUnits="userSpaceOnUse">
<stop stop-color="#FFD43B"/>
<stop offset="1" stop-color="#FFE873"/>
</linearGradient>
</defs>
</svg>
