<svg width="56" height="56" viewBox="0 0 56 56" fill="none" xmlns="http://www.w3.org/2000/svg">
<rect x="0.5" y="0.5" width="55" height="55" rx="7.5" fill="white"/>
<path d="M29.7025 27.281C31.2944 29.1137 29.2843 30.763 29.2843 30.763C29.2843 30.763 33.3263 28.6763 31.47 26.0634C29.7363 23.6267 28.4067 22.4159 35.6044 18.2415C35.6044 18.2415 24.3064 21.0633 29.7025 27.281Z" fill="#EC2025"/>
<path d="M31.4732 11.5C31.4732 11.5 34.9023 14.9302 28.2209 20.205C22.8631 24.4362 26.9992 26.8487 28.2187 29.6052C25.0912 26.7835 22.7961 24.2995 24.3359 21.9876C26.5959 18.5941 32.8568 16.9487 31.4732 11.5Z" fill="#EC2025"/>
<path d="M23.8376 37.0224C23.8376 37.0224 22.5765 37.7558 24.7351 38.004C27.3503 38.3023 28.6869 38.2595 31.5688 37.7141C31.5688 37.7141 32.3265 38.1892 33.3847 38.6007C26.9242 41.3696 18.7632 38.4403 23.8376 37.0224Z" fill="#0D8AC7"/>
<path d="M23.0492 33.409C23.0492 33.409 21.6347 34.456 23.795 34.6795C26.5886 34.9677 28.7948 34.9913 32.6123 34.2562C32.6123 34.2562 33.1403 34.7915 33.9706 35.0842C26.1594 37.3683 17.4592 35.2643 23.0492 33.409Z" fill="#0D8AC7"/>
<path d="M38.2493 39.6929C38.2493 39.6929 39.1826 40.4619 37.2215 41.0568C33.4924 42.1865 21.7005 42.5276 18.4248 41.1018C17.2473 40.5895 19.4555 39.8786 20.1501 39.7294C20.8745 39.5724 21.2885 39.6016 21.2885 39.6016C19.979 38.6791 12.8241 41.413 17.6542 42.196C30.8265 44.3321 41.666 41.2341 38.2493 39.6929Z" fill="#0D8AC7"/>
<path d="M24.4454 29.6652C24.4454 29.6652 18.4473 31.0898 22.3213 31.6071C23.957 31.8261 27.2178 31.7766 30.2551 31.5221C32.7374 31.3127 35.2299 30.8675 35.2299 30.8675C35.2299 30.8675 34.3546 31.2423 33.7214 31.6747C27.6305 33.2767 15.8639 32.5314 19.2513 30.8929C22.1161 29.5081 24.4454 29.6652 24.4454 29.6652Z" fill="#0D8AC7"/>
<path d="M35.2049 35.6787C41.3967 32.4612 38.5338 29.3692 36.5356 29.7858C36.0459 29.8877 35.8275 29.9761 35.8275 29.9761C35.8275 29.9761 36.0093 29.6912 36.3566 29.568C40.3097 28.1782 43.3499 33.6669 35.0805 35.8408C35.0805 35.8408 35.1763 35.7552 35.2049 35.6787Z" fill="#0D8AC7"/>
<path d="M25.0537 44.3959C30.997 44.7763 40.1236 44.1848 40.3397 41.3726C40.3397 41.3726 39.9242 42.4387 35.4279 43.2853C30.3552 44.2399 24.0987 44.1285 20.3879 43.5167C20.3879 43.5167 21.1476 44.1454 25.0537 44.3959Z" fill="#0D8AC7"/>
<rect x="0.5" y="0.5" width="55" height="55" rx="7.5" stroke="#E1E4F3"/>
</svg>
